<?xml version="1.0" encoding="UTF-8" standalone="no"?>
<!-- Created with Inkscape (http://www.inkscape.org/) -->

<svg
   xmlns:dc="http://purl.org/dc/elements/1.1/"
   xmlns:cc="http://creativecommons.org/ns#"
   xmlns:rdf="http://www.w3.org/1999/02/22-rdf-syntax-ns#"
   xmlns:svg="http://www.w3.org/2000/svg"
   xmlns="http://www.w3.org/2000/svg"
   xmlns:sodipodi="http://sodipodi.sourceforge.net/DTD/sodipodi-0.dtd"
   xmlns:inkscape="http://www.inkscape.org/namespaces/inkscape"
   width="514.52545"
   height="760.8822"
   id="svg1901"
   sodipodi:version="0.32"
   inkscape:version="0.47 r22583"
   sodipodi:docname="brown_rat.svg"
   inkscape:output_extension="org.inkscape.output.svg.inkscape"
   version="1.1">
  <defs
     id="defs1903">
    <inkscape:perspective
       sodipodi:type="inkscape:persp3d"
       inkscape:vp_x="0 : 526.18109 : 1"
       inkscape:vp_y="0 : 1000 : 0"
       inkscape:vp_z="744.09448 : 526.18109 : 1"
       inkscape:persp3d-origin="372.04724 : 350.78739 : 1"
       id="perspective4169" />
    <inkscape:perspective
       id="perspective4311"
       inkscape:persp3d-origin="0.5 : 0.33333333 : 1"
       inkscape:vp_z="1 : 0.5 : 1"
       inkscape:vp_y="0 : 1000 : 0"
       inkscape:vp_x="0 : 0.5 : 1"
       sodipodi:type="inkscape:persp3d" />
    <filter
       inkscape:collect="always"
       id="filter3655"
       color-interpolation-filters="sRGB">
      <feGaussianBlur
         inkscape:collect="always"
         stdDeviation="11.908955"
         id="feGaussianBlur3657" />
    </filter>
    <filter
       inkscape:collect="always"
       id="filter3659"
       x="-0.093268111"
       width="1.1865362"
       y="-0.16821174"
       height="1.3364235"
       color-interpolation-filters="sRGB">
      <feGaussianBlur
         inkscape:collect="always"
         stdDeviation="23.81791"
         id="feGaussianBlur3661" />
    </filter>
  </defs>
  <sodipodi:namedview
     id="base"
     pagecolor="#ffffff"
     bordercolor="#666666"
     borderopacity="1.0"
     inkscape:pageopacity="0.0"
     inkscape:pageshadow="2"
     inkscape:zoom="0.48378485"
     inkscape:cx="257.53761"
     inkscape:cy="370.35548"
     inkscape:document-units="px"
     inkscape:current-layer="layer1"
     gridtolerance="10000"
     inkscape:window-width="731"
     inkscape:window-height="679"
     inkscape:window-x="0"
     inkscape:window-y="25"
     showgrid="false"
     inkscape:window-maximized="0" />
  <metadata
     id="metadata1906">
    <rdf:RDF>
      <cc:Work
         rdf:about="">
        <dc:format>image/svg+xml</dc:format>
        <dc:type
           rdf:resource="http://purl.org/dc/dcmitype/StillImage" />
        <dc:title></dc:title>
      </cc:Work>
    </rdf:RDF>
  </metadata>
  <g
     inkscape:label="Taso 1"
     inkscape:groupmode="layer"
     id="layer1"
     transform="translate(-100.20079,-16.518675)">
    <g
       id="g2832"
       transform="matrix(0.7075288,0,0,0.7075288,87.670717,-3.714909)">
      <path
         sodipodi:nodetypes="cccccccccc"
         id="path4862"
         d="m 586.34179,142.839 c 1.88606,3.32834 4.77062,5.76912 4.77062,5.76912 l -0.22189,-10.87257 c 0,0 -4.43778,1.997 -4.54873,5.10345 z m 30.62069,7.21139 c 2.90152,-1.49928 5.01236,-3.78923 6.43478,-6.76761 -1.7875,-3.8213 -4.65386,-5.48488 -6.9895,-8.2099 -0.3742,5.01828 -1.56366,9.9704 0.55472,14.97751 z"
         style="fill:#d4d4d4;fill-opacity:1;stroke:none" />
      <path
         id="path4860"
         d="m 593.22035,142.839 c 1.10945,-6.43478 4.54873,-8.87556 9.98501,-8.98651 5.43628,-0.11094 12.98051,4.10495 12.75862,8.65368 -0.22189,4.54872 -2.9955,9.985 -8.20989,10.09595 -5.2144,0.11094 -14.64468,-9.54123 -14.53374,-9.76312 z"
         style="fill:#ffffff;fill-opacity:1;stroke:none" />
      <path
         id="path4841"
         d="m 244.46875,40.28125 c -22.93169,0.816828 -44.85083,8.747181 -66.28125,16.40625 -26.78823,9.536985 -52.0981,25.590316 -68.15625,49.46875 -13.58588,18.79986 -19.109696,41.78434 -25.0625,63.8125 -2.399466,14.86666 -0.956825,30.05844 1.125,44.8125 1.997427,21.55788 -10.05413,41.45919 -9.4375,62.875 1.022729,14.10078 9.631335,26.74032 19.46875,36.5 17.0314,14.62204 39.50711,20.54729 60.78125,26.1875 21.40043,4.07973 42.79975,9.76546 64.65625,10.15625 33.96706,-0.93416 66.22925,-17.30653 100.5,-13.59375 18.24283,1.43707 35.32088,8.20206 51.53125,16.34375 19.72531,8.45326 39.30889,17.62101 59.59375,24.5 2.94681,0.46936 10.11336,1.97222 9.03125,-3.15625 -3.69527,-5.62487 -11.1554,-7.66643 -16.46875,-11.5625 -31.59223,-17.77088 -64.16383,-38.3121 -101.40625,-39.9375 -22.73535,-1.33497 -45.21221,3.81862 -66.6875,10.5 -23.88782,5.98111 -48.89285,3.60054 -73,0.5 -21.71201,-5.59933 -43.05934,-13.34333 -63.125,-23.46875 -10.51466,-5.93078 -23.107756,-13.98396 -24.375,-27.21875 0.833713,-12.16177 9.16237,-24.93471 21.5,-27.84375 22.79908,-3.1121 45.06029,5.52456 67.0625,10.15625 5.40525,1.98109 12.873,3.05146 16.5625,-2.5 3.48285,-3.79653 8.61414,-6.40578 11.0625,-10.96875 2.81858,-2.6639 8.58468,-3.4905 12.5625,-5.1875 14.77723,-4.63637 30.70685,-4.52267 46.125,-4.1875 15.60057,1.64915 28.45226,12.43572 43.15625,17.4375 27.20777,11.01495 56.89025,13.25118 85.6875,17.4375 13.27081,1.06848 26.73079,4.15602 40.03125,2.1875 14.53661,-3.6323 20.40528,-19.10356 27.09375,-30.84375 6.61079,-12.65557 16.14966,-24.12592 29.375,-30.15625 3.93416,-0.97774 5.26453,-5.46535 9.03125,-6.1875 9.81761,3.21684 19.49841,7.27925 30,8 21.35619,3.37797 43.07456,0.0795 63.46875,-6.53125 14.33195,-4.66512 29.62049,-7.62778 42.625,-15.40625 2.78948,-2.47909 -4.86333,-2.52315 -0.4375,-3.1875 7.56695,-2.21877 16.92548,-2.7362 22.5625,-8.875 1.08431,-3.62923 -2.70139,-7.11895 -0.71875,-10.9375 0.92596,-4.74457 6.09573,-5.8722 8.875,-9.03125 0.45168,-5.94485 -5.78607,-9.94947 -9.625,-13.625 -11.25277,-5.79428 -23.9375,-10.0809 -33.9375,-18 -3.78777,-4.44697 -7.37248,-9.32663 -13.1875,-11.34375 -26.45187,-11.83878 -55.78369,-15.18376 -84.4375,-17.34375 -2.10679,-0.51079 -6.98979,0.41317 -4.125,3.28125 -0.61477,-0.56612 -1.26552,-1.11866 -1.9375,-1.625 -2.99274,-2.56566 -5.50288,-5.62783 -8.6875,-7.96875 -1.63492,-0.94279 -3.09387,-2.170521 -4.5625,-3.34375 -3.59745,-2.775887 -7.75474,-5.248528 -12.40625,-5.5 -2.70214,-0.141679 -5.39497,-0.363294 -8.09375,-0.4375 -0.13616,0.03107 -0.27011,0.06268 -0.40625,0.09375 -0.23546,0.144298 -0.34987,0.347306 -0.40625,0.5625 -1.59856,-0.263556 -4.23748,0.891842 -5,2 -5.67665,3.554493 -5.35395,10.90994 -2.9375,16.34375 2.78579,9.03696 10.63212,15.9682 18.84375,20.1875 6.24523,2.50404 13.54773,4.47784 19.15625,7.5 -11.04977,-3.2513 -22.51828,-6.91904 -31.75,-14.0625 -4.21406,-1.99686 -8.29432,3.14198 -12.46875,3.59375 -21.75009,6.37465 -44.92095,1.82072 -66.96875,-0.9375 -8.88488,-0.87644 -17.38444,-4.39649 -23.0625,-11.59375 C 372.42824,99.505424 361.73577,80.525764 343.4375,69.5 327.31206,56.789688 308.66005,47.188035 288.3125,43.53125 c -14.40427,-2.681354 -29.19042,-3.253 -43.84375,-3.25 z M 495.625,93.3125 c 0.336,0.0011 0.66527,0.01545 1,0.0625 5.39777,0.586925 10.91347,2.314013 15.0625,5.96875 3.38343,3.16608 6.71155,6.42613 10.09375,9.59375 3.72538,3.5579 7.33091,7.24083 10.90625,10.9375 0.64646,0.5535 0.95645,1.47994 1.71875,1.875 0.19422,0.11149 0.39205,0.11936 0.59375,0.0625 -0.01,1.00566 -0.25944,2.05013 -0.875,3.15625 -2.09248,5.7263 -8.50595,10.2196 -14.53125,7.34375 -13.02075,-3.52841 -28.29991,-11.11386 -30.5,-25.84375 -1.26936,-4.51793 -0.13084,-8.936682 2.8125,-12.5 0.24062,0.126835 0.5152,0.159496 0.8125,0.03125 0.90285,-0.481453 1.89824,-0.690851 2.90625,-0.6875 z m 110.53125,38.53125 c 7.29037,0.0201 13.80427,5.24683 17.09375,11.34375 -6.0361,11.78725 -24.39012,15.04491 -33.25,4.53125 -1.81772,-2.14421 -6.01109,-5.24948 -2,-7.65625 4.40449,-4.65469 9.98359,-8.49073 16.6875,-8.15625 0.49226,-0.0463 0.98273,-0.0638 1.46875,-0.0625 z"
         style="color:#000000;fill:#a68f82;fill-opacity:1;fill-rule:nonzero;stroke:none;stroke-width:1;marker:none;visibility:visible;display:inline;overflow:visible;enable-background:accumulate" />
      <path
         id="path4847"
         d="m 461.39918,266.07309 c -2.9159,2.67478 -4.91375,6.30221 -8.22963,8.6166 -4.13131,3.24495 -9.29925,4.94009 -13.95816,7.23638 -1.16933,1.7081 1.93159,2.13749 2.94802,2.87687 10.1221,4.32481 20.85617,7.08713 31.57715,9.41785 6.10164,1.36793 11.8925,3.86216 17.49921,6.62608 1.51123,0.42383 3.49538,1.80753 4.91659,0.67565 0.60764,-1.87176 -1.64524,-3.12085 -2.72612,-4.32454 -1.93249,-1.70494 -4.12192,-3.13488 -6.54074,-4.04015 3.70715,0.50566 7.7225,0.91964 10.4338,3.795 1.39031,0.90587 2.65544,2.73222 4.48143,2.67709 1.71568,-0.57648 0.14901,-2.5528 -0.29418,-3.1576 1.22633,1.29998 4.23238,2.10101 5.04039,0.0392 0.0694,-1.63125 -1.97148,-2.24921 -2.59865,-3.59888 -1.20176,-1.32342 -0.14263,-0.3393 0.6276,0.0981 1.16824,1.02711 3.43262,-0.0757 2.48097,-1.67686 -2.18207,-3.91693 -5.68432,-7.46847 -10.06117,-8.77655 -6.23175,-0.78575 -12.67944,-0.61868 -18.75926,-2.12794 -4.17272,-1.82968 -7.19197,-5.45982 -10.41419,-8.55101 -1.97477,-1.87559 -3.26256,-4.75842 -5.90333,-5.8445 -0.17358,-0.0172 -0.35083,-0.0174 -0.51973,0.0392 z"
         style="color:#000000;fill:#e8af89;fill-opacity:1;fill-rule:nonzero;stroke:none;stroke-width:1;marker:none;visibility:visible;display:inline;overflow:visible;enable-background:accumulate" />
      <path
         id="path4849"
         d="m 217.29337,252.32872 c -3.22205,0.89696 -5.47738,3.74865 -8.06025,5.72241 -3.28398,3.27711 -7.91778,5.59616 -9.94394,9.90868 -0.80192,1.70927 0.97023,3.11799 2.58884,2.86341 5.18629,0.01 9.66063,3.29446 14.65047,4.41279 6.03566,1.93987 12.6936,2.28832 18.00078,5.99554 3.06051,2.47107 3.7267,6.65967 6.05383,9.61594 1.52194,1.05653 2.41372,-1.16543 2.02008,-2.38291 -0.1583,-5.26511 -3.40985,-9.9965 -7.87438,-12.63039 -0.39627,-0.28879 -1.95178,-1.65062 -0.63741,-1.17675 4.17081,1.01626 8.1516,3.13346 10.78813,6.62591 1.96103,1.82892 3.47117,4.46387 6.00009,5.54359 2.09442,0.0724 1.81518,-2.65577 1.04927,-3.88325 -2.67525,-6.29923 -8.43536,-10.69876 -14.76814,-12.93439 -0.76006,-0.41063 -2.09877,-0.73774 -2.53,-1.28461 4.26153,-1.88232 9.11023,-0.4344 13.41488,0.53934 3.66882,1.27906 6.80698,4.9475 10.98295,4.2559 1.87089,-0.69934 0.52394,-2.84794 -0.52954,-3.63811 -0.88943,-0.92471 -1.82715,-1.80165 -2.87321,-2.5398 1.32861,0.76268 3.07501,-0.82296 1.89259,-2.08872 -3.17,-3.31978 -7.51414,-5.45208 -11.77725,-7.07028 -5.5302,-1.56444 -11.63255,-0.0992 -16.88784,-2.68797 -3.77968,-1.19551 -7.54465,-3.14962 -11.55995,-3.16633 z m 0,0 m 30.77186,11.12024 c 0.79294,0.0215 2.17296,0.72777 2.38291,0.93158 -0.82678,-0.41546 -1.70178,-0.74067 -2.59864,-0.961 z"
         style="color:#000000;fill:#e8af89;fill-opacity:1;fill-rule:nonzero;stroke:none;stroke-width:1;marker:none;visibility:visible;display:inline;overflow:visible;enable-background:accumulate" />
      <path
         id="path4851"
         d="m 672.65421,167.41289 c -3.98629,0.80371 -7.49215,3.82639 -9.19822,7.48213 -1.3574,3.47052 -0.94874,8.30156 2.46135,10.42399 1.97584,0.33218 2.88539,-2.17689 3.95805,-3.39988 2.11435,-3.67384 4.65881,-7.58428 4.64199,-11.97624 0.0305,-1.19134 -0.27102,-2.79674 -1.86317,-2.53 z"
         style="color:#000000;fill:#da9155;fill-opacity:1;fill-rule:nonzero;stroke:none;stroke-width:1;marker:none;visibility:visible;display:inline;overflow:visible;enable-background:accumulate" />
      <path
         id="path4853"
         d="m 532.5824,90.751916 c -3.00689,-0.05393 -3.68888,3.488467 -3.77813,5.853506 -0.0328,3.066797 -0.40662,6.484738 1.08143,9.248048 2.20752,1.19956 4.98836,0.63913 7.42329,0.98062 7.53043,0.39501 14.95872,1.62509 22.4464,2.35349 1.88886,-0.4258 0.57313,-2.64768 -0.0294,-3.61849 -2.12597,-4.07066 -5.1848,-7.843702 -9.62969,-9.443375 -4.90134,-2.112921 -10.02027,-3.573399 -15.12116,-5.069806 -0.78738,-0.157847 -1.58532,-0.33917 -2.39272,-0.303993 z"
         style="color:#000000;fill:#7b6356;fill-opacity:1;fill-rule:nonzero;stroke:none;stroke-width:1;marker:none;visibility:visible;display:inline;overflow:visible;enable-background:accumulate" />
      <path
         id="path4855"
         d="m 495.25019,92.673932 c -4.51882,0.07329 -6.92976,4.912343 -7.12376,8.903108 -0.74775,9.14484 4.57276,17.915 12.13473,22.77093 6.41424,4.27042 13.74206,6.9415 21.10295,9.06093 2.57192,0.41789 5.63371,0.74794 7.52136,-1.47093 2.85188,-2.46746 6.45118,-5.78027 5.56011,-9.94349 -2.13665,-3.6187 -5.50153,-6.35233 -8.18818,-9.56105 -3.95346,-4.37792 -8.55016,-7.97372 -12.75511,-12.08596 -3.44556,-3.453074 -7.80866,-5.840519 -12.57431,-6.908654 -1.85248,-0.460412 -3.76253,-0.799192 -5.67779,-0.764884 z"
         style="color:#000000;fill:#e6ab7e;fill-opacity:1;fill-rule:nonzero;stroke:none;stroke-width:1;marker:none;visibility:visible;display:inline;overflow:visible;enable-background:accumulate" />
      <path
         id="path4317"
         d="m 435.47452,379.13129 c -4.83984,-1.55887 -9.48901,-3.33028 -14.26315,-5.06622 -7.90715,-4.0636 -16.4122,-6.68836 -24.58802,-10.11623 -5.36304,-2.57186 -10.89399,-4.77578 -16.39662,-7.05073 -8.6296,-3.95028 -16.94625,-8.63096 -26.03077,-11.49384 -4.67817,-1.92901 -9.73358,-2.92314 -14.65288,-4.09872 -4.85362,-1.4873 -9.83184,-2.4878 -14.91078,-2.93801 -8.07571,-0.77963 -16.22048,-1.89034 -24.31266,-0.72958 -7.43098,1.14702 -14.84747,2.41127 -22.2679,3.61093 -9.60425,1.84111 -18.96739,4.90989 -28.68005,6.20636 -11.3275,3.44018 -23.28823,3.80042 -35.03389,3.34217 -9.80121,-0.85707 -19.62773,-1.79351 -29.22746,-3.98723 -8.09048,-1.43904 -16.03836,-3.57446 -24.14031,-4.94108 -7.28943,-1.57261 -14.53514,-3.45749 -21.63105,-5.78396 -8.74467,-2.24145 -17.32794,-5.26202 -25.32216,-9.5224 -9.33306,-4.69194 -18.717097,-10.27357 -24.986626,-18.87079 -4.610932,-4.94896 -8.648007,-10.50587 -10.794254,-16.967 -2.584199,-6.62317 -4.102786,-13.76381 -2.998604,-20.87803 0.726528,-5.52082 1.173186,-11.0883 2.93226,-16.40779 2.097779,-10.02866 5.034073,-19.88888 6.637073,-30.0111 0.527154,-6.31487 -0.421627,-12.58161 -1.614951,-18.75834 -0.881717,-9.51612 -1.152851,-19.15396 -0.328986,-28.67745 0.977286,-6.20706 3.312555,-12.09162 4.826558,-18.18429 3.932435,-11.39743 6.130866,-23.43101 11.429904,-34.32447 2.602156,-5.12858 5.363026,-10.17512 8.814496,-14.78821 2.44136,-4.29658 4.75004,-8.721622 8.45807,-12.107207 5.52592,-6.459783 11.65874,-12.542099 18.61634,-17.436163 3.64305,-3.012104 6.99516,-6.102588 11.30337,-8.156949 10.27825,-5.523404 20.65363,-10.940391 31.70467,-14.76069 5.31946,-2.204206 10.71874,-4.308507 16.19173,-6.066393 16.01645,-3.355695 31.46369,-10.195164 48.06428,-10.141528 12.67323,-0.472774 25.36336,0.499176 37.96649,1.727387 7.87684,1.091808 15.63557,2.792642 23.25785,5.074072 5.4488,1.813417 10.77448,4.005181 15.94213,6.517136 5.61583,2.893752 11.10769,6.043361 15.92467,10.159411 6.85114,4.980543 14.19174,9.285827 20.81256,14.556896 3.86686,4.08232 8.61531,7.467816 11.61888,12.333154 4.47975,5.847578 8.72388,11.887714 13.94958,17.111264 5.19244,5.3809 10.12585,11.58415 17.13269,14.64913 11.72576,4.29967 24.16856,6.06291 36.58323,6.7852 8.51696,1.30001 17.14726,1.08885 25.6686,-0.0334 7.37777,-0.62603 14.90529,-1.69233 21.38743,-5.54524 3.46882,-0.93195 5.09214,-3.37693 1.92607,-5.98574 -2.55694,-4.28019 -4.78338,-8.82398 -4.80573,-13.92265 -0.47399,-4.66961 2.22778,-9.688351 6.25068,-12.11151 4.33778,-0.791751 9.02343,-0.674351 13.54032,-0.499164 5.51025,0.0855 10.24051,3.256017 14.3672,6.531588 3.0326,2.145546 6.13849,4.396626 8.70288,7.224046 1.14055,1.92433 2.82248,2.186 4.76142,1.17236 0.88014,-3.8058 -0.72502,-9.060022 -0.04,-13.436373 2.87129,-5.332793 9.84669,-2.738853 14.08601,-0.746897 4.59481,2.110835 9.45119,3.930881 13.61689,6.807806 4.14708,2.465524 4.29416,8.709444 8.51284,10.641154 6.95032,1.49366 14.17973,1.41456 21.00603,3.58138 8.64391,2.07165 17.26455,4.36549 25.51828,7.72763 6.38189,2.04967 13.92512,3.70682 17.7496,9.70101 1.65672,4.39308 5.1476,7.57762 9.58225,9.06658 7.86269,4.19672 15.3218,9.26359 23.87406,12.00239 4.81438,1.31519 7.34657,5.6854 10.25176,9.23012 1.92916,5.47726 7.80373,0.99667 11.99595,2.06254 2.60006,-0.44576 7.05911,3.59661 2.13507,1.54042 -3.11691,-1.14644 -9.59036,-1.36811 -11.19418,1.00555 1.99284,4.6663 0.79696,9.73213 -1.99089,13.72596 4.9094,1.60768 10.7616,2.02147 14.09839,6.58139 1.23951,3.6999 -3.52361,-2.95011 -5.37452,-3.17926 -4.15628,-1.4778 -9.95704,-4.18141 -11.78796,1.69815 -4.87496,5.95318 -12.09959,9.9343 -19.65919,11.11909 -4.07476,4.03617 -8.55231,7.90228 -14.17456,9.62827 -5.57495,2.4466 -11.33729,4.47835 -17.18525,6.0875 -5.41614,2.30187 -11.32305,3.17273 -16.74601,5.3879 -5.35482,2.01563 -10.82077,4.02912 -16.60486,4.41303 -4.64261,1.80074 -9.68129,1.79497 -14.51268,2.85673 -5.62278,1.36778 -11.46825,0.69448 -17.20009,0.82545 -9.75797,-0.66739 -19.50804,-1.89055 -29.11208,-3.76557 -5.95118,-1.43248 -11.86516,-3.05839 -17.46432,-5.53619 -2.30408,-1.41364 -3.08346,2.63205 -5.12803,3.05957 -4.89098,2.56516 -9.85669,5.00523 -14.28701,8.32485 -4.63478,2.77214 -6.84428,8.09493 -10.77014,11.68075 -3.81292,5.52198 -7.12909,11.42064 -9.98213,17.49992 -0.53522,4.21528 -6.4171,8.95065 -1.72636,12.37917 2.71841,3.8118 5.97532,6.85057 9.59284,9.74257 3.49902,4.1937 8.98752,2.64659 13.61906,3.92231 4.3259,1.02527 9.81354,-1.26542 13.14758,2.47758 2.80818,2.72667 8.68883,5.57915 6.56664,10.22702 0.57486,2.65152 -0.91286,5.16038 -3.5941,5.20364 -2.09845,5.16908 -6.90443,-3.35659 -10.17549,-4.06094 -1.5447,-1.27405 -4.49608,-1.14134 -1.22219,0.6284 1.93272,1.68726 6.87014,4.76417 2.86419,6.87112 -4.46092,-0.22995 -7.86506,-4.04879 -12.20111,-5.06775 -9.5883,-4.11948 -20.22311,-4.6467 -29.90229,-8.42845 -5.62214,-1.29241 -10.61375,-4.30061 -16.03786,-6.07118 -10.25408,-0.29506 -20.46745,-1.4045 -30.69003,-2.10078 -5.32091,0.22982 -10.43934,-1.32449 -15.69009,-1.86782 -7.64215,-1.12068 -15.2363,-2.71546 -22.79616,-4.27485 -6.09716,-0.94312 -12.39517,-0.79719 -18.25275,-2.98635 -7.15121,-1.49289 -14.28029,-3.02371 -21.30645,-5.03733 -7.02498,-1.51436 -13.34501,-5.12864 -19.94386,-7.79639 -4.24562,-2.41663 -8.89075,-3.96485 -13.24976,-6.14596 -5.99763,-2.28279 -11.43251,-6.09041 -17.63496,-7.79714 -5.32509,-1.10014 -10.83838,-1.48706 -16.24681,-1.50792 -9.02584,0.78334 -18.09621,1.39837 -26.98778,3.27917 -4.53259,0.59554 -9.14026,1.57037 -13.32211,3.43702 -4.38515,2.85424 6.63345,3.1649 8.71348,4.94448 5.13624,2.14671 10.94733,0.94498 16.24392,2.20565 4.34151,2.1366 8.98803,4.1728 12.30176,7.8172 0.25287,2.45052 -0.71458,3.94436 1.82881,5.60871 1.83008,5.89716 -5.77114,3.27224 -8.19208,1.25951 -3.85108,-2.89297 -8.98013,-3.97434 -13.71766,-3.71362 -3.727,1.02606 4.28456,2.66537 5.5014,3.96968 4.35475,2.3476 6.91075,6.93119 9.0495,11.27584 2.30716,3.98935 -3.04467,6.09032 -4.81446,2.04589 -3.34742,-3.79065 -6.16474,-8.6063 -11.58572,-9.60146 3.633,2.96478 6.9708,7.67873 6.57812,12.94822 0.52492,5.24825 -5.34102,2.68156 -4.9748,-1.24848 -1.57539,-6.29974 -8.17936,-9.63484 -14.15375,-10.40001 -5.62909,-1.19452 -11.15755,-2.77507 -16.32006,-5.37354 -5.62845,-1.99637 -11.76729,-2.10628 -17.5227,-3.8061 -8.39604,-2.21265 -16.9803,-3.57983 -25.39777,-5.69737 -6.20211,-0.71077 -11.8677,-3.69166 -18.1366,-4.04821 -7.57226,-1.38442 -15.23048,-3.5075 -22.98306,-2.22779 -5.11081,0.041 -10.1841,1.55203 -13.87511,5.23171 -4.00782,3.49185 -7.74661,7.56194 -9.13836,12.83977 -2.097136,5.28987 -3.390714,11.68147 -0.43958,16.91478 2.82168,7.1215 9.48363,11.85695 15.82263,15.73468 7.77864,4.02412 15.27671,8.67696 23.65353,11.40381 10.12688,4.30932 20.62873,7.63524 30.9859,11.29323 3.76048,0.39724 7.76232,2.25502 11.94098,2.45253 7.90836,1.55126 15.91792,2.28475 23.95269,2.75111 5.64903,0.79589 11.41953,-0.20208 17.12083,0.13107 6.1039,0.30358 12.13054,-0.61011 18.21353,-0.89748 4.18778,-0.45547 8.28213,-1.33485 12.51753,-1.41405 5.32519,-0.94212 10.55332,-2.48807 15.75111,-4.01658 4.69743,-1.49201 9.69186,-1.67873 14.39788,-3.23178 6.2668,-1.11974 12.53239,-2.38772 18.87039,-2.94078 7.40072,-0.34489 14.79346,-0.7606 22.21064,-0.42237 9.3939,0.28927 18.60017,2.6371 27.6958,4.82778 11.12866,3.43559 21.78793,8.30603 32.08481,13.71562 10.22112,3.91768 19.4698,9.89461 29.05235,15.1243 8.74901,5.4894 18.33218,9.56178 26.59506,15.78019 6.18996,3.84077 -0.50551,10.07169 -5.63891,7.50889 z m 0,0 m 6.22116,-1.82364 c 1.69303,-4.99149 -5.19995,-6.68351 -8.23636,-9.26948 -7.11305,-4.50445 -14.85906,-7.92777 -21.84128,-12.64871 -8.77545,-4.74655 -17.23372,-10.16015 -26.61291,-13.68364 -13.83458,-7.21021 -28.30048,-13.79887 -43.82076,-16.29772 -13.09916,-2.99525 -26.66011,-2.4673 -39.95064,-1.32309 -10.62692,1.20982 -21.12367,3.40316 -31.39808,6.3319 -4.80099,2.52009 -10.29612,2.95331 -15.3783,4.62968 -7.57352,1.14607 -15.07736,3.15264 -22.80314,2.80711 -9.23911,0.27599 -18.44914,-0.59622 -27.67431,-0.91418 -6.6911,-0.52204 -13.55117,-0.68431 -20.03268,-2.61494 -4.86002,0.40033 -8.76623,-2.11779 -13.29531,-3.386 -10.0599,-3.48725 -20.22464,-6.73948 -30.03414,-10.87864 -6.00319,-2.46201 -12.1424,-4.68272 -17.70663,-8.06863 -8.62899,-4.33483 -17.48166,-9.33473 -22.7468,-17.77126 -2.655993,-4.06711 -3.994982,-8.91816 -3.504993,-13.73481 1.60611,-7.92241 5.413793,-15.72444 11.896963,-20.78986 5.46754,-4.87661 13.20374,-5.52236 20.1972,-5.82094 6.46712,0.11976 12.8899,1.28942 19.25557,2.29061 9.66749,1.73888 19.03257,4.83137 28.67271,6.72302 4.37119,0.40531 8.34636,2.28056 12.56377,3.23311 4.40928,1.32971 8.58854,2.18225 11.43633,-2.37177 4.24684,-3.2828 7.86114,-7.31577 12.1644,-10.49986 3.2966,-1.6091 -4.57449,-1.52672 0.63708,-2.29912 4.75478,-0.97844 8.87778,-3.94119 13.62283,-5.01525 6.53038,-2.23044 13.47716,-2.51181 20.25469,-3.5054 7.32287,-0.0715 14.62957,-1.11642 21.95163,-0.72336 4.60623,0.57142 9.46578,0.94219 13.69211,2.83633 4.62047,1.90998 9.23017,4.03857 13.5619,6.59182 6.04478,2.59485 11.4574,6.66872 17.90024,8.40911 8.64407,3.55653 17.40203,6.96885 26.68027,8.42982 5.05909,0.59436 9.94405,1.95593 14.89347,3.02678 6.6449,0.45436 13.07901,2.34435 19.72895,2.8378 6.42896,1.34093 12.97371,1.74089 19.46266,2.64795 8.46572,2.15453 17.26795,1.23873 25.81242,2.82852 6.92917,1.20727 14.16685,1.49562 21.07516,0.0879 4.6351,-1.62673 8.53313,-4.89624 12.23224,-8.0037 4.71925,-5.10681 7.38437,-11.53853 10.45709,-17.66343 5.63269,-10.82132 11.45957,-22.48007 22.12866,-29.1941 3.89536,-2.76565 7.88695,-5.39234 12.34554,-7.15881 3.85962,-1.36907 5.38943,-8.39928 9.87819,-4.33323 5.92487,2.59726 12.17104,4.5063 18.48808,5.96497 5.19707,0.79478 10.43403,1.22505 15.62457,2.05466 8.47553,0.88488 17.0928,0.76165 25.59281,-0.0183 5.33209,-1.00947 10.62246,-2.23817 16.00903,-2.92421 6.23979,-1.02245 11.81955,-4.17376 18.01124,-5.32597 4.42766,-1.06331 8.78164,-2.34663 13.06393,-3.88742 4.2304,-1.40459 8.70926,-2.27926 12.76604,-3.88828 6.01166,-1.78144 11.6832,-4.70607 16.35171,-8.89062 -1.14313,-0.44307 -8.73395,1.86014 -5.23261,-0.8749 8.91804,-1.49646 18.74733,-2.69674 25.52381,-9.31941 -3.6046,-4.06804 -3.75251,-10.77244 0.40411,-14.64385 1.57176,-2.75155 6.60241,-2.6845 7.43306,-4.82065 -1.31187,-4.67991 -4.97959,-8.41289 -8.32679,-11.79986 -4.29077,-3.05846 -9.6623,-3.73106 -14.08514,-6.5293 -5.45251,-2.85642 -10.54091,-6.52595 -16.55564,-8.12342 -5.01125,-1.35409 -6.82807,-6.09375 -9.67984,-9.78388 -2.51765,-4.12839 -7.41492,-5.40423 -11.45489,-7.39523 -6.5179,-2.31679 -13.0106,-4.87246 -19.69968,-6.68805 -8.40867,-2.17321 -16.86725,-4.56024 -25.59119,-5.10612 -9.31844,-1.81689 -18.78992,-2.7326 -28.23979,-3.6258 -4.47967,-0.0428 -9.34916,-1.19269 -13.59252,0.36806 3.22839,2.97497 6.11195,6.5104 8.56497,10.2559 1.52931,1.26513 2.20021,5.09907 0.043,1.83963 -2.93969,-4.01064 -5.66247,-8.31078 -9.81938,-11.16865 -3.43115,-2.95701 -6.1209,-6.76974 -10.24831,-8.926486 -4.26492,-3.652313 -9.08989,-7.311559 -14.94118,-7.647694 -4.69783,0.161503 -10.92245,-1.953032 -14.27472,2.46076 -4.29562,2.525905 -5.17812,8.74236 -2.50172,12.74931 1.54602,8.78321 7.85343,16.31242 15.55998,20.57453 7.79493,3.54633 15.95672,6.3122 24.04668,9.05913 1.48189,2.82802 -5.55528,0.29709 -7.17709,-0.4212 -6.8435,-2.19747 -13.49503,-5.04983 -19.98696,-8.09841 -3.46339,-2.2008 -6.87934,-7.99778 -10.94606,-3.52935 -4.77904,1.5474 -9.19047,4.3177 -14.35934,4.60418 -8.50819,1.80085 -17.32253,1.06876 -25.9694,1.16935 -8.31621,-0.84162 -16.72287,-1.31379 -24.9572,-2.70042 -5.30855,-1.11691 -10.79976,-0.93435 -16.0138,-2.59651 -4.49467,-0.63994 -8.97356,-2.81062 -12.12924,-5.66726 -7.36656,-7.64262 -14.74164,-15.394 -20.62363,-24.271796 C 363.6031,87.214976 356.97653,78.481459 347.66583,73.034114 341.2809,68.891198 335.16404,64.349018 329.03999,59.819351 313.2288,49.386928 294.53235,44.028973 275.80954,42.049358 262.76559,41.207191 249.67929,39.950771 236.61145,41.11958 c -7.36686,0.383884 -14.46201,2.680778 -21.60033,4.373567 -7.38726,2.046575 -14.72603,4.390891 -22.24216,5.857929 -9.12306,3.692718 -18.48845,6.871991 -27.42354,11.013765 -9.86187,4.700155 -19.98613,9.294959 -28.37419,16.431911 -5.79741,3.526274 -10.39559,8.588688 -15.22077,13.285549 -4.09862,4.754438 -8.81377,9.060169 -11.6435,14.763589 -2.94432,5.21806 -6.84334,9.83178 -9.18364,15.4045 -4.566687,8.42392 -6.760641,17.75366 -9.418736,26.89457 -2.563367,7.78979 -4.982447,15.65872 -6.765864,23.67193 -0.615774,4.59166 -0.546607,9.23853 -0.895641,13.86301 -0.07662,8.33475 1.05037,16.58331 2.634341,24.7448 0.921691,6.61791 1.367657,13.41185 -0.491189,19.91737 -1.683841,7.43565 -2.757179,15.04012 -5.508816,22.19158 -1.732686,6.00625 -3.319708,12.1056 -3.274261,18.41389 -0.828276,7.46823 0.851756,15.13293 4.126227,21.82938 3.58279,4.64603 5.799949,10.18713 9.684713,14.6423 8.329837,10.12386 20.384886,15.97965 32.086116,21.28972 4.4989,1.76654 9.06913,3.44253 13.81933,4.45683 11.5224,4.00046 23.47606,6.60618 35.44165,8.92584 7.7633,1.75945 15.58888,3.30228 23.41352,4.71228 11.6768,1.42555 23.48685,3.35529 35.25403,1.76123 10.06138,-0.27309 19.56322,-3.97311 29.43679,-5.49994 10.16721,-2.85974 20.57326,-4.8553 30.96057,-6.7844 15.18023,-3.04433 30.90526,-2.00954 45.92281,1.43233 11.18195,2.1289 21.64226,6.77681 31.82539,11.73234 7.08533,3.88742 14.56484,6.99104 22.05628,9.99121 10.33447,5.02322 21.38758,8.33353 31.78109,13.23257 5.57696,1.7814 11.09439,4.97685 17.12535,4.39183 l 0.64685,-0.18529 0.91182,-0.56814 z m 0,0 M 597.58856,197.11981 c 4.7387,-4.28189 10.879,-6.62961 16.40377,-9.73159 9.19215,-3.71413 17.08596,-10.39293 27.01123,-12.2875 3.49981,-0.5594 9.21576,-2.45528 11.64229,-1.42343 -8.1095,1.03501 -16.37113,2.47293 -23.5798,6.58523 -4.80408,2.6122 -9.36505,5.68379 -14.52244,7.60327 -5.67349,2.88552 -11.42339,5.70915 -16.53713,9.53287 l -0.38815,0.0701 -0.0298,-0.349 z m 0,0 m -79.11084,-9.82988 c 1.75142,-0.28 -0.1705,0.437 0,0 z m 0,0 M 359.54721,170.48534 c 0.50526,-1.29025 0.68101,0.85483 0,0 z m 0,0 m 235.04239,-0.82978 c 3.80322,-3.14841 8.75564,-5.08976 13.58631,-6.19727 6.2494,-1.58256 12.76655,-1.64876 19.13675,-2.2589 5.94015,0.11296 11.74357,1.41424 17.21597,3.7031 1.92508,-0.21665 5.51829,2.83691 1.56468,1.03668 -5.34868,-1.60405 -10.56108,-4.12625 -16.29861,-3.95033 -8.62803,0.0953 -17.43571,0.65297 -25.71548,3.22724 -3.26768,0.91803 -6.73759,3.82472 -9.48962,4.43948 z m 0,0 m 4.67627,-15.30352 c -4.56528,-1.30204 -8.30704,-4.69841 -11.52016,-8.1034 -3.03559,-3.09915 -2.68888,-5.14934 0.66868,-7.41301 2.99644,-3.20858 6.56052,-6.02571 10.92046,-6.97587 4.27638,-1.70188 9.30337,-0.90781 13.56656,0.5487 5.12179,1.53669 7.95923,6.50298 11.13231,10.43193 -1.57026,4.65829 -6.00195,7.94534 -10.32279,9.99418 -4.46598,1.99745 -9.68412,2.68162 -14.44509,1.51746 z m 0,0 m 10.42682,-4.33638 c 0.89936,-3.69603 -6.99812,0.33401 -1.82381,0.4884 0.5939,-0.03 1.45124,0.14091 1.82381,-0.4884 z m 0,0 m 9.92682,-2.45481 c 5.85393,-3.45432 0.0618,-8.54152 -2.72405,-11.10646 2.16067,3.82118 2.23282,8.63053 0.40344,12.59371 0.85912,0.17423 1.65582,-1.10743 2.32061,-1.48725 z m 0,0 m -29.41626,-1.14015 c -1.46702,-2.20822 -0.0418,-7.34872 -0.26303,-7.71478 -4.16224,1.96857 -3.15905,6.65707 0.40568,8.52545 l -0.14268,-0.81067 z m 0,0 m 23.28906,-4.65427 c -3.32944,-2.84453 -3.60312,2.31248 0,0 z m 0,0 m -6.41223,-0.98341 c 2.3572,-4.8165 -5.99707,-5.04649 -8.54139,-2.89445 -3.2028,4.63157 6.55261,3.41088 8.54139,2.89445 z m 0,0 m -85.34131,-7.08868 c -5.55253,-2.05094 -11.47199,-3.21026 -16.60179,-6.32543 -3.07048,-1.76638 -6.16069,-3.50454 -8.80962,-6.10096 -5.184,-4.65787 -8.2664,-11.38279 -8.30211,-18.36306 -0.39445,-4.802123 2.71096,-11.310336 8.36081,-10.485872 6.57455,0.606654 13.2597,2.989512 17.75149,8.017302 5.61234,5.45696 11.51462,10.60565 16.79062,16.4033 2.04601,1.91429 6.67694,5.83563 3.61421,9.34159 -3.19074,3.66253 -7.07493,9.75052 -12.80361,7.51313 z m 0,0 m 5.36285,-1.27974 c 3.08654,-2.4802 7.67893,-6.37783 6.73986,-10.56655 -3.47986,-3.97339 -7.25926,-7.75497 -10.78093,-11.69312 -5.35181,-4.15526 -9.58538,-9.62891 -15.22743,-13.41407 -4.51794,-1.904304 -9.43404,-3.87803 -14.43812,-3.0861 -5.35598,2.789604 -5.12236,9.94556 -3.92523,15.01923 2.34142,10.64126 12.54637,16.87419 21.95554,20.6453 4.92585,1.16666 9.90986,4.60838 15.03974,3.42776 l 0.63655,-0.33246 z m 0,0 m -8.60852,-4.44416 c 1.42018,-0.15522 -0.46683,0.43363 0,0 z m 0,0 m -22.8428,172.695 c -2.66231,-3.25873 -6.15383,-6.18013 -10.3177,-7.20865 -1.38012,-0.64173 -8.41133,-0.98955 -4.12641,-2.12815 4.53851,1.23233 9.09759,1.06154 13.5214,2.52226 2.30907,1.23658 6.12278,6.04408 7.69811,5.15732 -3.05781,-3.00857 -4.8846,-9.38798 -10.06698,-8.88094 -2.98954,-0.97753 -9.27161,0.32886 -10.48476,-1.64691 4.68083,-0.51012 9.41928,0.52321 14.06174,0.57745 3.09192,1.91954 6.38885,10.64209 10.19558,7.20564 -3.41382,-2.42756 -4.91923,-6.93504 -8.76087,-9.01307 -4.65398,-1.74404 -10.06379,-1.02067 -14.84883,-1.96192 3.39313,-2.09354 9.44101,-0.18885 13.76356,0.28268 4.59771,0.17862 6.47036,7.93197 10.37057,6.94174 -1.38724,-4.05054 -5.90177,-7.99684 -10.03125,-9.48699 -5.12301,0.13636 -10.16056,-0.47334 -15.22217,-1.11764 -4.79024,0.18325 -7.88392,-3.65592 -11.17789,-6.436 -3.47337,-1.95372 -5.65541,-8.07269 -8.7865,-8.73112 -2.70845,3.70373 -5.44251,7.28823 -9.2176,9.92083 -4.10755,2.10849 -8.361,4.2563 -12.77344,5.85804 3.22399,1.8201 7.05258,3.4709 10.75364,4.59288 4.80492,1.19438 9.29245,3.45524 14.25032,4.04681 5.71598,1.78392 11.81151,2.20225 17.3231,4.65769 4.87101,0.97227 8.65749,4.8981 13.56873,5.39437 l 0.21728,-0.20385 0.0904,-0.34248 z m 0,0 M 241.77603,288.29965 c -0.0135,-4.69027 -2.79657,-8.66227 -6.57429,-11.1961 -2.25416,-0.58267 -4.34215,-4.9521 -0.67425,-3.13322 4.40257,1.0007 8.38584,3.04218 11.08922,6.77814 1.33389,1.8426 7.31494,9.01728 5.91998,3.10966 -2.28494,-5.36483 -6.58823,-9.75711 -11.97042,-12.04698 -1.95632,-1.03476 -9.80545,-2.70079 -4.20682,-4.31157 4.44414,-1.40502 8.89106,0.25516 13.32829,0.8967 3.04798,1.58216 8.17551,6.05061 10.93571,4.13714 -2.47089,-3.91905 -7.20885,-6.84956 -11.66447,-8.33804 -4.29024,-1.2458 -9.88913,-0.31515 -13.43004,-1.67378 3.22926,-1.79134 8.3302,-0.0603 12.26726,0.0492 4.09588,-0.96684 8.08286,5.79376 10.68764,3.83876 -2.93244,-3.82309 -7.69717,-5.73701 -11.98168,-7.58443 -4.72642,-1.3472 -9.85036,-0.0722 -14.46924,-1.5715 -4.58017,-1.54775 -9.36074,-4.25941 -14.14748,-4.2285 -5.04034,3.04089 -8.81332,7.80602 -13.67787,11.01515 -2.0881,1.97681 -6.30198,6.57214 -0.49383,5.84384 5.40757,0.42813 9.64382,4.01536 14.94664,4.82764 4.66879,1.53327 9.61782,1.81343 14.05178,3.92779 4.23578,1.43129 6.61313,5.32176 7.98663,9.35203 0.53367,1.63586 2.64665,4.32844 2.07724,0.3081 z m 0,0 m 429.522,-110.45105 c 1.40358,-3.07975 3.42167,-6.44956 2.20746,-9.88168 -3.75822,0.68128 -7.46585,3.32527 -9.23745,6.6901 -1.54864,3.30689 -0.81991,8.60077 2.20199,10.17247 2.13512,-1.93919 3.70885,-4.32173 4.828,-6.98089 z m 0,0 M 560.00092,107.89539 c -2.1387,-4.60232 -5.14877,-9.561779 -10.37169,-10.987946 -3.6604,-2.347408 -7.74482,-2.187307 -11.35783,-4.187069 -2.27031,-0.296752 -6.16166,-2.437832 -7.76719,-0.304047 -1.63596,3.994557 -1.23482,8.714922 -0.22693,12.838792 1.45111,1.13368 4.51963,0.18671 6.47253,0.69903 7.76088,0.1168 15.35927,1.7343 23.05811,2.43816 l 0.28559,-0.13632 -0.0926,-0.3606 z m 0,0 m 22.77502,235.70468 c 0.54973,-0.97901 0.2745,1.19568 0,0 z m 0,0 M 271.92932,319.64716 c 0.72226,-1.42505 0.53014,0.65583 0,0 z m 0,0 m 318.4834,-39.64438 c -1.02141,-1.25496 1.89277,0.87057 0,0 z"
         style="fill:#000000" />
    </g>
    <g
       transform="matrix(0.7075288,0,0,0.7075288,87.670717,236.28509)"
       id="g2843"
       style="filter:url(#filter3655)">
      <path
         style="fill:#d4d4d4;fill-opacity:1;stroke:none"
         d="m 586.34179,142.839 c 1.88606,3.32834 4.77062,5.76912 4.77062,5.76912 l -0.22189,-10.87257 c 0,0 -4.43778,1.997 -4.54873,5.10345 z m 30.62069,7.21139 c 2.90152,-1.49928 5.01236,-3.78923 6.43478,-6.76761 -1.7875,-3.8213 -4.65386,-5.48488 -6.9895,-8.2099 -0.3742,5.01828 -1.56366,9.9704 0.55472,14.97751 z"
         id="path2845"
         sodipodi:nodetypes="cccccccccc" />
      <path
         style="fill:#ffffff;fill-opacity:1;stroke:none"
         d="m 593.22035,142.839 c 1.10945,-6.43478 4.54873,-8.87556 9.98501,-8.98651 5.43628,-0.11094 12.98051,4.10495 12.75862,8.65368 -0.22189,4.54872 -2.9955,9.985 -8.20989,10.09595 -5.2144,0.11094 -14.64468,-9.54123 -14.53374,-9.76312 z"
         id="path2847" />
      <path
         style="color:#000000;fill:#a68f82;fill-opacity:1;fill-rule:nonzero;stroke:none;stroke-width:1;marker:none;visibility:visible;display:inline;overflow:visible;enable-background:accumulate"
         d="m 244.46875,40.28125 c -22.93169,0.816828 -44.85083,8.747181 -66.28125,16.40625 -26.78823,9.536985 -52.0981,25.590316 -68.15625,49.46875 -13.58588,18.79986 -19.109696,41.78434 -25.0625,63.8125 -2.399466,14.86666 -0.956825,30.05844 1.125,44.8125 1.997427,21.55788 -10.05413,41.45919 -9.4375,62.875 1.022729,14.10078 9.631335,26.74032 19.46875,36.5 17.0314,14.62204 39.50711,20.54729 60.78125,26.1875 21.40043,4.07973 42.79975,9.76546 64.65625,10.15625 33.96706,-0.93416 66.22925,-17.30653 100.5,-13.59375 18.24283,1.43707 35.32088,8.20206 51.53125,16.34375 19.72531,8.45326 39.30889,17.62101 59.59375,24.5 2.94681,0.46936 10.11336,1.97222 9.03125,-3.15625 -3.69527,-5.62487 -11.1554,-7.66643 -16.46875,-11.5625 -31.59223,-17.77088 -64.16383,-38.3121 -101.40625,-39.9375 -22.73535,-1.33497 -45.21221,3.81862 -66.6875,10.5 -23.88782,5.98111 -48.89285,3.60054 -73,0.5 -21.71201,-5.59933 -43.05934,-13.34333 -63.125,-23.46875 -10.51466,-5.93078 -23.107756,-13.98396 -24.375,-27.21875 0.833713,-12.16177 9.16237,-24.93471 21.5,-27.84375 22.79908,-3.1121 45.06029,5.52456 67.0625,10.15625 5.40525,1.98109 12.873,3.05146 16.5625,-2.5 3.48285,-3.79653 8.61414,-6.40578 11.0625,-10.96875 2.81858,-2.6639 8.58468,-3.4905 12.5625,-5.1875 14.77723,-4.63637 30.70685,-4.52267 46.125,-4.1875 15.60057,1.64915 28.45226,12.43572 43.15625,17.4375 27.20777,11.01495 56.89025,13.25118 85.6875,17.4375 13.27081,1.06848 26.73079,4.15602 40.03125,2.1875 14.53661,-3.6323 20.40528,-19.10356 27.09375,-30.84375 6.61079,-12.65557 16.14966,-24.12592 29.375,-30.15625 3.93416,-0.97774 5.26453,-5.46535 9.03125,-6.1875 9.81761,3.21684 19.49841,7.27925 30,8 21.35619,3.37797 43.07456,0.0795 63.46875,-6.53125 14.33195,-4.66512 29.62049,-7.62778 42.625,-15.40625 2.78948,-2.47909 -4.86333,-2.52315 -0.4375,-3.1875 7.56695,-2.21877 16.92548,-2.7362 22.5625,-8.875 1.08431,-3.62923 -2.70139,-7.11895 -0.71875,-10.9375 0.92596,-4.74457 6.09573,-5.8722 8.875,-9.03125 0.45168,-5.94485 -5.78607,-9.94947 -9.625,-13.625 -11.25277,-5.79428 -23.9375,-10.0809 -33.9375,-18 -3.78777,-4.44697 -7.37248,-9.32663 -13.1875,-11.34375 -26.45187,-11.83878 -55.78369,-15.18376 -84.4375,-17.34375 -2.10679,-0.51079 -6.98979,0.41317 -4.125,3.28125 -0.61477,-0.56612 -1.26552,-1.11866 -1.9375,-1.625 -2.99274,-2.56566 -5.50288,-5.62783 -8.6875,-7.96875 -1.63492,-0.94279 -3.09387,-2.170521 -4.5625,-3.34375 -3.59745,-2.775887 -7.75474,-5.248528 -12.40625,-5.5 -2.70214,-0.141679 -5.39497,-0.363294 -8.09375,-0.4375 -0.13616,0.03107 -0.27011,0.06268 -0.40625,0.09375 -0.23546,0.144298 -0.34987,0.347306 -0.40625,0.5625 -1.59856,-0.263556 -4.23748,0.891842 -5,2 -5.67665,3.554493 -5.35395,10.90994 -2.9375,16.34375 2.78579,9.03696 10.63212,15.9682 18.84375,20.1875 6.24523,2.50404 13.54773,4.47784 19.15625,7.5 -11.04977,-3.2513 -22.51828,-6.91904 -31.75,-14.0625 -4.21406,-1.99686 -8.29432,3.14198 -12.46875,3.59375 -21.75009,6.37465 -44.92095,1.82072 -66.96875,-0.9375 -8.88488,-0.87644 -17.38444,-4.39649 -23.0625,-11.59375 C 372.42824,99.505424 361.73577,80.525764 343.4375,69.5 327.31206,56.789688 308.66005,47.188035 288.3125,43.53125 c -14.40427,-2.681354 -29.19042,-3.253 -43.84375,-3.25 z M 495.625,93.3125 c 0.336,0.0011 0.66527,0.01545 1,0.0625 5.39777,0.586925 10.91347,2.314013 15.0625,5.96875 3.38343,3.16608 6.71155,6.42613 10.09375,9.59375 3.72538,3.5579 7.33091,7.24083 10.90625,10.9375 0.64646,0.5535 0.95645,1.47994 1.71875,1.875 0.19422,0.11149 0.39205,0.11936 0.59375,0.0625 -0.01,1.00566 -0.25944,2.05013 -0.875,3.15625 -2.09248,5.7263 -8.50595,10.2196 -14.53125,7.34375 -13.02075,-3.52841 -28.29991,-11.11386 -30.5,-25.84375 -1.26936,-4.51793 -0.13084,-8.936682 2.8125,-12.5 0.24062,0.126835 0.5152,0.159496 0.8125,0.03125 0.90285,-0.481453 1.89824,-0.690851 2.90625,-0.6875 z m 110.53125,38.53125 c 7.29037,0.0201 13.80427,5.24683 17.09375,11.34375 -6.0361,11.78725 -24.39012,15.04491 -33.25,4.53125 -1.81772,-2.14421 -6.01109,-5.24948 -2,-7.65625 4.40449,-4.65469 9.98359,-8.49073 16.6875,-8.15625 0.49226,-0.0463 0.98273,-0.0638 1.46875,-0.0625 z"
         id="path2849" />
      <path
         style="color:#000000;fill:#e8af89;fill-opacity:1;fill-rule:nonzero;stroke:none;stroke-width:1;marker:none;visibility:visible;display:inline;overflow:visible;enable-background:accumulate"
         d="m 461.39918,266.07309 c -2.9159,2.67478 -4.91375,6.30221 -8.22963,8.6166 -4.13131,3.24495 -9.29925,4.94009 -13.95816,7.23638 -1.16933,1.7081 1.93159,2.13749 2.94802,2.87687 10.1221,4.32481 20.85617,7.08713 31.57715,9.41785 6.10164,1.36793 11.8925,3.86216 17.49921,6.62608 1.51123,0.42383 3.49538,1.80753 4.91659,0.67565 0.60764,-1.87176 -1.64524,-3.12085 -2.72612,-4.32454 -1.93249,-1.70494 -4.12192,-3.13488 -6.54074,-4.04015 3.70715,0.50566 7.7225,0.91964 10.4338,3.795 1.39031,0.90587 2.65544,2.73222 4.48143,2.67709 1.71568,-0.57648 0.14901,-2.5528 -0.29418,-3.1576 1.22633,1.29998 4.23238,2.10101 5.04039,0.0392 0.0694,-1.63125 -1.97148,-2.24921 -2.59865,-3.59888 -1.20176,-1.32342 -0.14263,-0.3393 0.6276,0.0981 1.16824,1.02711 3.43262,-0.0757 2.48097,-1.67686 -2.18207,-3.91693 -5.68432,-7.46847 -10.06117,-8.77655 -6.23175,-0.78575 -12.67944,-0.61868 -18.75926,-2.12794 -4.17272,-1.82968 -7.19197,-5.45982 -10.41419,-8.55101 -1.97477,-1.87559 -3.26256,-4.75842 -5.90333,-5.8445 -0.17358,-0.0172 -0.35083,-0.0174 -0.51973,0.0392 z"
         id="path2851" />
      <path
         style="color:#000000;fill:#e8af89;fill-opacity:1;fill-rule:nonzero;stroke:none;stroke-width:1;marker:none;visibility:visible;display:inline;overflow:visible;enable-background:accumulate"
         d="m 217.29337,252.32872 c -3.22205,0.89696 -5.47738,3.74865 -8.06025,5.72241 -3.28398,3.27711 -7.91778,5.59616 -9.94394,9.90868 -0.80192,1.70927 0.97023,3.11799 2.58884,2.86341 5.18629,0.01 9.66063,3.29446 14.65047,4.41279 6.03566,1.93987 12.6936,2.28832 18.00078,5.99554 3.06051,2.47107 3.7267,6.65967 6.05383,9.61594 1.52194,1.05653 2.41372,-1.16543 2.02008,-2.38291 -0.1583,-5.26511 -3.40985,-9.9965 -7.87438,-12.63039 -0.39627,-0.28879 -1.95178,-1.65062 -0.63741,-1.17675 4.17081,1.01626 8.1516,3.13346 10.78813,6.62591 1.96103,1.82892 3.47117,4.46387 6.00009,5.54359 2.09442,0.0724 1.81518,-2.65577 1.04927,-3.88325 -2.67525,-6.29923 -8.43536,-10.69876 -14.76814,-12.93439 -0.76006,-0.41063 -2.09877,-0.73774 -2.53,-1.28461 4.26153,-1.88232 9.11023,-0.4344 13.41488,0.53934 3.66882,1.27906 6.80698,4.9475 10.98295,4.2559 1.87089,-0.69934 0.52394,-2.84794 -0.52954,-3.63811 -0.88943,-0.92471 -1.82715,-1.80165 -2.87321,-2.5398 1.32861,0.76268 3.07501,-0.82296 1.89259,-2.08872 -3.17,-3.31978 -7.51414,-5.45208 -11.77725,-7.07028 -5.5302,-1.56444 -11.63255,-0.0992 -16.88784,-2.68797 -3.77968,-1.19551 -7.54465,-3.14962 -11.55995,-3.16633 z m 0,0 m 30.77186,11.12024 c 0.79294,0.0215 2.17296,0.72777 2.38291,0.93158 -0.82678,-0.41546 -1.70178,-0.74067 -2.59864,-0.961 z"
         id="path2853" />
      <path
         style="color:#000000;fill:#da9155;fill-opacity:1;fill-rule:nonzero;stroke:none;stroke-width:1;marker:none;visibility:visible;display:inline;overflow:visible;enable-background:accumulate"
         d="m 672.65421,167.41289 c -3.98629,0.80371 -7.49215,3.82639 -9.19822,7.48213 -1.3574,3.47052 -0.94874,8.30156 2.46135,10.42399 1.97584,0.33218 2.88539,-2.17689 3.95805,-3.39988 2.11435,-3.67384 4.65881,-7.58428 4.64199,-11.97624 0.0305,-1.19134 -0.27102,-2.79674 -1.86317,-2.53 z"
         id="path2855" />
      <path
         style="color:#000000;fill:#7b6356;fill-opacity:1;fill-rule:nonzero;stroke:none;stroke-width:1;marker:none;visibility:visible;display:inline;overflow:visible;enable-background:accumulate"
         d="m 532.5824,90.751916 c -3.00689,-0.05393 -3.68888,3.488467 -3.77813,5.853506 -0.0328,3.066797 -0.40662,6.484738 1.08143,9.248048 2.20752,1.19956 4.98836,0.63913 7.42329,0.98062 7.53043,0.39501 14.95872,1.62509 22.4464,2.35349 1.88886,-0.4258 0.57313,-2.64768 -0.0294,-3.61849 -2.12597,-4.07066 -5.1848,-7.843702 -9.62969,-9.443375 -4.90134,-2.112921 -10.02027,-3.573399 -15.12116,-5.069806 -0.78738,-0.157847 -1.58532,-0.33917 -2.39272,-0.303993 z"
         id="path2857" />
      <path
         style="color:#000000;fill:#e6ab7e;fill-opacity:1;fill-rule:nonzero;stroke:none;stroke-width:1;marker:none;visibility:visible;display:inline;overflow:visible;enable-background:accumulate"
         d="m 495.25019,92.673932 c -4.51882,0.07329 -6.92976,4.912343 -7.12376,8.903108 -0.74775,9.14484 4.57276,17.915 12.13473,22.77093 6.41424,4.27042 13.74206,6.9415 21.10295,9.06093 2.57192,0.41789 5.63371,0.74794 7.52136,-1.47093 2.85188,-2.46746 6.45118,-5.78027 5.56011,-9.94349 -2.13665,-3.6187 -5.50153,-6.35233 -8.18818,-9.56105 -3.95346,-4.37792 -8.55016,-7.97372 -12.75511,-12.08596 -3.44556,-3.453074 -7.80866,-5.840519 -12.57431,-6.908654 -1.85248,-0.460412 -3.76253,-0.799192 -5.67779,-0.764884 z"
         id="path2859" />
      <path
         style="fill:#000000"
         d="m 435.47452,379.13129 c -4.83984,-1.55887 -9.48901,-3.33028 -14.26315,-5.06622 -7.90715,-4.0636 -16.4122,-6.68836 -24.58802,-10.11623 -5.36304,-2.57186 -10.89399,-4.77578 -16.39662,-7.05073 -8.6296,-3.95028 -16.94625,-8.63096 -26.03077,-11.49384 -4.67817,-1.92901 -9.73358,-2.92314 -14.65288,-4.09872 -4.85362,-1.4873 -9.83184,-2.4878 -14.91078,-2.93801 -8.07571,-0.77963 -16.22048,-1.89034 -24.31266,-0.72958 -7.43098,1.14702 -14.84747,2.41127 -22.2679,3.61093 -9.60425,1.84111 -18.96739,4.90989 -28.68005,6.20636 -11.3275,3.44018 -23.28823,3.80042 -35.03389,3.34217 -9.80121,-0.85707 -19.62773,-1.79351 -29.22746,-3.98723 -8.09048,-1.43904 -16.03836,-3.57446 -24.14031,-4.94108 -7.28943,-1.57261 -14.53514,-3.45749 -21.63105,-5.78396 -8.74467,-2.24145 -17.32794,-5.26202 -25.32216,-9.5224 -9.33306,-4.69194 -18.717097,-10.27357 -24.986626,-18.87079 -4.610932,-4.94896 -8.648007,-10.50587 -10.794254,-16.967 -2.584199,-6.62317 -4.102786,-13.76381 -2.998604,-20.87803 0.726528,-5.52082 1.173186,-11.0883 2.93226,-16.40779 2.097779,-10.02866 5.034073,-19.88888 6.637073,-30.0111 0.527154,-6.31487 -0.421627,-12.58161 -1.614951,-18.75834 -0.881717,-9.51612 -1.152851,-19.15396 -0.328986,-28.67745 0.977286,-6.20706 3.312555,-12.09162 4.826558,-18.18429 3.932435,-11.39743 6.130866,-23.43101 11.429904,-34.32447 2.602156,-5.12858 5.363026,-10.17512 8.814496,-14.78821 2.44136,-4.29658 4.75004,-8.721622 8.45807,-12.107207 5.52592,-6.459783 11.65874,-12.542099 18.61634,-17.436163 3.64305,-3.012104 6.99516,-6.102588 11.30337,-8.156949 10.27825,-5.523404 20.65363,-10.940391 31.70467,-14.76069 5.31946,-2.204206 10.71874,-4.308507 16.19173,-6.066393 16.01645,-3.355695 31.46369,-10.195164 48.06428,-10.141528 12.67323,-0.472774 25.36336,0.499176 37.96649,1.727387 7.87684,1.091808 15.63557,2.792642 23.25785,5.074072 5.4488,1.813417 10.77448,4.005181 15.94213,6.517136 5.61583,2.893752 11.10769,6.043361 15.92467,10.159411 6.85114,4.980543 14.19174,9.285827 20.81256,14.556896 3.86686,4.08232 8.61531,7.467816 11.61888,12.333154 4.47975,5.847578 8.72388,11.887714 13.94958,17.111264 5.19244,5.3809 10.12585,11.58415 17.13269,14.64913 11.72576,4.29967 24.16856,6.06291 36.58323,6.7852 8.51696,1.30001 17.14726,1.08885 25.6686,-0.0334 7.37777,-0.62603 14.90529,-1.69233 21.38743,-5.54524 3.46882,-0.93195 5.09214,-3.37693 1.92607,-5.98574 -2.55694,-4.28019 -4.78338,-8.82398 -4.80573,-13.92265 -0.47399,-4.66961 2.22778,-9.688351 6.25068,-12.11151 4.33778,-0.791751 9.02343,-0.674351 13.54032,-0.499164 5.51025,0.0855 10.24051,3.256017 14.3672,6.531588 3.0326,2.145546 6.13849,4.396626 8.70288,7.224046 1.14055,1.92433 2.82248,2.186 4.76142,1.17236 0.88014,-3.8058 -0.72502,-9.060022 -0.04,-13.436373 2.87129,-5.332793 9.84669,-2.738853 14.08601,-0.746897 4.59481,2.110835 9.45119,3.930881 13.61689,6.807806 4.14708,2.465524 4.29416,8.709444 8.51284,10.641154 6.95032,1.49366 14.17973,1.41456 21.00603,3.58138 8.64391,2.07165 17.26455,4.36549 25.51828,7.72763 6.38189,2.04967 13.92512,3.70682 17.7496,9.70101 1.65672,4.39308 5.1476,7.57762 9.58225,9.06658 7.86269,4.19672 15.3218,9.26359 23.87406,12.00239 4.81438,1.31519 7.34657,5.6854 10.25176,9.23012 1.92916,5.47726 7.80373,0.99667 11.99595,2.06254 2.60006,-0.44576 7.05911,3.59661 2.13507,1.54042 -3.11691,-1.14644 -9.59036,-1.36811 -11.19418,1.00555 1.99284,4.6663 0.79696,9.73213 -1.99089,13.72596 4.9094,1.60768 10.7616,2.02147 14.09839,6.58139 1.23951,3.6999 -3.52361,-2.95011 -5.37452,-3.17926 -4.15628,-1.4778 -9.95704,-4.18141 -11.78796,1.69815 -4.87496,5.95318 -12.09959,9.9343 -19.65919,11.11909 -4.07476,4.03617 -8.55231,7.90228 -14.17456,9.62827 -5.57495,2.4466 -11.33729,4.47835 -17.18525,6.0875 -5.41614,2.30187 -11.32305,3.17273 -16.74601,5.3879 -5.35482,2.01563 -10.82077,4.02912 -16.60486,4.41303 -4.64261,1.80074 -9.68129,1.79497 -14.51268,2.85673 -5.62278,1.36778 -11.46825,0.69448 -17.20009,0.82545 -9.75797,-0.66739 -19.50804,-1.89055 -29.11208,-3.76557 -5.95118,-1.43248 -11.86516,-3.05839 -17.46432,-5.53619 -2.30408,-1.41364 -3.08346,2.63205 -5.12803,3.05957 -4.89098,2.56516 -9.85669,5.00523 -14.28701,8.32485 -4.63478,2.77214 -6.84428,8.09493 -10.77014,11.68075 -3.81292,5.52198 -7.12909,11.42064 -9.98213,17.49992 -0.53522,4.21528 -6.4171,8.95065 -1.72636,12.37917 2.71841,3.8118 5.97532,6.85057 9.59284,9.74257 3.49902,4.1937 8.98752,2.64659 13.61906,3.92231 4.3259,1.02527 9.81354,-1.26542 13.14758,2.47758 2.80818,2.72667 8.68883,5.57915 6.56664,10.22702 0.57486,2.65152 -0.91286,5.16038 -3.5941,5.20364 -2.09845,5.16908 -6.90443,-3.35659 -10.17549,-4.06094 -1.5447,-1.27405 -4.49608,-1.14134 -1.22219,0.6284 1.93272,1.68726 6.87014,4.76417 2.86419,6.87112 -4.46092,-0.22995 -7.86506,-4.04879 -12.20111,-5.06775 -9.5883,-4.11948 -20.22311,-4.6467 -29.90229,-8.42845 -5.62214,-1.29241 -10.61375,-4.30061 -16.03786,-6.07118 -10.25408,-0.29506 -20.46745,-1.4045 -30.69003,-2.10078 -5.32091,0.22982 -10.43934,-1.32449 -15.69009,-1.86782 -7.64215,-1.12068 -15.2363,-2.71546 -22.79616,-4.27485 -6.09716,-0.94312 -12.39517,-0.79719 -18.25275,-2.98635 -7.15121,-1.49289 -14.28029,-3.02371 -21.30645,-5.03733 -7.02498,-1.51436 -13.34501,-5.12864 -19.94386,-7.79639 -4.24562,-2.41663 -8.89075,-3.96485 -13.24976,-6.14596 -5.99763,-2.28279 -11.43251,-6.09041 -17.63496,-7.79714 -5.32509,-1.10014 -10.83838,-1.48706 -16.24681,-1.50792 -9.02584,0.78334 -18.09621,1.39837 -26.98778,3.27917 -4.53259,0.59554 -9.14026,1.57037 -13.32211,3.43702 -4.38515,2.85424 6.63345,3.1649 8.71348,4.94448 5.13624,2.14671 10.94733,0.94498 16.24392,2.20565 4.34151,2.1366 8.98803,4.1728 12.30176,7.8172 0.25287,2.45052 -0.71458,3.94436 1.82881,5.60871 1.83008,5.89716 -5.77114,3.27224 -8.19208,1.25951 -3.85108,-2.89297 -8.98013,-3.97434 -13.71766,-3.71362 -3.727,1.02606 4.28456,2.66537 5.5014,3.96968 4.35475,2.3476 6.91075,6.93119 9.0495,11.27584 2.30716,3.98935 -3.04467,6.09032 -4.81446,2.04589 -3.34742,-3.79065 -6.16474,-8.6063 -11.58572,-9.60146 3.633,2.96478 6.9708,7.67873 6.57812,12.94822 0.52492,5.24825 -5.34102,2.68156 -4.9748,-1.24848 -1.57539,-6.29974 -8.17936,-9.63484 -14.15375,-10.40001 -5.62909,-1.19452 -11.15755,-2.77507 -16.32006,-5.37354 -5.62845,-1.99637 -11.76729,-2.10628 -17.5227,-3.8061 -8.39604,-2.21265 -16.9803,-3.57983 -25.39777,-5.69737 -6.20211,-0.71077 -11.8677,-3.69166 -18.1366,-4.04821 -7.57226,-1.38442 -15.23048,-3.5075 -22.98306,-2.22779 -5.11081,0.041 -10.1841,1.55203 -13.87511,5.23171 -4.00782,3.49185 -7.74661,7.56194 -9.13836,12.83977 -2.097136,5.28987 -3.390714,11.68147 -0.43958,16.91478 2.82168,7.1215 9.48363,11.85695 15.82263,15.73468 7.77864,4.02412 15.27671,8.67696 23.65353,11.40381 10.12688,4.30932 20.62873,7.63524 30.9859,11.29323 3.76048,0.39724 7.76232,2.25502 11.94098,2.45253 7.90836,1.55126 15.91792,2.28475 23.95269,2.75111 5.64903,0.79589 11.41953,-0.20208 17.12083,0.13107 6.1039,0.30358 12.13054,-0.61011 18.21353,-0.89748 4.18778,-0.45547 8.28213,-1.33485 12.51753,-1.41405 5.32519,-0.94212 10.55332,-2.48807 15.75111,-4.01658 4.69743,-1.49201 9.69186,-1.67873 14.39788,-3.23178 6.2668,-1.11974 12.53239,-2.38772 18.87039,-2.94078 7.40072,-0.34489 14.79346,-0.7606 22.21064,-0.42237 9.3939,0.28927 18.60017,2.6371 27.6958,4.82778 11.12866,3.43559 21.78793,8.30603 32.08481,13.71562 10.22112,3.91768 19.4698,9.89461 29.05235,15.1243 8.74901,5.4894 18.33218,9.56178 26.59506,15.78019 6.18996,3.84077 -0.50551,10.07169 -5.63891,7.50889 z m 0,0 m 6.22116,-1.82364 c 1.69303,-4.99149 -5.19995,-6.68351 -8.23636,-9.26948 -7.11305,-4.50445 -14.85906,-7.92777 -21.84128,-12.64871 -8.77545,-4.74655 -17.23372,-10.16015 -26.61291,-13.68364 -13.83458,-7.21021 -28.30048,-13.79887 -43.82076,-16.29772 -13.09916,-2.99525 -26.66011,-2.4673 -39.95064,-1.32309 -10.62692,1.20982 -21.12367,3.40316 -31.39808,6.3319 -4.80099,2.52009 -10.29612,2.95331 -15.3783,4.62968 -7.57352,1.14607 -15.07736,3.15264 -22.80314,2.80711 -9.23911,0.27599 -18.44914,-0.59622 -27.67431,-0.91418 -6.6911,-0.52204 -13.55117,-0.68431 -20.03268,-2.61494 -4.86002,0.40033 -8.76623,-2.11779 -13.29531,-3.386 -10.0599,-3.48725 -20.22464,-6.73948 -30.03414,-10.87864 -6.00319,-2.46201 -12.1424,-4.68272 -17.70663,-8.06863 -8.62899,-4.33483 -17.48166,-9.33473 -22.7468,-17.77126 -2.655993,-4.06711 -3.994982,-8.91816 -3.504993,-13.73481 1.60611,-7.92241 5.413793,-15.72444 11.896963,-20.78986 5.46754,-4.87661 13.20374,-5.52236 20.1972,-5.82094 6.46712,0.11976 12.8899,1.28942 19.25557,2.29061 9.66749,1.73888 19.03257,4.83137 28.67271,6.72302 4.37119,0.40531 8.34636,2.28056 12.56377,3.23311 4.40928,1.32971 8.58854,2.18225 11.43633,-2.37177 4.24684,-3.2828 7.86114,-7.31577 12.1644,-10.49986 3.2966,-1.6091 -4.57449,-1.52672 0.63708,-2.29912 4.75478,-0.97844 8.87778,-3.94119 13.62283,-5.01525 6.53038,-2.23044 13.47716,-2.51181 20.25469,-3.5054 7.32287,-0.0715 14.62957,-1.11642 21.95163,-0.72336 4.60623,0.57142 9.46578,0.94219 13.69211,2.83633 4.62047,1.90998 9.23017,4.03857 13.5619,6.59182 6.04478,2.59485 11.4574,6.66872 17.90024,8.40911 8.64407,3.55653 17.40203,6.96885 26.68027,8.42982 5.05909,0.59436 9.94405,1.95593 14.89347,3.02678 6.6449,0.45436 13.07901,2.34435 19.72895,2.8378 6.42896,1.34093 12.97371,1.74089 19.46266,2.64795 8.46572,2.15453 17.26795,1.23873 25.81242,2.82852 6.92917,1.20727 14.16685,1.49562 21.07516,0.0879 4.6351,-1.62673 8.53313,-4.89624 12.23224,-8.0037 4.71925,-5.10681 7.38437,-11.53853 10.45709,-17.66343 5.63269,-10.82132 11.45957,-22.48007 22.12866,-29.1941 3.89536,-2.76565 7.88695,-5.39234 12.34554,-7.15881 3.85962,-1.36907 5.38943,-8.39928 9.87819,-4.33323 5.92487,2.59726 12.17104,4.5063 18.48808,5.96497 5.19707,0.79478 10.43403,1.22505 15.62457,2.05466 8.47553,0.88488 17.0928,0.76165 25.59281,-0.0183 5.33209,-1.00947 10.62246,-2.23817 16.00903,-2.92421 6.23979,-1.02245 11.81955,-4.17376 18.01124,-5.32597 4.42766,-1.06331 8.78164,-2.34663 13.06393,-3.88742 4.2304,-1.40459 8.70926,-2.27926 12.76604,-3.88828 6.01166,-1.78144 11.6832,-4.70607 16.35171,-8.89062 -1.14313,-0.44307 -8.73395,1.86014 -5.23261,-0.8749 8.91804,-1.49646 18.74733,-2.69674 25.52381,-9.31941 -3.6046,-4.06804 -3.75251,-10.77244 0.40411,-14.64385 1.57176,-2.75155 6.60241,-2.6845 7.43306,-4.82065 -1.31187,-4.67991 -4.97959,-8.41289 -8.32679,-11.79986 -4.29077,-3.05846 -9.6623,-3.73106 -14.08514,-6.5293 -5.45251,-2.85642 -10.54091,-6.52595 -16.55564,-8.12342 -5.01125,-1.35409 -6.82807,-6.09375 -9.67984,-9.78388 -2.51765,-4.12839 -7.41492,-5.40423 -11.45489,-7.39523 -6.5179,-2.31679 -13.0106,-4.87246 -19.69968,-6.68805 -8.40867,-2.17321 -16.86725,-4.56024 -25.59119,-5.10612 -9.31844,-1.81689 -18.78992,-2.7326 -28.23979,-3.6258 -4.47967,-0.0428 -9.34916,-1.19269 -13.59252,0.36806 3.22839,2.97497 6.11195,6.5104 8.56497,10.2559 1.52931,1.26513 2.20021,5.09907 0.043,1.83963 -2.93969,-4.01064 -5.66247,-8.31078 -9.81938,-11.16865 -3.43115,-2.95701 -6.1209,-6.76974 -10.24831,-8.926486 -4.26492,-3.652313 -9.08989,-7.311559 -14.94118,-7.647694 -4.69783,0.161503 -10.92245,-1.953032 -14.27472,2.46076 -4.29562,2.525905 -5.17812,8.74236 -2.50172,12.74931 1.54602,8.78321 7.85343,16.31242 15.55998,20.57453 7.79493,3.54633 15.95672,6.3122 24.04668,9.05913 1.48189,2.82802 -5.55528,0.29709 -7.17709,-0.4212 -6.8435,-2.19747 -13.49503,-5.04983 -19.98696,-8.09841 -3.46339,-2.2008 -6.87934,-7.99778 -10.94606,-3.52935 -4.77904,1.5474 -9.19047,4.3177 -14.35934,4.60418 -8.50819,1.80085 -17.32253,1.06876 -25.9694,1.16935 -8.31621,-0.84162 -16.72287,-1.31379 -24.9572,-2.70042 -5.30855,-1.11691 -10.79976,-0.93435 -16.0138,-2.59651 -4.49467,-0.63994 -8.97356,-2.81062 -12.12924,-5.66726 -7.36656,-7.64262 -14.74164,-15.394 -20.62363,-24.271796 C 363.6031,87.214976 356.97653,78.481459 347.66583,73.034114 341.2809,68.891198 335.16404,64.349018 329.03999,59.819351 313.2288,49.386928 294.53235,44.028973 275.80954,42.049358 262.76559,41.207191 249.67929,39.950771 236.61145,41.11958 c -7.36686,0.383884 -14.46201,2.680778 -21.60033,4.373567 -7.38726,2.046575 -14.72603,4.390891 -22.24216,5.857929 -9.12306,3.692718 -18.48845,6.871991 -27.42354,11.013765 -9.86187,4.700155 -19.98613,9.294959 -28.37419,16.431911 -5.79741,3.526274 -10.39559,8.588688 -15.22077,13.285549 -4.09862,4.754438 -8.81377,9.060169 -11.6435,14.763589 -2.94432,5.21806 -6.84334,9.83178 -9.18364,15.4045 -4.566687,8.42392 -6.760641,17.75366 -9.418736,26.89457 -2.563367,7.78979 -4.982447,15.65872 -6.765864,23.67193 -0.615774,4.59166 -0.546607,9.23853 -0.895641,13.86301 -0.07662,8.33475 1.05037,16.58331 2.634341,24.7448 0.921691,6.61791 1.367657,13.41185 -0.491189,19.91737 -1.683841,7.43565 -2.757179,15.04012 -5.508816,22.19158 -1.732686,6.00625 -3.319708,12.1056 -3.274261,18.41389 -0.828276,7.46823 0.851756,15.13293 4.126227,21.82938 3.58279,4.64603 5.799949,10.18713 9.684713,14.6423 8.329837,10.12386 20.384886,15.97965 32.086116,21.28972 4.4989,1.76654 9.06913,3.44253 13.81933,4.45683 11.5224,4.00046 23.47606,6.60618 35.44165,8.92584 7.7633,1.75945 15.58888,3.30228 23.41352,4.71228 11.6768,1.42555 23.48685,3.35529 35.25403,1.76123 10.06138,-0.27309 19.56322,-3.97311 29.43679,-5.49994 10.16721,-2.85974 20.57326,-4.8553 30.96057,-6.7844 15.18023,-3.04433 30.90526,-2.00954 45.92281,1.43233 11.18195,2.1289 21.64226,6.77681 31.82539,11.73234 7.08533,3.88742 14.56484,6.99104 22.05628,9.99121 10.33447,5.02322 21.38758,8.33353 31.78109,13.23257 5.57696,1.7814 11.09439,4.97685 17.12535,4.39183 l 0.64685,-0.18529 0.91182,-0.56814 z m 0,0 M 597.58856,197.11981 c 4.7387,-4.28189 10.879,-6.62961 16.40377,-9.73159 9.19215,-3.71413 17.08596,-10.39293 27.01123,-12.2875 3.49981,-0.5594 9.21576,-2.45528 11.64229,-1.42343 -8.1095,1.03501 -16.37113,2.47293 -23.5798,6.58523 -4.80408,2.6122 -9.36505,5.68379 -14.52244,7.60327 -5.67349,2.88552 -11.42339,5.70915 -16.53713,9.53287 l -0.38815,0.0701 -0.0298,-0.349 z m 0,0 m -79.11084,-9.82988 c 1.75142,-0.28 -0.1705,0.437 0,0 z m 0,0 M 359.54721,170.48534 c 0.50526,-1.29025 0.68101,0.85483 0,0 z m 0,0 m 235.04239,-0.82978 c 3.80322,-3.14841 8.75564,-5.08976 13.58631,-6.19727 6.2494,-1.58256 12.76655,-1.64876 19.13675,-2.2589 5.94015,0.11296 11.74357,1.41424 17.21597,3.7031 1.92508,-0.21665 5.51829,2.83691 1.56468,1.03668 -5.34868,-1.60405 -10.56108,-4.12625 -16.29861,-3.95033 -8.62803,0.0953 -17.43571,0.65297 -25.71548,3.22724 -3.26768,0.91803 -6.73759,3.82472 -9.48962,4.43948 z m 0,0 m 4.67627,-15.30352 c -4.56528,-1.30204 -8.30704,-4.69841 -11.52016,-8.1034 -3.03559,-3.09915 -2.68888,-5.14934 0.66868,-7.41301 2.99644,-3.20858 6.56052,-6.02571 10.92046,-6.97587 4.27638,-1.70188 9.30337,-0.90781 13.56656,0.5487 5.12179,1.53669 7.95923,6.50298 11.13231,10.43193 -1.57026,4.65829 -6.00195,7.94534 -10.32279,9.99418 -4.46598,1.99745 -9.68412,2.68162 -14.44509,1.51746 z m 0,0 m 10.42682,-4.33638 c 0.89936,-3.69603 -6.99812,0.33401 -1.82381,0.4884 0.5939,-0.03 1.45124,0.14091 1.82381,-0.4884 z m 0,0 m 9.92682,-2.45481 c 5.85393,-3.45432 0.0618,-8.54152 -2.72405,-11.10646 2.16067,3.82118 2.23282,8.63053 0.40344,12.59371 0.85912,0.17423 1.65582,-1.10743 2.32061,-1.48725 z m 0,0 m -29.41626,-1.14015 c -1.46702,-2.20822 -0.0418,-7.34872 -0.26303,-7.71478 -4.16224,1.96857 -3.15905,6.65707 0.40568,8.52545 l -0.14268,-0.81067 z m 0,0 m 23.28906,-4.65427 c -3.32944,-2.84453 -3.60312,2.31248 0,0 z m 0,0 m -6.41223,-0.98341 c 2.3572,-4.8165 -5.99707,-5.04649 -8.54139,-2.89445 -3.2028,4.63157 6.55261,3.41088 8.54139,2.89445 z m 0,0 m -85.34131,-7.08868 c -5.55253,-2.05094 -11.47199,-3.21026 -16.60179,-6.32543 -3.07048,-1.76638 -6.16069,-3.50454 -8.80962,-6.10096 -5.184,-4.65787 -8.2664,-11.38279 -8.30211,-18.36306 -0.39445,-4.802123 2.71096,-11.310336 8.36081,-10.485872 6.57455,0.606654 13.2597,2.989512 17.75149,8.017302 5.61234,5.45696 11.51462,10.60565 16.79062,16.4033 2.04601,1.91429 6.67694,5.83563 3.61421,9.34159 -3.19074,3.66253 -7.07493,9.75052 -12.80361,7.51313 z m 0,0 m 5.36285,-1.27974 c 3.08654,-2.4802 7.67893,-6.37783 6.73986,-10.56655 -3.47986,-3.97339 -7.25926,-7.75497 -10.78093,-11.69312 -5.35181,-4.15526 -9.58538,-9.62891 -15.22743,-13.41407 -4.51794,-1.904304 -9.43404,-3.87803 -14.43812,-3.0861 -5.35598,2.789604 -5.12236,9.94556 -3.92523,15.01923 2.34142,10.64126 12.54637,16.87419 21.95554,20.6453 4.92585,1.16666 9.90986,4.60838 15.03974,3.42776 l 0.63655,-0.33246 z m 0,0 m -8.60852,-4.44416 c 1.42018,-0.15522 -0.46683,0.43363 0,0 z m 0,0 m -22.8428,172.695 c -2.66231,-3.25873 -6.15383,-6.18013 -10.3177,-7.20865 -1.38012,-0.64173 -8.41133,-0.98955 -4.12641,-2.12815 4.53851,1.23233 9.09759,1.06154 13.5214,2.52226 2.30907,1.23658 6.12278,6.04408 7.69811,5.15732 -3.05781,-3.00857 -4.8846,-9.38798 -10.06698,-8.88094 -2.98954,-0.97753 -9.27161,0.32886 -10.48476,-1.64691 4.68083,-0.51012 9.41928,0.52321 14.06174,0.57745 3.09192,1.91954 6.38885,10.64209 10.19558,7.20564 -3.41382,-2.42756 -4.91923,-6.93504 -8.76087,-9.01307 -4.65398,-1.74404 -10.06379,-1.02067 -14.84883,-1.96192 3.39313,-2.09354 9.44101,-0.18885 13.76356,0.28268 4.59771,0.17862 6.47036,7.93197 10.37057,6.94174 -1.38724,-4.05054 -5.90177,-7.99684 -10.03125,-9.48699 -5.12301,0.13636 -10.16056,-0.47334 -15.22217,-1.11764 -4.79024,0.18325 -7.88392,-3.65592 -11.17789,-6.436 -3.47337,-1.95372 -5.65541,-8.07269 -8.7865,-8.73112 -2.70845,3.70373 -5.44251,7.28823 -9.2176,9.92083 -4.10755,2.10849 -8.361,4.2563 -12.77344,5.85804 3.22399,1.8201 7.05258,3.4709 10.75364,4.59288 4.80492,1.19438 9.29245,3.45524 14.25032,4.04681 5.71598,1.78392 11.81151,2.20225 17.3231,4.65769 4.87101,0.97227 8.65749,4.8981 13.56873,5.39437 l 0.21728,-0.20385 0.0904,-0.34248 z m 0,0 M 241.77603,288.29965 c -0.0135,-4.69027 -2.79657,-8.66227 -6.57429,-11.1961 -2.25416,-0.58267 -4.34215,-4.9521 -0.67425,-3.13322 4.40257,1.0007 8.38584,3.04218 11.08922,6.77814 1.33389,1.8426 7.31494,9.01728 5.91998,3.10966 -2.28494,-5.36483 -6.58823,-9.75711 -11.97042,-12.04698 -1.95632,-1.03476 -9.80545,-2.70079 -4.20682,-4.31157 4.44414,-1.40502 8.89106,0.25516 13.32829,0.8967 3.04798,1.58216 8.17551,6.05061 10.93571,4.13714 -2.47089,-3.91905 -7.20885,-6.84956 -11.66447,-8.33804 -4.29024,-1.2458 -9.88913,-0.31515 -13.43004,-1.67378 3.22926,-1.79134 8.3302,-0.0603 12.26726,0.0492 4.09588,-0.96684 8.08286,5.79376 10.68764,3.83876 -2.93244,-3.82309 -7.69717,-5.73701 -11.98168,-7.58443 -4.72642,-1.3472 -9.85036,-0.0722 -14.46924,-1.5715 -4.58017,-1.54775 -9.36074,-4.25941 -14.14748,-4.2285 -5.04034,3.04089 -8.81332,7.80602 -13.67787,11.01515 -2.0881,1.97681 -6.30198,6.57214 -0.49383,5.84384 5.40757,0.42813 9.64382,4.01536 14.94664,4.82764 4.66879,1.53327 9.61782,1.81343 14.05178,3.92779 4.23578,1.43129 6.61313,5.32176 7.98663,9.35203 0.53367,1.63586 2.64665,4.32844 2.07724,0.3081 z m 0,0 m 429.522,-110.45105 c 1.40358,-3.07975 3.42167,-6.44956 2.20746,-9.88168 -3.75822,0.68128 -7.46585,3.32527 -9.23745,6.6901 -1.54864,3.30689 -0.81991,8.60077 2.20199,10.17247 2.13512,-1.93919 3.70885,-4.32173 4.828,-6.98089 z m 0,0 M 560.00092,107.89539 c -2.1387,-4.60232 -5.14877,-9.561779 -10.37169,-10.987946 -3.6604,-2.347408 -7.74482,-2.187307 -11.35783,-4.187069 -2.27031,-0.296752 -6.16166,-2.437832 -7.76719,-0.304047 -1.63596,3.994557 -1.23482,8.714922 -0.22693,12.838792 1.45111,1.13368 4.51963,0.18671 6.47253,0.69903 7.76088,0.1168 15.35927,1.7343 23.05811,2.43816 l 0.28559,-0.13632 -0.0926,-0.3606 z m 0,0 m 22.77502,235.70468 c 0.54973,-0.97901 0.2745,1.19568 0,0 z m 0,0 M 271.92932,319.64716 c 0.72226,-1.42505 0.53014,0.65583 0,0 z m 0,0 m 318.4834,-39.64438 c -1.02141,-1.25496 1.89277,0.87057 0,0 z"
         id="path2861" />
    </g>
    <g
       id="g2863"
       transform="matrix(0.7075288,0,0,0.7075288,87.670717,476.28509)"
       style="filter:url(#filter3659)">
      <path
         sodipodi:nodetypes="cccccccccc"
         id="path2865"
         d="m 586.34179,142.839 c 1.88606,3.32834 4.77062,5.76912 4.77062,5.76912 l -0.22189,-10.87257 c 0,0 -4.43778,1.997 -4.54873,5.10345 z m 30.62069,7.21139 c 2.90152,-1.49928 5.01236,-3.78923 6.43478,-6.76761 -1.7875,-3.8213 -4.65386,-5.48488 -6.9895,-8.2099 -0.3742,5.01828 -1.56366,9.9704 0.55472,14.97751 z"
         style="fill:#d4d4d4;fill-opacity:1;stroke:none" />
      <path
         id="path2867"
         d="m 593.22035,142.839 c 1.10945,-6.43478 4.54873,-8.87556 9.98501,-8.98651 5.43628,-0.11094 12.98051,4.10495 12.75862,8.65368 -0.22189,4.54872 -2.9955,9.985 -8.20989,10.09595 -5.2144,0.11094 -14.64468,-9.54123 -14.53374,-9.76312 z"
         style="fill:#ffffff;fill-opacity:1;stroke:none" />
      <path
         id="path2869"
         d="m 244.46875,40.28125 c -22.93169,0.816828 -44.85083,8.747181 -66.28125,16.40625 -26.78823,9.536985 -52.0981,25.590316 -68.15625,49.46875 -13.58588,18.79986 -19.109696,41.78434 -25.0625,63.8125 -2.399466,14.86666 -0.956825,30.05844 1.125,44.8125 1.997427,21.55788 -10.05413,41.45919 -9.4375,62.875 1.022729,14.10078 9.631335,26.74032 19.46875,36.5 17.0314,14.62204 39.50711,20.54729 60.78125,26.1875 21.40043,4.07973 42.79975,9.76546 64.65625,10.15625 33.96706,-0.93416 66.22925,-17.30653 100.5,-13.59375 18.24283,1.43707 35.32088,8.20206 51.53125,16.34375 19.72531,8.45326 39.30889,17.62101 59.59375,24.5 2.94681,0.46936 10.11336,1.97222 9.03125,-3.15625 -3.69527,-5.62487 -11.1554,-7.66643 -16.46875,-11.5625 -31.59223,-17.77088 -64.16383,-38.3121 -101.40625,-39.9375 -22.73535,-1.33497 -45.21221,3.81862 -66.6875,10.5 -23.88782,5.98111 -48.89285,3.60054 -73,0.5 -21.71201,-5.59933 -43.05934,-13.34333 -63.125,-23.46875 -10.51466,-5.93078 -23.107756,-13.98396 -24.375,-27.21875 0.833713,-12.16177 9.16237,-24.93471 21.5,-27.84375 22.79908,-3.1121 45.06029,5.52456 67.0625,10.15625 5.40525,1.98109 12.873,3.05146 16.5625,-2.5 3.48285,-3.79653 8.61414,-6.40578 11.0625,-10.96875 2.81858,-2.6639 8.58468,-3.4905 12.5625,-5.1875 14.77723,-4.63637 30.70685,-4.52267 46.125,-4.1875 15.60057,1.64915 28.45226,12.43572 43.15625,17.4375 27.20777,11.01495 56.89025,13.25118 85.6875,17.4375 13.27081,1.06848 26.73079,4.15602 40.03125,2.1875 14.53661,-3.6323 20.40528,-19.10356 27.09375,-30.84375 6.61079,-12.65557 16.14966,-24.12592 29.375,-30.15625 3.93416,-0.97774 5.26453,-5.46535 9.03125,-6.1875 9.81761,3.21684 19.49841,7.27925 30,8 21.35619,3.37797 43.07456,0.0795 63.46875,-6.53125 14.33195,-4.66512 29.62049,-7.62778 42.625,-15.40625 2.78948,-2.47909 -4.86333,-2.52315 -0.4375,-3.1875 7.56695,-2.21877 16.92548,-2.7362 22.5625,-8.875 1.08431,-3.62923 -2.70139,-7.11895 -0.71875,-10.9375 0.92596,-4.74457 6.09573,-5.8722 8.875,-9.03125 0.45168,-5.94485 -5.78607,-9.94947 -9.625,-13.625 -11.25277,-5.79428 -23.9375,-10.0809 -33.9375,-18 -3.78777,-4.44697 -7.37248,-9.32663 -13.1875,-11.34375 -26.45187,-11.83878 -55.78369,-15.18376 -84.4375,-17.34375 -2.10679,-0.51079 -6.98979,0.41317 -4.125,3.28125 -0.61477,-0.56612 -1.26552,-1.11866 -1.9375,-1.625 -2.99274,-2.56566 -5.50288,-5.62783 -8.6875,-7.96875 -1.63492,-0.94279 -3.09387,-2.170521 -4.5625,-3.34375 -3.59745,-2.775887 -7.75474,-5.248528 -12.40625,-5.5 -2.70214,-0.141679 -5.39497,-0.363294 -8.09375,-0.4375 -0.13616,0.03107 -0.27011,0.06268 -0.40625,0.09375 -0.23546,0.144298 -0.34987,0.347306 -0.40625,0.5625 -1.59856,-0.263556 -4.23748,0.891842 -5,2 -5.67665,3.554493 -5.35395,10.90994 -2.9375,16.34375 2.78579,9.03696 10.63212,15.9682 18.84375,20.1875 6.24523,2.50404 13.54773,4.47784 19.15625,7.5 -11.04977,-3.2513 -22.51828,-6.91904 -31.75,-14.0625 -4.21406,-1.99686 -8.29432,3.14198 -12.46875,3.59375 -21.75009,6.37465 -44.92095,1.82072 -66.96875,-0.9375 -8.88488,-0.87644 -17.38444,-4.39649 -23.0625,-11.59375 C 372.42824,99.505424 361.73577,80.525764 343.4375,69.5 327.31206,56.789688 308.66005,47.188035 288.3125,43.53125 c -14.40427,-2.681354 -29.19042,-3.253 -43.84375,-3.25 z M 495.625,93.3125 c 0.336,0.0011 0.66527,0.01545 1,0.0625 5.39777,0.586925 10.91347,2.314013 15.0625,5.96875 3.38343,3.16608 6.71155,6.42613 10.09375,9.59375 3.72538,3.5579 7.33091,7.24083 10.90625,10.9375 0.64646,0.5535 0.95645,1.47994 1.71875,1.875 0.19422,0.11149 0.39205,0.11936 0.59375,0.0625 -0.01,1.00566 -0.25944,2.05013 -0.875,3.15625 -2.09248,5.7263 -8.50595,10.2196 -14.53125,7.34375 -13.02075,-3.52841 -28.29991,-11.11386 -30.5,-25.84375 -1.26936,-4.51793 -0.13084,-8.936682 2.8125,-12.5 0.24062,0.126835 0.5152,0.159496 0.8125,0.03125 0.90285,-0.481453 1.89824,-0.690851 2.90625,-0.6875 z m 110.53125,38.53125 c 7.29037,0.0201 13.80427,5.24683 17.09375,11.34375 -6.0361,11.78725 -24.39012,15.04491 -33.25,4.53125 -1.81772,-2.14421 -6.01109,-5.24948 -2,-7.65625 4.40449,-4.65469 9.98359,-8.49073 16.6875,-8.15625 0.49226,-0.0463 0.98273,-0.0638 1.46875,-0.0625 z"
         style="color:#000000;fill:#a68f82;fill-opacity:1;fill-rule:nonzero;stroke:none;stroke-width:1;marker:none;visibility:visible;display:inline;overflow:visible;enable-background:accumulate" />
      <path
         id="path2871"
         d="m 461.39918,266.07309 c -2.9159,2.67478 -4.91375,6.30221 -8.22963,8.6166 -4.13131,3.24495 -9.29925,4.94009 -13.95816,7.23638 -1.16933,1.7081 1.93159,2.13749 2.94802,2.87687 10.1221,4.32481 20.85617,7.08713 31.57715,9.41785 6.10164,1.36793 11.8925,3.86216 17.49921,6.62608 1.51123,0.42383 3.49538,1.80753 4.91659,0.67565 0.60764,-1.87176 -1.64524,-3.12085 -2.72612,-4.32454 -1.93249,-1.70494 -4.12192,-3.13488 -6.54074,-4.04015 3.70715,0.50566 7.7225,0.91964 10.4338,3.795 1.39031,0.90587 2.65544,2.73222 4.48143,2.67709 1.71568,-0.57648 0.14901,-2.5528 -0.29418,-3.1576 1.22633,1.29998 4.23238,2.10101 5.04039,0.0392 0.0694,-1.63125 -1.97148,-2.24921 -2.59865,-3.59888 -1.20176,-1.32342 -0.14263,-0.3393 0.6276,0.0981 1.16824,1.02711 3.43262,-0.0757 2.48097,-1.67686 -2.18207,-3.91693 -5.68432,-7.46847 -10.06117,-8.77655 -6.23175,-0.78575 -12.67944,-0.61868 -18.75926,-2.12794 -4.17272,-1.82968 -7.19197,-5.45982 -10.41419,-8.55101 -1.97477,-1.87559 -3.26256,-4.75842 -5.90333,-5.8445 -0.17358,-0.0172 -0.35083,-0.0174 -0.51973,0.0392 z"
         style="color:#000000;fill:#e8af89;fill-opacity:1;fill-rule:nonzero;stroke:none;stroke-width:1;marker:none;visibility:visible;display:inline;overflow:visible;enable-background:accumulate" />
      <path
         id="path2873"
         d="m 217.29337,252.32872 c -3.22205,0.89696 -5.47738,3.74865 -8.06025,5.72241 -3.28398,3.27711 -7.91778,5.59616 -9.94394,9.90868 -0.80192,1.70927 0.97023,3.11799 2.58884,2.86341 5.18629,0.01 9.66063,3.29446 14.65047,4.41279 6.03566,1.93987 12.6936,2.28832 18.00078,5.99554 3.06051,2.47107 3.7267,6.65967 6.05383,9.61594 1.52194,1.05653 2.41372,-1.16543 2.02008,-2.38291 -0.1583,-5.26511 -3.40985,-9.9965 -7.87438,-12.63039 -0.39627,-0.28879 -1.95178,-1.65062 -0.63741,-1.17675 4.17081,1.01626 8.1516,3.13346 10.78813,6.62591 1.96103,1.82892 3.47117,4.46387 6.00009,5.54359 2.09442,0.0724 1.81518,-2.65577 1.04927,-3.88325 -2.67525,-6.29923 -8.43536,-10.69876 -14.76814,-12.93439 -0.76006,-0.41063 -2.09877,-0.73774 -2.53,-1.28461 4.26153,-1.88232 9.11023,-0.4344 13.41488,0.53934 3.66882,1.27906 6.80698,4.9475 10.98295,4.2559 1.87089,-0.69934 0.52394,-2.84794 -0.52954,-3.63811 -0.88943,-0.92471 -1.82715,-1.80165 -2.87321,-2.5398 1.32861,0.76268 3.07501,-0.82296 1.89259,-2.08872 -3.17,-3.31978 -7.51414,-5.45208 -11.77725,-7.07028 -5.5302,-1.56444 -11.63255,-0.0992 -16.88784,-2.68797 -3.77968,-1.19551 -7.54465,-3.14962 -11.55995,-3.16633 z m 0,0 m 30.77186,11.12024 c 0.79294,0.0215 2.17296,0.72777 2.38291,0.93158 -0.82678,-0.41546 -1.70178,-0.74067 -2.59864,-0.961 z"
         style="color:#000000;fill:#e8af89;fill-opacity:1;fill-rule:nonzero;stroke:none;stroke-width:1;marker:none;visibility:visible;display:inline;overflow:visible;enable-background:accumulate" />
      <path
         id="path2875"
         d="m 672.65421,167.41289 c -3.98629,0.80371 -7.49215,3.82639 -9.19822,7.48213 -1.3574,3.47052 -0.94874,8.30156 2.46135,10.42399 1.97584,0.33218 2.88539,-2.17689 3.95805,-3.39988 2.11435,-3.67384 4.65881,-7.58428 4.64199,-11.97624 0.0305,-1.19134 -0.27102,-2.79674 -1.86317,-2.53 z"
         style="color:#000000;fill:#da9155;fill-opacity:1;fill-rule:nonzero;stroke:none;stroke-width:1;marker:none;visibility:visible;display:inline;overflow:visible;enable-background:accumulate" />
      <path
         id="path2877"
         d="m 532.5824,90.751916 c -3.00689,-0.05393 -3.68888,3.488467 -3.77813,5.853506 -0.0328,3.066797 -0.40662,6.484738 1.08143,9.248048 2.20752,1.19956 4.98836,0.63913 7.42329,0.98062 7.53043,0.39501 14.95872,1.62509 22.4464,2.35349 1.88886,-0.4258 0.57313,-2.64768 -0.0294,-3.61849 -2.12597,-4.07066 -5.1848,-7.843702 -9.62969,-9.443375 -4.90134,-2.112921 -10.02027,-3.573399 -15.12116,-5.069806 -0.78738,-0.157847 -1.58532,-0.33917 -2.39272,-0.303993 z"
         style="color:#000000;fill:#7b6356;fill-opacity:1;fill-rule:nonzero;stroke:none;stroke-width:1;marker:none;visibility:visible;display:inline;overflow:visible;enable-background:accumulate" />
      <path
         id="path2879"
         d="m 495.25019,92.673932 c -4.51882,0.07329 -6.92976,4.912343 -7.12376,8.903108 -0.74775,9.14484 4.57276,17.915 12.13473,22.77093 6.41424,4.27042 13.74206,6.9415 21.10295,9.06093 2.57192,0.41789 5.63371,0.74794 7.52136,-1.47093 2.85188,-2.46746 6.45118,-5.78027 5.56011,-9.94349 -2.13665,-3.6187 -5.50153,-6.35233 -8.18818,-9.56105 -3.95346,-4.37792 -8.55016,-7.97372 -12.75511,-12.08596 -3.44556,-3.453074 -7.80866,-5.840519 -12.57431,-6.908654 -1.85248,-0.460412 -3.76253,-0.799192 -5.67779,-0.764884 z"
         style="color:#000000;fill:#e6ab7e;fill-opacity:1;fill-rule:nonzero;stroke:none;stroke-width:1;marker:none;visibility:visible;display:inline;overflow:visible;enable-background:accumulate" />
      <path
         id="path2881"
         d="m 435.47452,379.13129 c -4.83984,-1.55887 -9.48901,-3.33028 -14.26315,-5.06622 -7.90715,-4.0636 -16.4122,-6.68836 -24.58802,-10.11623 -5.36304,-2.57186 -10.89399,-4.77578 -16.39662,-7.05073 -8.6296,-3.95028 -16.94625,-8.63096 -26.03077,-11.49384 -4.67817,-1.92901 -9.73358,-2.92314 -14.65288,-4.09872 -4.85362,-1.4873 -9.83184,-2.4878 -14.91078,-2.93801 -8.07571,-0.77963 -16.22048,-1.89034 -24.31266,-0.72958 -7.43098,1.14702 -14.84747,2.41127 -22.2679,3.61093 -9.60425,1.84111 -18.96739,4.90989 -28.68005,6.20636 -11.3275,3.44018 -23.28823,3.80042 -35.03389,3.34217 -9.80121,-0.85707 -19.62773,-1.79351 -29.22746,-3.98723 -8.09048,-1.43904 -16.03836,-3.57446 -24.14031,-4.94108 -7.28943,-1.57261 -14.53514,-3.45749 -21.63105,-5.78396 -8.74467,-2.24145 -17.32794,-5.26202 -25.32216,-9.5224 -9.33306,-4.69194 -18.717097,-10.27357 -24.986626,-18.87079 -4.610932,-4.94896 -8.648007,-10.50587 -10.794254,-16.967 -2.584199,-6.62317 -4.102786,-13.76381 -2.998604,-20.87803 0.726528,-5.52082 1.173186,-11.0883 2.93226,-16.40779 2.097779,-10.02866 5.034073,-19.88888 6.637073,-30.0111 0.527154,-6.31487 -0.421627,-12.58161 -1.614951,-18.75834 -0.881717,-9.51612 -1.152851,-19.15396 -0.328986,-28.67745 0.977286,-6.20706 3.312555,-12.09162 4.826558,-18.18429 3.932435,-11.39743 6.130866,-23.43101 11.429904,-34.32447 2.602156,-5.12858 5.363026,-10.17512 8.814496,-14.78821 2.44136,-4.29658 4.75004,-8.721622 8.45807,-12.107207 5.52592,-6.459783 11.65874,-12.542099 18.61634,-17.436163 3.64305,-3.012104 6.99516,-6.102588 11.30337,-8.156949 10.27825,-5.523404 20.65363,-10.940391 31.70467,-14.76069 5.31946,-2.204206 10.71874,-4.308507 16.19173,-6.066393 16.01645,-3.355695 31.46369,-10.195164 48.06428,-10.141528 12.67323,-0.472774 25.36336,0.499176 37.96649,1.727387 7.87684,1.091808 15.63557,2.792642 23.25785,5.074072 5.4488,1.813417 10.77448,4.005181 15.94213,6.517136 5.61583,2.893752 11.10769,6.043361 15.92467,10.159411 6.85114,4.980543 14.19174,9.285827 20.81256,14.556896 3.86686,4.08232 8.61531,7.467816 11.61888,12.333154 4.47975,5.847578 8.72388,11.887714 13.94958,17.111264 5.19244,5.3809 10.12585,11.58415 17.13269,14.64913 11.72576,4.29967 24.16856,6.06291 36.58323,6.7852 8.51696,1.30001 17.14726,1.08885 25.6686,-0.0334 7.37777,-0.62603 14.90529,-1.69233 21.38743,-5.54524 3.46882,-0.93195 5.09214,-3.37693 1.92607,-5.98574 -2.55694,-4.28019 -4.78338,-8.82398 -4.80573,-13.92265 -0.47399,-4.66961 2.22778,-9.688351 6.25068,-12.11151 4.33778,-0.791751 9.02343,-0.674351 13.54032,-0.499164 5.51025,0.0855 10.24051,3.256017 14.3672,6.531588 3.0326,2.145546 6.13849,4.396626 8.70288,7.224046 1.14055,1.92433 2.82248,2.186 4.76142,1.17236 0.88014,-3.8058 -0.72502,-9.060022 -0.04,-13.436373 2.87129,-5.332793 9.84669,-2.738853 14.08601,-0.746897 4.59481,2.110835 9.45119,3.930881 13.61689,6.807806 4.14708,2.465524 4.29416,8.709444 8.51284,10.641154 6.95032,1.49366 14.17973,1.41456 21.00603,3.58138 8.64391,2.07165 17.26455,4.36549 25.51828,7.72763 6.38189,2.04967 13.92512,3.70682 17.7496,9.70101 1.65672,4.39308 5.1476,7.57762 9.58225,9.06658 7.86269,4.19672 15.3218,9.26359 23.87406,12.00239 4.81438,1.31519 7.34657,5.6854 10.25176,9.23012 1.92916,5.47726 7.80373,0.99667 11.99595,2.06254 2.60006,-0.44576 7.05911,3.59661 2.13507,1.54042 -3.11691,-1.14644 -9.59036,-1.36811 -11.19418,1.00555 1.99284,4.6663 0.79696,9.73213 -1.99089,13.72596 4.9094,1.60768 10.7616,2.02147 14.09839,6.58139 1.23951,3.6999 -3.52361,-2.95011 -5.37452,-3.17926 -4.15628,-1.4778 -9.95704,-4.18141 -11.78796,1.69815 -4.87496,5.95318 -12.09959,9.9343 -19.65919,11.11909 -4.07476,4.03617 -8.55231,7.90228 -14.17456,9.62827 -5.57495,2.4466 -11.33729,4.47835 -17.18525,6.0875 -5.41614,2.30187 -11.32305,3.17273 -16.74601,5.3879 -5.35482,2.01563 -10.82077,4.02912 -16.60486,4.41303 -4.64261,1.80074 -9.68129,1.79497 -14.51268,2.85673 -5.62278,1.36778 -11.46825,0.69448 -17.20009,0.82545 -9.75797,-0.66739 -19.50804,-1.89055 -29.11208,-3.76557 -5.95118,-1.43248 -11.86516,-3.05839 -17.46432,-5.53619 -2.30408,-1.41364 -3.08346,2.63205 -5.12803,3.05957 -4.89098,2.56516 -9.85669,5.00523 -14.28701,8.32485 -4.63478,2.77214 -6.84428,8.09493 -10.77014,11.68075 -3.81292,5.52198 -7.12909,11.42064 -9.98213,17.49992 -0.53522,4.21528 -6.4171,8.95065 -1.72636,12.37917 2.71841,3.8118 5.97532,6.85057 9.59284,9.74257 3.49902,4.1937 8.98752,2.64659 13.61906,3.92231 4.3259,1.02527 9.81354,-1.26542 13.14758,2.47758 2.80818,2.72667 8.68883,5.57915 6.56664,10.22702 0.57486,2.65152 -0.91286,5.16038 -3.5941,5.20364 -2.09845,5.16908 -6.90443,-3.35659 -10.17549,-4.06094 -1.5447,-1.27405 -4.49608,-1.14134 -1.22219,0.6284 1.93272,1.68726 6.87014,4.76417 2.86419,6.87112 -4.46092,-0.22995 -7.86506,-4.04879 -12.20111,-5.06775 -9.5883,-4.11948 -20.22311,-4.6467 -29.90229,-8.42845 -5.62214,-1.29241 -10.61375,-4.30061 -16.03786,-6.07118 -10.25408,-0.29506 -20.46745,-1.4045 -30.69003,-2.10078 -5.32091,0.22982 -10.43934,-1.32449 -15.69009,-1.86782 -7.64215,-1.12068 -15.2363,-2.71546 -22.79616,-4.27485 -6.09716,-0.94312 -12.39517,-0.79719 -18.25275,-2.98635 -7.15121,-1.49289 -14.28029,-3.02371 -21.30645,-5.03733 -7.02498,-1.51436 -13.34501,-5.12864 -19.94386,-7.79639 -4.24562,-2.41663 -8.89075,-3.96485 -13.24976,-6.14596 -5.99763,-2.28279 -11.43251,-6.09041 -17.63496,-7.79714 -5.32509,-1.10014 -10.83838,-1.48706 -16.24681,-1.50792 -9.02584,0.78334 -18.09621,1.39837 -26.98778,3.27917 -4.53259,0.59554 -9.14026,1.57037 -13.32211,3.43702 -4.38515,2.85424 6.63345,3.1649 8.71348,4.94448 5.13624,2.14671 10.94733,0.94498 16.24392,2.20565 4.34151,2.1366 8.98803,4.1728 12.30176,7.8172 0.25287,2.45052 -0.71458,3.94436 1.82881,5.60871 1.83008,5.89716 -5.77114,3.27224 -8.19208,1.25951 -3.85108,-2.89297 -8.98013,-3.97434 -13.71766,-3.71362 -3.727,1.02606 4.28456,2.66537 5.5014,3.96968 4.35475,2.3476 6.91075,6.93119 9.0495,11.27584 2.30716,3.98935 -3.04467,6.09032 -4.81446,2.04589 -3.34742,-3.79065 -6.16474,-8.6063 -11.58572,-9.60146 3.633,2.96478 6.9708,7.67873 6.57812,12.94822 0.52492,5.24825 -5.34102,2.68156 -4.9748,-1.24848 -1.57539,-6.29974 -8.17936,-9.63484 -14.15375,-10.40001 -5.62909,-1.19452 -11.15755,-2.77507 -16.32006,-5.37354 -5.62845,-1.99637 -11.76729,-2.10628 -17.5227,-3.8061 -8.39604,-2.21265 -16.9803,-3.57983 -25.39777,-5.69737 -6.20211,-0.71077 -11.8677,-3.69166 -18.1366,-4.04821 -7.57226,-1.38442 -15.23048,-3.5075 -22.98306,-2.22779 -5.11081,0.041 -10.1841,1.55203 -13.87511,5.23171 -4.00782,3.49185 -7.74661,7.56194 -9.13836,12.83977 -2.097136,5.28987 -3.390714,11.68147 -0.43958,16.91478 2.82168,7.1215 9.48363,11.85695 15.82263,15.73468 7.77864,4.02412 15.27671,8.67696 23.65353,11.40381 10.12688,4.30932 20.62873,7.63524 30.9859,11.29323 3.76048,0.39724 7.76232,2.25502 11.94098,2.45253 7.90836,1.55126 15.91792,2.28475 23.95269,2.75111 5.64903,0.79589 11.41953,-0.20208 17.12083,0.13107 6.1039,0.30358 12.13054,-0.61011 18.21353,-0.89748 4.18778,-0.45547 8.28213,-1.33485 12.51753,-1.41405 5.32519,-0.94212 10.55332,-2.48807 15.75111,-4.01658 4.69743,-1.49201 9.69186,-1.67873 14.39788,-3.23178 6.2668,-1.11974 12.53239,-2.38772 18.87039,-2.94078 7.40072,-0.34489 14.79346,-0.7606 22.21064,-0.42237 9.3939,0.28927 18.60017,2.6371 27.6958,4.82778 11.12866,3.43559 21.78793,8.30603 32.08481,13.71562 10.22112,3.91768 19.4698,9.89461 29.05235,15.1243 8.74901,5.4894 18.33218,9.56178 26.59506,15.78019 6.18996,3.84077 -0.50551,10.07169 -5.63891,7.50889 z m 0,0 m 6.22116,-1.82364 c 1.69303,-4.99149 -5.19995,-6.68351 -8.23636,-9.26948 -7.11305,-4.50445 -14.85906,-7.92777 -21.84128,-12.64871 -8.77545,-4.74655 -17.23372,-10.16015 -26.61291,-13.68364 -13.83458,-7.21021 -28.30048,-13.79887 -43.82076,-16.29772 -13.09916,-2.99525 -26.66011,-2.4673 -39.95064,-1.32309 -10.62692,1.20982 -21.12367,3.40316 -31.39808,6.3319 -4.80099,2.52009 -10.29612,2.95331 -15.3783,4.62968 -7.57352,1.14607 -15.07736,3.15264 -22.80314,2.80711 -9.23911,0.27599 -18.44914,-0.59622 -27.67431,-0.91418 -6.6911,-0.52204 -13.55117,-0.68431 -20.03268,-2.61494 -4.86002,0.40033 -8.76623,-2.11779 -13.29531,-3.386 -10.0599,-3.48725 -20.22464,-6.73948 -30.03414,-10.87864 -6.00319,-2.46201 -12.1424,-4.68272 -17.70663,-8.06863 -8.62899,-4.33483 -17.48166,-9.33473 -22.7468,-17.77126 -2.655993,-4.06711 -3.994982,-8.91816 -3.504993,-13.73481 1.60611,-7.92241 5.413793,-15.72444 11.896963,-20.78986 5.46754,-4.87661 13.20374,-5.52236 20.1972,-5.82094 6.46712,0.11976 12.8899,1.28942 19.25557,2.29061 9.66749,1.73888 19.03257,4.83137 28.67271,6.72302 4.37119,0.40531 8.34636,2.28056 12.56377,3.23311 4.40928,1.32971 8.58854,2.18225 11.43633,-2.37177 4.24684,-3.2828 7.86114,-7.31577 12.1644,-10.49986 3.2966,-1.6091 -4.57449,-1.52672 0.63708,-2.29912 4.75478,-0.97844 8.87778,-3.94119 13.62283,-5.01525 6.53038,-2.23044 13.47716,-2.51181 20.25469,-3.5054 7.32287,-0.0715 14.62957,-1.11642 21.95163,-0.72336 4.60623,0.57142 9.46578,0.94219 13.69211,2.83633 4.62047,1.90998 9.23017,4.03857 13.5619,6.59182 6.04478,2.59485 11.4574,6.66872 17.90024,8.40911 8.64407,3.55653 17.40203,6.96885 26.68027,8.42982 5.05909,0.59436 9.94405,1.95593 14.89347,3.02678 6.6449,0.45436 13.07901,2.34435 19.72895,2.8378 6.42896,1.34093 12.97371,1.74089 19.46266,2.64795 8.46572,2.15453 17.26795,1.23873 25.81242,2.82852 6.92917,1.20727 14.16685,1.49562 21.07516,0.0879 4.6351,-1.62673 8.53313,-4.89624 12.23224,-8.0037 4.71925,-5.10681 7.38437,-11.53853 10.45709,-17.66343 5.63269,-10.82132 11.45957,-22.48007 22.12866,-29.1941 3.89536,-2.76565 7.88695,-5.39234 12.34554,-7.15881 3.85962,-1.36907 5.38943,-8.39928 9.87819,-4.33323 5.92487,2.59726 12.17104,4.5063 18.48808,5.96497 5.19707,0.79478 10.43403,1.22505 15.62457,2.05466 8.47553,0.88488 17.0928,0.76165 25.59281,-0.0183 5.33209,-1.00947 10.62246,-2.23817 16.00903,-2.92421 6.23979,-1.02245 11.81955,-4.17376 18.01124,-5.32597 4.42766,-1.06331 8.78164,-2.34663 13.06393,-3.88742 4.2304,-1.40459 8.70926,-2.27926 12.76604,-3.88828 6.01166,-1.78144 11.6832,-4.70607 16.35171,-8.89062 -1.14313,-0.44307 -8.73395,1.86014 -5.23261,-0.8749 8.91804,-1.49646 18.74733,-2.69674 25.52381,-9.31941 -3.6046,-4.06804 -3.75251,-10.77244 0.40411,-14.64385 1.57176,-2.75155 6.60241,-2.6845 7.43306,-4.82065 -1.31187,-4.67991 -4.97959,-8.41289 -8.32679,-11.79986 -4.29077,-3.05846 -9.6623,-3.73106 -14.08514,-6.5293 -5.45251,-2.85642 -10.54091,-6.52595 -16.55564,-8.12342 -5.01125,-1.35409 -6.82807,-6.09375 -9.67984,-9.78388 -2.51765,-4.12839 -7.41492,-5.40423 -11.45489,-7.39523 -6.5179,-2.31679 -13.0106,-4.87246 -19.69968,-6.68805 -8.40867,-2.17321 -16.86725,-4.56024 -25.59119,-5.10612 -9.31844,-1.81689 -18.78992,-2.7326 -28.23979,-3.6258 -4.47967,-0.0428 -9.34916,-1.19269 -13.59252,0.36806 3.22839,2.97497 6.11195,6.5104 8.56497,10.2559 1.52931,1.26513 2.20021,5.09907 0.043,1.83963 -2.93969,-4.01064 -5.66247,-8.31078 -9.81938,-11.16865 -3.43115,-2.95701 -6.1209,-6.76974 -10.24831,-8.926486 -4.26492,-3.652313 -9.08989,-7.311559 -14.94118,-7.647694 -4.69783,0.161503 -10.92245,-1.953032 -14.27472,2.46076 -4.29562,2.525905 -5.17812,8.74236 -2.50172,12.74931 1.54602,8.78321 7.85343,16.31242 15.55998,20.57453 7.79493,3.54633 15.95672,6.3122 24.04668,9.05913 1.48189,2.82802 -5.55528,0.29709 -7.17709,-0.4212 -6.8435,-2.19747 -13.49503,-5.04983 -19.98696,-8.09841 -3.46339,-2.2008 -6.87934,-7.99778 -10.94606,-3.52935 -4.77904,1.5474 -9.19047,4.3177 -14.35934,4.60418 -8.50819,1.80085 -17.32253,1.06876 -25.9694,1.16935 -8.31621,-0.84162 -16.72287,-1.31379 -24.9572,-2.70042 -5.30855,-1.11691 -10.79976,-0.93435 -16.0138,-2.59651 -4.49467,-0.63994 -8.97356,-2.81062 -12.12924,-5.66726 -7.36656,-7.64262 -14.74164,-15.394 -20.62363,-24.271796 C 363.6031,87.214976 356.97653,78.481459 347.66583,73.034114 341.2809,68.891198 335.16404,64.349018 329.03999,59.819351 313.2288,49.386928 294.53235,44.028973 275.80954,42.049358 262.76559,41.207191 249.67929,39.950771 236.61145,41.11958 c -7.36686,0.383884 -14.46201,2.680778 -21.60033,4.373567 -7.38726,2.046575 -14.72603,4.390891 -22.24216,5.857929 -9.12306,3.692718 -18.48845,6.871991 -27.42354,11.013765 -9.86187,4.700155 -19.98613,9.294959 -28.37419,16.431911 -5.79741,3.526274 -10.39559,8.588688 -15.22077,13.285549 -4.09862,4.754438 -8.81377,9.060169 -11.6435,14.763589 -2.94432,5.21806 -6.84334,9.83178 -9.18364,15.4045 -4.566687,8.42392 -6.760641,17.75366 -9.418736,26.89457 -2.563367,7.78979 -4.982447,15.65872 -6.765864,23.67193 -0.615774,4.59166 -0.546607,9.23853 -0.895641,13.86301 -0.07662,8.33475 1.05037,16.58331 2.634341,24.7448 0.921691,6.61791 1.367657,13.41185 -0.491189,19.91737 -1.683841,7.43565 -2.757179,15.04012 -5.508816,22.19158 -1.732686,6.00625 -3.319708,12.1056 -3.274261,18.41389 -0.828276,7.46823 0.851756,15.13293 4.126227,21.82938 3.58279,4.64603 5.799949,10.18713 9.684713,14.6423 8.329837,10.12386 20.384886,15.97965 32.086116,21.28972 4.4989,1.76654 9.06913,3.44253 13.81933,4.45683 11.5224,4.00046 23.47606,6.60618 35.44165,8.92584 7.7633,1.75945 15.58888,3.30228 23.41352,4.71228 11.6768,1.42555 23.48685,3.35529 35.25403,1.76123 10.06138,-0.27309 19.56322,-3.97311 29.43679,-5.49994 10.16721,-2.85974 20.57326,-4.8553 30.96057,-6.7844 15.18023,-3.04433 30.90526,-2.00954 45.92281,1.43233 11.18195,2.1289 21.64226,6.77681 31.82539,11.73234 7.08533,3.88742 14.56484,6.99104 22.05628,9.99121 10.33447,5.02322 21.38758,8.33353 31.78109,13.23257 5.57696,1.7814 11.09439,4.97685 17.12535,4.39183 l 0.64685,-0.18529 0.91182,-0.56814 z m 0,0 M 597.58856,197.11981 c 4.7387,-4.28189 10.879,-6.62961 16.40377,-9.73159 9.19215,-3.71413 17.08596,-10.39293 27.01123,-12.2875 3.49981,-0.5594 9.21576,-2.45528 11.64229,-1.42343 -8.1095,1.03501 -16.37113,2.47293 -23.5798,6.58523 -4.80408,2.6122 -9.36505,5.68379 -14.52244,7.60327 -5.67349,2.88552 -11.42339,5.70915 -16.53713,9.53287 l -0.38815,0.0701 -0.0298,-0.349 z m 0,0 m -79.11084,-9.82988 c 1.75142,-0.28 -0.1705,0.437 0,0 z m 0,0 M 359.54721,170.48534 c 0.50526,-1.29025 0.68101,0.85483 0,0 z m 0,0 m 235.04239,-0.82978 c 3.80322,-3.14841 8.75564,-5.08976 13.58631,-6.19727 6.2494,-1.58256 12.76655,-1.64876 19.13675,-2.2589 5.94015,0.11296 11.74357,1.41424 17.21597,3.7031 1.92508,-0.21665 5.51829,2.83691 1.56468,1.03668 -5.34868,-1.60405 -10.56108,-4.12625 -16.29861,-3.95033 -8.62803,0.0953 -17.43571,0.65297 -25.71548,3.22724 -3.26768,0.91803 -6.73759,3.82472 -9.48962,4.43948 z m 0,0 m 4.67627,-15.30352 c -4.56528,-1.30204 -8.30704,-4.69841 -11.52016,-8.1034 -3.03559,-3.09915 -2.68888,-5.14934 0.66868,-7.41301 2.99644,-3.20858 6.56052,-6.02571 10.92046,-6.97587 4.27638,-1.70188 9.30337,-0.90781 13.56656,0.5487 5.12179,1.53669 7.95923,6.50298 11.13231,10.43193 -1.57026,4.65829 -6.00195,7.94534 -10.32279,9.99418 -4.46598,1.99745 -9.68412,2.68162 -14.44509,1.51746 z m 0,0 m 10.42682,-4.33638 c 0.89936,-3.69603 -6.99812,0.33401 -1.82381,0.4884 0.5939,-0.03 1.45124,0.14091 1.82381,-0.4884 z m 0,0 m 9.92682,-2.45481 c 5.85393,-3.45432 0.0618,-8.54152 -2.72405,-11.10646 2.16067,3.82118 2.23282,8.63053 0.40344,12.59371 0.85912,0.17423 1.65582,-1.10743 2.32061,-1.48725 z m 0,0 m -29.41626,-1.14015 c -1.46702,-2.20822 -0.0418,-7.34872 -0.26303,-7.71478 -4.16224,1.96857 -3.15905,6.65707 0.40568,8.52545 l -0.14268,-0.81067 z m 0,0 m 23.28906,-4.65427 c -3.32944,-2.84453 -3.60312,2.31248 0,0 z m 0,0 m -6.41223,-0.98341 c 2.3572,-4.8165 -5.99707,-5.04649 -8.54139,-2.89445 -3.2028,4.63157 6.55261,3.41088 8.54139,2.89445 z m 0,0 m -85.34131,-7.08868 c -5.55253,-2.05094 -11.47199,-3.21026 -16.60179,-6.32543 -3.07048,-1.76638 -6.16069,-3.50454 -8.80962,-6.10096 -5.184,-4.65787 -8.2664,-11.38279 -8.30211,-18.36306 -0.39445,-4.802123 2.71096,-11.310336 8.36081,-10.485872 6.57455,0.606654 13.2597,2.989512 17.75149,8.017302 5.61234,5.45696 11.51462,10.60565 16.79062,16.4033 2.04601,1.91429 6.67694,5.83563 3.61421,9.34159 -3.19074,3.66253 -7.07493,9.75052 -12.80361,7.51313 z m 0,0 m 5.36285,-1.27974 c 3.08654,-2.4802 7.67893,-6.37783 6.73986,-10.56655 -3.47986,-3.97339 -7.25926,-7.75497 -10.78093,-11.69312 -5.35181,-4.15526 -9.58538,-9.62891 -15.22743,-13.41407 -4.51794,-1.904304 -9.43404,-3.87803 -14.43812,-3.0861 -5.35598,2.789604 -5.12236,9.94556 -3.92523,15.01923 2.34142,10.64126 12.54637,16.87419 21.95554,20.6453 4.92585,1.16666 9.90986,4.60838 15.03974,3.42776 l 0.63655,-0.33246 z m 0,0 m -8.60852,-4.44416 c 1.42018,-0.15522 -0.46683,0.43363 0,0 z m 0,0 m -22.8428,172.695 c -2.66231,-3.25873 -6.15383,-6.18013 -10.3177,-7.20865 -1.38012,-0.64173 -8.41133,-0.98955 -4.12641,-2.12815 4.53851,1.23233 9.09759,1.06154 13.5214,2.52226 2.30907,1.23658 6.12278,6.04408 7.69811,5.15732 -3.05781,-3.00857 -4.8846,-9.38798 -10.06698,-8.88094 -2.98954,-0.97753 -9.27161,0.32886 -10.48476,-1.64691 4.68083,-0.51012 9.41928,0.52321 14.06174,0.57745 3.09192,1.91954 6.38885,10.64209 10.19558,7.20564 -3.41382,-2.42756 -4.91923,-6.93504 -8.76087,-9.01307 -4.65398,-1.74404 -10.06379,-1.02067 -14.84883,-1.96192 3.39313,-2.09354 9.44101,-0.18885 13.76356,0.28268 4.59771,0.17862 6.47036,7.93197 10.37057,6.94174 -1.38724,-4.05054 -5.90177,-7.99684 -10.03125,-9.48699 -5.12301,0.13636 -10.16056,-0.47334 -15.22217,-1.11764 -4.79024,0.18325 -7.88392,-3.65592 -11.17789,-6.436 -3.47337,-1.95372 -5.65541,-8.07269 -8.7865,-8.73112 -2.70845,3.70373 -5.44251,7.28823 -9.2176,9.92083 -4.10755,2.10849 -8.361,4.2563 -12.77344,5.85804 3.22399,1.8201 7.05258,3.4709 10.75364,4.59288 4.80492,1.19438 9.29245,3.45524 14.25032,4.04681 5.71598,1.78392 11.81151,2.20225 17.3231,4.65769 4.87101,0.97227 8.65749,4.8981 13.56873,5.39437 l 0.21728,-0.20385 0.0904,-0.34248 z m 0,0 M 241.77603,288.29965 c -0.0135,-4.69027 -2.79657,-8.66227 -6.57429,-11.1961 -2.25416,-0.58267 -4.34215,-4.9521 -0.67425,-3.13322 4.40257,1.0007 8.38584,3.04218 11.08922,6.77814 1.33389,1.8426 7.31494,9.01728 5.91998,3.10966 -2.28494,-5.36483 -6.58823,-9.75711 -11.97042,-12.04698 -1.95632,-1.03476 -9.80545,-2.70079 -4.20682,-4.31157 4.44414,-1.40502 8.89106,0.25516 13.32829,0.8967 3.04798,1.58216 8.17551,6.05061 10.93571,4.13714 -2.47089,-3.91905 -7.20885,-6.84956 -11.66447,-8.33804 -4.29024,-1.2458 -9.88913,-0.31515 -13.43004,-1.67378 3.22926,-1.79134 8.3302,-0.0603 12.26726,0.0492 4.09588,-0.96684 8.08286,5.79376 10.68764,3.83876 -2.93244,-3.82309 -7.69717,-5.73701 -11.98168,-7.58443 -4.72642,-1.3472 -9.85036,-0.0722 -14.46924,-1.5715 -4.58017,-1.54775 -9.36074,-4.25941 -14.14748,-4.2285 -5.04034,3.04089 -8.81332,7.80602 -13.67787,11.01515 -2.0881,1.97681 -6.30198,6.57214 -0.49383,5.84384 5.40757,0.42813 9.64382,4.01536 14.94664,4.82764 4.66879,1.53327 9.61782,1.81343 14.05178,3.92779 4.23578,1.43129 6.61313,5.32176 7.98663,9.35203 0.53367,1.63586 2.64665,4.32844 2.07724,0.3081 z m 0,0 m 429.522,-110.45105 c 1.40358,-3.07975 3.42167,-6.44956 2.20746,-9.88168 -3.75822,0.68128 -7.46585,3.32527 -9.23745,6.6901 -1.54864,3.30689 -0.81991,8.60077 2.20199,10.17247 2.13512,-1.93919 3.70885,-4.32173 4.828,-6.98089 z m 0,0 M 560.00092,107.89539 c -2.1387,-4.60232 -5.14877,-9.561779 -10.37169,-10.987946 -3.6604,-2.347408 -7.74482,-2.187307 -11.35783,-4.187069 -2.27031,-0.296752 -6.16166,-2.437832 -7.76719,-0.304047 -1.63596,3.994557 -1.23482,8.714922 -0.22693,12.838792 1.45111,1.13368 4.51963,0.18671 6.47253,0.69903 7.76088,0.1168 15.35927,1.7343 23.05811,2.43816 l 0.28559,-0.13632 -0.0926,-0.3606 z m 0,0 m 22.77502,235.70468 c 0.54973,-0.97901 0.2745,1.19568 0,0 z m 0,0 M 271.92932,319.64716 c 0.72226,-1.42505 0.53014,0.65583 0,0 z m 0,0 m 318.4834,-39.64438 c -1.02141,-1.25496 1.89277,0.87057 0,0 z"
         style="fill:#000000" />
    </g>
  </g>
</svg>
