<?xml version="1.0" encoding="UTF-8" standalone="no"?>
<!-- Created with Inkscape (http://www.inkscape.org/) -->
<svg
   xmlns:dc="http://purl.org/dc/elements/1.1/"
   xmlns:cc="http://creativecommons.org/ns#"
   xmlns:rdf="http://www.w3.org/1999/02/22-rdf-syntax-ns#"
   xmlns:svg="http://www.w3.org/2000/svg"
   xmlns="http://www.w3.org/2000/svg"
   xmlns:sodipodi="http://sodipodi.sourceforge.net/DTD/sodipodi-0.dtd"
   xmlns:inkscape="http://www.inkscape.org/namespaces/inkscape"
   width="210mm"
   height="297mm"
   id="svg1901"
   sodipodi:version="0.32"
   inkscape:version="0.46+devel"
   sodipodi:docname="brown_rat.svg"
   sodipodi:docbase="/home/tsoots/ohj/translations/po"
   inkscape:output_extension="org.inkscape.output.svg.inkscape"
   inkscape:dataloss="true">
  <defs
     id="defs1903">
    <inkscape:perspective
       sodipodi:type="inkscape:persp3d"
       inkscape:vp_x="0 : 526.18109 : 1"
       inkscape:vp_y="0 : 1000 : 0"
       inkscape:vp_z="744.09448 : 526.18109 : 1"
       inkscape:persp3d-origin="372.04724 : 350.78739 : 1"
       id="perspective4169" />
    <inkscape:perspective
       id="perspective4311"
       inkscape:persp3d-origin="0.5 : 0.33333333 : 1"
       inkscape:vp_z="1 : 0.5 : 1"
       inkscape:vp_y="0 : 1000 : 0"
       inkscape:vp_x="0 : 0.5 : 1"
       sodipodi:type="inkscape:persp3d" />
  </defs>
  <sodipodi:namedview
     id="base"
     pagecolor="#ffffff"
     bordercolor="#666666"
     borderopacity="1.0"
     inkscape:pageopacity="0.0"
     inkscape:pageshadow="2"
     inkscape:zoom="0.79668962"
     inkscape:cx="516.03512"
     inkscape:cy="887.98922"
     inkscape:document-units="px"
     inkscape:current-layer="layer1"
     gridtolerance="10000"
     inkscape:window-width="1278"
     inkscape:window-height="751"
     inkscape:window-x="0"
     inkscape:window-y="0"
     showgrid="false" />
  <metadata
     id="metadata1906">
    <rdf:RDF>
      <cc:Work
         rdf:about="">
        <dc:format>image/svg+xml</dc:format>
        <dc:type
           rdf:resource="http://purl.org/dc/dcmitype/StillImage" />
      </cc:Work>
    </rdf:RDF>
  </metadata>
  <g
     inkscape:label="Taso 1"
     inkscape:groupmode="layer"
     id="layer1"
     style="opacity:1">
    <path
       style="fill:#d4d4d4;stroke:none;stroke-width:1px;stroke-linecap:butt;stroke-linejoin:miter;stroke-opacity:1;fill-opacity:1"
       d="m 586.34179,142.839 c 1.88606,3.32834 4.77062,5.76912 4.77062,5.76912 l -0.22189,-10.87257 c 0,0 -4.4377808,1.9970014 -4.5487254,5.103448 z m 30.62069,7.21139 C 619.864,148.55111 621.97484,146.26116 623.39726,143.28278 621.60976,139.46148 618.7434,137.7979 616.40776,135.07288 616.03356,140.09116 614.8441,145.04328 616.96248,150.05039 z"
       id="path4862"
       sodipodi:nodetypes="cccccccccc" />
    <path
       style="fill:#ffffff;stroke:none;stroke-width:1px;stroke-linecap:butt;stroke-linejoin:miter;stroke-opacity:1;fill-opacity:1"
       d="m 593.22035,142.839 c 1.10945,-6.43478 4.54873,-8.87556 9.98501,-8.98651 5.43628,-0.11094 12.98051,4.10495 12.75862,8.65368 -0.22189,4.54872 -2.9955,9.985 -8.20989,10.09595 -5.2144,0.11094 -14.64468,-9.54123 -14.53374,-9.76312 z"
       id="path4860" />
    <path
       style="opacity:1;color:#000000;fill:#a68f82;fill-opacity:1;fill-rule:nonzero;stroke:none;stroke-width:1;marker:none;marker-start:none;marker-mid:none;marker-end:none;visibility:visible;display:inline;overflow:visible;enable-background:accumulate"
       d="M 244.46875 40.28125 C 221.53706 41.098078 199.61792 49.028431 178.1875 56.6875 C 151.39927 66.224485 126.0894 82.277816 110.03125 106.15625 C 96.44537 124.95611 90.921554 147.94059 84.96875 169.96875 C 82.569284 184.83541 84.011925 200.02719 86.09375 214.78125 C 88.091177 236.33913 76.03962 256.24044 76.65625 277.65625 C 77.678979 291.75703 86.287585 304.39657 96.125 314.15625 C 113.1564 328.77829 135.63211 334.70354 156.90625 340.34375 C 178.30668 344.42348 199.706 350.10921 221.5625 350.5 C 255.52956 349.56584 287.79175 333.19347 322.0625 336.90625 C 340.30533 338.34332 357.38338 345.10831 373.59375 353.25 C 393.31906 361.70326 412.90264 370.87101 433.1875 377.75 C 436.13431 378.21936 443.30086 379.72222 442.21875 374.59375 C 438.52348 368.96888 431.06335 366.92732 425.75 363.03125 C 394.15777 345.26037 361.58617 324.71915 324.34375 323.09375 C 301.6084 321.75878 279.13154 326.91237 257.65625 333.59375 C 233.76843 339.57486 208.7634 337.19429 184.65625 334.09375 C 162.94424 328.49442 141.59691 320.75042 121.53125 310.625 C 111.01659 304.69422 98.423494 296.64104 97.15625 283.40625 C 97.989963 271.24448 106.31862 258.47154 118.65625 255.5625 C 141.45533 252.4504 163.71654 261.08706 185.71875 265.71875 C 191.124 267.69984 198.59175 268.77021 202.28125 263.21875 C 205.7641 259.42222 210.89539 256.81297 213.34375 252.25 C 216.16233 249.5861 221.92843 248.7595 225.90625 247.0625 C 240.68348 242.42613 256.6131 242.53983 272.03125 242.875 C 287.63182 244.52415 300.48351 255.31072 315.1875 260.3125 C 342.39527 271.32745 372.07775 273.56368 400.875 277.75 C 414.14581 278.81848 427.60579 281.90602 440.90625 279.9375 C 455.44286 276.3052 461.31153 260.83394 468 249.09375 C 474.61079 236.43818 484.14966 224.96783 497.375 218.9375 C 501.30916 217.95976 502.63953 213.47215 506.40625 212.75 C 516.22386 215.96684 525.90466 220.02925 536.40625 220.75 C 557.76244 224.12797 579.48081 220.82945 599.875 214.21875 C 614.20695 209.55363 629.49549 206.59097 642.5 198.8125 C 645.28948 196.33341 637.63667 196.28935 642.0625 195.625 C 649.62945 193.40623 658.98798 192.8888 664.625 186.75 C 665.70931 183.12077 661.92361 179.63105 663.90625 175.8125 C 664.83221 171.06793 670.00198 169.9403 672.78125 166.78125 C 673.23293 160.8364 666.99518 156.83178 663.15625 153.15625 C 651.90348 147.36197 639.21875 143.07535 629.21875 135.15625 C 625.43098 130.70928 621.84627 125.82962 616.03125 123.8125 C 589.57938 111.97372 560.24756 108.62874 531.59375 106.46875 C 529.48696 105.95796 524.60396 106.88192 527.46875 109.75 C 526.85398 109.18388 526.20323 108.63134 525.53125 108.125 C 522.53851 105.55934 520.02837 102.49717 516.84375 100.15625 C 515.20883 99.21346 513.74988 97.985729 512.28125 96.8125 C 508.6838 94.036613 504.52651 91.563972 499.875 91.3125 C 497.17286 91.170821 494.48003 90.949206 491.78125 90.875 C 491.64509 90.906068 491.51114 90.937684 491.375 90.96875 C 491.13954 91.113048 491.02513 91.316056 490.96875 91.53125 C 489.37019 91.267694 486.73127 92.423092 485.96875 93.53125 C 480.2921 97.085743 480.6148 104.44119 483.03125 109.875 C 485.81704 118.91196 493.66337 125.8432 501.875 130.0625 C 508.12023 132.56654 515.42273 134.54034 521.03125 137.5625 C 509.98148 134.3112 498.51297 130.64346 489.28125 123.5 C 485.06719 121.50314 480.98693 126.64198 476.8125 127.09375 C 455.06241 133.4684 431.89155 128.91447 409.84375 126.15625 C 400.95887 125.27981 392.45931 121.75976 386.78125 114.5625 C 372.42824 99.505424 361.73577 80.525764 343.4375 69.5 C 327.31206 56.789688 308.66005 47.188035 288.3125 43.53125 C 273.90823 40.849896 259.12208 40.27825 244.46875 40.28125 z M 495.625 93.3125 C 495.961 93.313617 496.29027 93.327951 496.625 93.375 C 502.02277 93.961925 507.53847 95.689013 511.6875 99.34375 C 515.07093 102.50983 518.39905 105.76988 521.78125 108.9375 C 525.50663 112.4954 529.11216 116.17833 532.6875 119.875 C 533.33396 120.4285 533.64395 121.35494 534.40625 121.75 C 534.60047 121.86149 534.7983 121.86936 535 121.8125 C 534.99005 122.81816 534.74056 123.86263 534.125 124.96875 C 532.03252 130.69505 525.61905 135.18835 519.59375 132.3125 C 506.573 128.78409 491.29384 121.19864 489.09375 106.46875 C 487.82439 101.95082 488.96291 97.532068 491.90625 93.96875 C 492.14687 94.095585 492.42145 94.128246 492.71875 94 C 493.6216 93.518547 494.61699 93.309149 495.625 93.3125 z M 606.15625 131.84375 C 613.44662 131.86389 619.96052 137.09058 623.25 143.1875 C 617.2139 154.97475 598.85988 158.23241 590 147.71875 C 588.18228 145.57454 583.98891 142.46927 588 140.0625 C 592.40449 135.40781 597.98359 131.57177 604.6875 131.90625 C 605.17976 131.85992 605.67023 131.84241 606.15625 131.84375 z "
       id="path4841" />
    <path
       style="opacity:1;color:#000000;fill:#e8af89;fill-opacity:1;fill-rule:nonzero;stroke:none;stroke-width:1;marker:none;marker-start:none;marker-mid:none;marker-end:none;visibility:visible;display:inline;overflow:visible;enable-background:accumulate"
       d="M 461.39918,266.07309 C 458.48328,268.74787 456.48543,272.3753 453.16955,274.68969 449.03824,277.93464 443.8703,279.62978 439.21139,281.92607 438.04206,283.63417 441.14298,284.06356 442.15941,284.80294 452.28151,289.12775 463.01558,291.89007 473.73656,294.22079 479.8382,295.58872 485.62906,298.08295 491.23577,300.84687 492.747,301.2707 494.73115,302.6544 496.15236,301.52252 496.76,299.65076 494.50712,298.40167 493.42624,297.19798 491.49375,295.49304 489.30432,294.0631 486.8855,293.15783 490.59265,293.66349 494.608,294.07747 497.3193,296.95283 498.70961,297.8587 499.97474,299.68505 501.80073,299.62992 503.51641,299.05344 501.94974,297.07712 501.50655,296.47232 502.73288,297.7723 505.73893,298.57333 506.54694,296.51155 506.61637,294.8803 504.57546,294.26234 503.94829,292.91267 502.74653,291.58925 503.80566,292.57337 504.57589,293.01073 505.74413,294.03784 508.00851,292.93505 507.05686,291.33387 504.87479,287.41694 501.37254,283.8654 496.99569,282.55732 490.76394,281.77157 484.31625,281.93864 478.23643,280.42938 474.06371,278.5997 471.04446,274.96956 467.82224,271.87837 465.84747,270.00278 464.55968,267.11995 461.91891,266.03387 461.74533,266.01669 461.56808,266.01646 461.39918,266.07309 z"
       id="path4847" />
    <path
       style="opacity:1;color:#000000;fill:#e8af89;fill-opacity:1;fill-rule:nonzero;stroke:none;stroke-width:1;marker:none;marker-start:none;marker-mid:none;marker-end:none;visibility:visible;display:inline;overflow:visible;enable-background:accumulate"
       d="M 217.29337,252.32872 C 214.07132,253.22568 211.81599,256.07737 209.23312,258.05113 205.94914,261.32824 201.31534,263.64729 199.28918,267.95981 198.48726,269.66908 200.25941,271.0778 201.87802,270.82322 207.06431,270.83277 211.53865,274.11768 216.52849,275.23601 222.56415,277.17588 229.22209,277.52433 234.52927,281.23155 237.58978,283.70262 238.25597,287.89122 240.5831,290.84749 242.10504,291.90402 242.99682,289.68206 242.60318,288.46458 242.44488,283.19947 239.19333,278.46808 234.7288,275.83419 234.33253,275.5454 232.77702,274.18357 234.09139,274.65744 238.2622,275.6737 242.24299,277.7909 244.87952,281.28335 246.84055,283.11227 248.35069,285.74722 250.87961,286.82694 252.97403,286.8993 252.69479,284.17117 251.92888,282.94369 249.25363,276.64446 243.49352,272.24493 237.16074,270.0093 236.40068,269.59867 235.06197,269.27156 234.63074,268.72469 238.89227,266.84237 243.74097,268.29029 248.04562,269.26403 251.71444,270.54309 254.8526,274.21153 259.02857,273.51993 260.89946,272.82059 259.55251,270.67199 258.49903,269.88182 257.6096,268.95711 256.67188,268.08017 255.62582,267.34202 256.95443,268.1047 258.70083,266.51906 257.51841,265.2533 254.34841,261.93352 250.00427,259.80122 245.74116,258.18302 240.21096,256.61858 234.10861,258.08377 228.85332,255.49505 225.07364,254.29954 221.30867,252.34543 217.29337,252.32872 z m 0,0 M 248.06523,263.44896 C 248.85817,263.47045 250.23819,264.17673 250.44814,264.38054 249.62136,263.96508 248.74636,263.63987 247.8495,263.41954 z"
       id="path4849" />
    <path
       style="opacity:1;color:#000000;fill:#da9155;fill-opacity:1;fill-rule:nonzero;stroke:none;stroke-width:1;marker:none;marker-start:none;marker-mid:none;marker-end:none;visibility:visible;display:inline;overflow:visible;enable-background:accumulate"
       d="M 672.65421,167.41289 C 668.66792,168.2166 665.16206,171.23928 663.45599,174.89502 662.09859,178.36554 662.50725,183.19658 665.91734,185.31901 667.89318,185.65119 668.80273,183.14212 669.87539,181.91913 671.98974,178.24529 674.5342,174.33485 674.51738,169.94289 674.54792,168.75155 674.24636,167.14615 672.65421,167.41289 z"
       id="path4851" />
    <path
       style="opacity:1;color:#000000;fill:#7b6356;fill-opacity:1;fill-rule:nonzero;stroke:none;stroke-width:1;marker:none;marker-start:none;marker-mid:none;marker-end:none;visibility:visible;display:inline;overflow:visible;enable-background:accumulate"
       d="M 532.5824,90.751916 C 529.57551,90.69799 528.89352,94.240383 528.80427,96.605422 528.77142,99.672219 528.39765,103.09016 529.8857,105.85347 532.09322,107.05303 534.87406,106.4926 537.30899,106.83409 544.83942,107.2291 552.26771,108.45918 559.75539,109.18758 561.64425,108.76178 560.32852,106.5399 559.72597,105.56909 557.6,101.49843 554.54117,97.725388 550.09628,96.125715 545.19494,94.012794 540.07601,92.552316 534.97512,91.055909 534.18774,90.898062 533.3898,90.716739 532.5824,90.751916 z"
       id="path4853" />
    <path
       style="opacity:1;color:#000000;fill:#e6ab7e;fill-opacity:1;fill-rule:nonzero;stroke:none;stroke-width:1;marker:none;marker-start:none;marker-mid:none;marker-end:none;visibility:visible;display:inline;overflow:visible;enable-background:accumulate"
       d="M 495.25019,92.673932 C 490.73137,92.747223 488.32043,97.586275 488.12643,101.57704 487.37868,110.72188 492.69919,119.49204 500.26116,124.34797 506.6754,128.61839 514.00322,131.28947 521.36411,133.4089 523.93603,133.82679 526.99782,134.15684 528.88547,131.93797 531.73735,129.47051 535.33665,126.1577 534.44558,121.99448 532.30893,118.37578 528.94405,115.64215 526.2574,112.43343 522.30394,108.05551 517.70724,104.45971 513.50229,100.34747 510.05673,96.894396 505.69363,94.506951 500.92798,93.438816 499.0755,92.978404 497.16545,92.639624 495.25019,92.673932 z"
       id="path4855" />
    <path
       style="fill:#000000"
       d="m 435.47452,379.13129 c -4.83984,-1.55887 -9.48901,-3.33028 -14.26315,-5.06622 -7.90715,-4.0636 -16.4122,-6.68836 -24.58802,-10.11623 -5.36304,-2.57186 -10.89399,-4.77578 -16.39662,-7.05073 -8.6296,-3.95028 -16.94625,-8.63096 -26.03077,-11.49384 -4.67817,-1.92901 -9.73358,-2.92314 -14.65288,-4.09872 -4.85362,-1.4873 -9.83184,-2.4878 -14.91078,-2.93801 -8.07571,-0.77963 -16.22048,-1.89034 -24.31266,-0.72958 -7.43098,1.14702 -14.84747,2.41127 -22.2679,3.61093 -9.60425,1.84111 -18.96739,4.90989 -28.68005,6.20636 -11.3275,3.44018 -23.28823,3.80042 -35.03389,3.34217 -9.80121,-0.85707 -19.62773,-1.79351 -29.22746,-3.98723 -8.09048,-1.43904 -16.03836,-3.57446 -24.14031,-4.94108 -7.28943,-1.57261 -14.53514,-3.45749 -21.63105,-5.78396 -8.74467,-2.24145 -17.32794,-5.26202 -25.32216,-9.5224 -9.33306,-4.69194 -18.717097,-10.27357 -24.986626,-18.87079 -4.610932,-4.94896 -8.648007,-10.50587 -10.794254,-16.967 -2.584199,-6.62317 -4.102786,-13.76381 -2.998604,-20.87803 0.726528,-5.52082 1.173186,-11.0883 2.93226,-16.40779 2.097779,-10.02866 5.034073,-19.88888 6.637073,-30.0111 0.527154,-6.31487 -0.421627,-12.58161 -1.614951,-18.75834 -0.881717,-9.51612 -1.152851,-19.15396 -0.328986,-28.67745 0.977286,-6.20706 3.312555,-12.09162 4.826558,-18.18429 3.932435,-11.39743 6.130866,-23.43101 11.429904,-34.32447 2.602156,-5.12858 5.363026,-10.17512 8.814496,-14.78821 2.44136,-4.29658 4.75004,-8.721622 8.45807,-12.107207 5.52592,-6.459783 11.65874,-12.542099 18.61634,-17.436163 3.64305,-3.012104 6.99516,-6.102588 11.30337,-8.156949 10.27825,-5.523404 20.65363,-10.940391 31.70467,-14.76069 5.31946,-2.204206 10.71874,-4.308507 16.19173,-6.066393 16.01645,-3.355695 31.46369,-10.195164 48.06428,-10.141528 12.67323,-0.472774 25.36336,0.499176 37.96649,1.727387 7.87684,1.091808 15.63557,2.792642 23.25785,5.074072 5.4488,1.813417 10.77448,4.005181 15.94213,6.517136 5.61583,2.893752 11.10769,6.043361 15.92467,10.159411 6.85114,4.980543 14.19174,9.285827 20.81256,14.556896 3.86686,4.08232 8.61531,7.467816 11.61888,12.333154 4.47975,5.847578 8.72388,11.887714 13.94958,17.111264 5.19244,5.3809 10.12585,11.58415 17.13269,14.64913 11.72576,4.29967 24.16856,6.06291 36.58323,6.7852 8.51696,1.30001 17.14726,1.08885 25.6686,-0.03342 7.37777,-0.62603 14.90529,-1.69233 21.38743,-5.54524 3.46882,-0.93195 5.09214,-3.37693 1.92607,-5.98574 -2.55694,-4.28019 -4.78338,-8.82398 -4.80573,-13.92265 -0.47399,-4.66961 2.22778,-9.688351 6.25068,-12.11151 4.33778,-0.791751 9.02343,-0.674351 13.54032,-0.499164 5.51025,0.085495 10.24051,3.256017 14.3672,6.531588 3.0326,2.145546 6.13849,4.396626 8.70288,7.224046 1.14055,1.92433 2.82248,2.186 4.76142,1.17236 0.88014,-3.8058 -0.72502,-9.060022 -0.03998,-13.436373 2.87129,-5.332793 9.84669,-2.738853 14.08601,-0.746897 4.59481,2.110835 9.45119,3.930881 13.61689,6.807806 4.14708,2.465524 4.29416,8.709444 8.51284,10.641154 6.95032,1.49366 14.17973,1.41456 21.00603,3.58138 8.64391,2.07165 17.26455,4.36549 25.51828,7.72763 6.38189,2.04967 13.92512,3.70682 17.7496,9.70101 1.65672,4.39308 5.1476,7.57762 9.58225,9.06658 7.86269,4.19672 15.3218,9.26359 23.87406,12.00239 4.81438,1.31519 7.34657,5.6854 10.25176,9.23012 1.92916,5.47726 7.80373,0.99667 11.99595,2.06254 2.60006,-0.44576 7.05911,3.59661 2.13507,1.54042 -3.11691,-1.14644 -9.59036,-1.36811 -11.19418,1.00555 1.99284,4.6663 0.79696,9.73213 -1.99089,13.72596 4.9094,1.60768 10.7616,2.02147 14.09839,6.58139 1.23951,3.6999 -3.52361,-2.95011 -5.37452,-3.17926 -4.15628,-1.4778 -9.95704,-4.18141 -11.78796,1.69815 -4.87496,5.95318 -12.09959,9.9343 -19.65919,11.11909 -4.07476,4.03617 -8.55231,7.90228 -14.17456,9.62827 -5.57495,2.4466 -11.33729,4.47835 -17.18525,6.0875 -5.41614,2.30187 -11.32305,3.17273 -16.74601,5.3879 -5.35482,2.01563 -10.82077,4.02912 -16.60486,4.41303 -4.64261,1.80074 -9.68129,1.79497 -14.51268,2.85673 -5.62278,1.36778 -11.46825,0.69448 -17.20009,0.82545 -9.75797,-0.66739 -19.50804,-1.89055 -29.11208,-3.76557 -5.95118,-1.43248 -11.86516,-3.05839 -17.46432,-5.53619 -2.30408,-1.41364 -3.08346,2.63205 -5.12803,3.05957 -4.89098,2.56516 -9.85669,5.00523 -14.28701,8.32485 -4.63478,2.77214 -6.84428,8.09493 -10.77014,11.68075 -3.81292,5.52198 -7.12909,11.42064 -9.98213,17.49992 -0.53522,4.21528 -6.4171,8.95065 -1.72636,12.37917 2.71841,3.8118 5.97532,6.85057 9.59284,9.74257 3.49902,4.1937 8.98752,2.64659 13.61906,3.92231 4.3259,1.02527 9.81354,-1.26542 13.14758,2.47758 2.80818,2.72667 8.68883,5.57915 6.56664,10.22702 0.57486,2.65152 -0.91286,5.16038 -3.5941,5.20364 -2.09845,5.16908 -6.90443,-3.35659 -10.17549,-4.06094 -1.5447,-1.27405 -4.49608,-1.14134 -1.22219,0.6284 1.93272,1.68726 6.87014,4.76417 2.86419,6.87112 -4.46092,-0.22995 -7.86506,-4.04879 -12.20111,-5.06775 -9.5883,-4.11948 -20.22311,-4.6467 -29.90229,-8.42845 -5.62214,-1.29241 -10.61375,-4.30061 -16.03786,-6.07118 -10.25408,-0.29506 -20.46745,-1.4045 -30.69003,-2.10078 -5.32091,0.22982 -10.43934,-1.32449 -15.69009,-1.86782 -7.64215,-1.12068 -15.2363,-2.71546 -22.79616,-4.27485 -6.09716,-0.94312 -12.39517,-0.79719 -18.25275,-2.98635 -7.15121,-1.49289 -14.28029,-3.02371 -21.30645,-5.03733 -7.02498,-1.51436 -13.34501,-5.12864 -19.94386,-7.79639 -4.24562,-2.41663 -8.89075,-3.96485 -13.24976,-6.14596 -5.99763,-2.28279 -11.43251,-6.09041 -17.63496,-7.79714 -5.32509,-1.10014 -10.83838,-1.48706 -16.24681,-1.50792 -9.02584,0.78334 -18.09621,1.39837 -26.98778,3.27917 -4.53259,0.59554 -9.14026,1.57037 -13.32211,3.43702 -4.38515,2.85424 6.63345,3.1649 8.71348,4.94448 5.13624,2.14671 10.94733,0.94498 16.24392,2.20565 4.34151,2.1366 8.98803,4.1728 12.30176,7.8172 0.25287,2.45052 -0.71458,3.94436 1.82881,5.60871 1.83008,5.89716 -5.77114,3.27224 -8.19208,1.25951 -3.85108,-2.89297 -8.98013,-3.97434 -13.71766,-3.71362 -3.727,1.02606 4.28456,2.66537 5.5014,3.96968 4.35475,2.3476 6.91075,6.93119 9.0495,11.27584 2.30716,3.98935 -3.04467,6.09032 -4.81446,2.04589 -3.34742,-3.79065 -6.16474,-8.6063 -11.58572,-9.60146 3.633,2.96478 6.9708,7.67873 6.57812,12.94822 0.52492,5.24825 -5.34102,2.68156 -4.9748,-1.24848 -1.57539,-6.29974 -8.17936,-9.63484 -14.15375,-10.40001 -5.62909,-1.19452 -11.15755,-2.77507 -16.32006,-5.37354 -5.62845,-1.99637 -11.76729,-2.10628 -17.5227,-3.8061 -8.39604,-2.21265 -16.9803,-3.57983 -25.39777,-5.69737 -6.20211,-0.71077 -11.8677,-3.69166 -18.1366,-4.04821 -7.57226,-1.38442 -15.23048,-3.5075 -22.98306,-2.22779 -5.11081,0.04101 -10.1841,1.55203 -13.87511,5.23171 -4.00782,3.49185 -7.74661,7.56194 -9.13836,12.83977 -2.097136,5.28987 -3.390714,11.68147 -0.43958,16.91478 2.82168,7.1215 9.48363,11.85695 15.82263,15.73468 7.77864,4.02412 15.27671,8.67696 23.65353,11.40381 10.12688,4.30932 20.62873,7.63524 30.9859,11.29323 3.76048,0.39724 7.76232,2.25502 11.94098,2.45253 7.90836,1.55126 15.91792,2.28475 23.95269,2.75111 5.64903,0.79589 11.41953,-0.20208 17.12083,0.13107 6.1039,0.30358 12.13054,-0.61011 18.21353,-0.89748 4.18778,-0.45547 8.28213,-1.33485 12.51753,-1.41405 5.32519,-0.94212 10.55332,-2.48807 15.75111,-4.01658 4.69743,-1.49201 9.69186,-1.67873 14.39788,-3.23178 6.2668,-1.11974 12.53239,-2.38772 18.87039,-2.94078 7.40072,-0.34489 14.79346,-0.7606 22.21064,-0.42237 9.3939,0.28927 18.60017,2.6371 27.6958,4.82778 11.12866,3.43559 21.78793,8.30603 32.08481,13.71562 10.22112,3.91768 19.4698,9.89461 29.05235,15.1243 8.74901,5.4894 18.33218,9.56178 26.59506,15.78019 6.18996,3.84077 -0.50551,10.07169 -5.63891,7.50889 z m 0,0 m 6.22116,-1.82364 c 1.69303,-4.99149 -5.19995,-6.68351 -8.23636,-9.26948 -7.11305,-4.50445 -14.85906,-7.92777 -21.84128,-12.64871 -8.77545,-4.74655 -17.23372,-10.16015 -26.61291,-13.68364 -13.83458,-7.21021 -28.30048,-13.79887 -43.82076,-16.29772 -13.09916,-2.99525 -26.66011,-2.4673 -39.95064,-1.32309 -10.62692,1.20982 -21.12367,3.40316 -31.39808,6.3319 -4.80099,2.52009 -10.29612,2.95331 -15.3783,4.62968 -7.57352,1.14607 -15.07736,3.15264 -22.80314,2.80711 -9.23911,0.27599 -18.44914,-0.59622 -27.67431,-0.91418 -6.6911,-0.52204 -13.55117,-0.68431 -20.03268,-2.61494 -4.86002,0.40033 -8.76623,-2.11779 -13.29531,-3.386 -10.0599,-3.48725 -20.22464,-6.73948 -30.03414,-10.87864 -6.00319,-2.46201 -12.1424,-4.68272 -17.70663,-8.06863 -8.62899,-4.33483 -17.48166,-9.33473 -22.7468,-17.77126 -2.655993,-4.06711 -3.994982,-8.91816 -3.504993,-13.73481 1.60611,-7.92241 5.413793,-15.72444 11.896963,-20.78986 5.46754,-4.87661 13.20374,-5.52236 20.1972,-5.82094 6.46712,0.11976 12.8899,1.28942 19.25557,2.29061 9.66749,1.73888 19.03257,4.83137 28.67271,6.72302 4.37119,0.40531 8.34636,2.28056 12.56377,3.23311 4.40928,1.32971 8.58854,2.18225 11.43633,-2.37177 4.24684,-3.2828 7.86114,-7.31577 12.1644,-10.49986 3.2966,-1.6091 -4.57449,-1.52672 0.63708,-2.29912 4.75478,-0.97844 8.87778,-3.94119 13.62283,-5.01525 6.53038,-2.23044 13.47716,-2.51181 20.25469,-3.5054 7.32287,-0.07147 14.62957,-1.11642 21.95163,-0.72336 4.60623,0.57142 9.46578,0.94219 13.69211,2.83633 4.62047,1.90998 9.23017,4.03857 13.5619,6.59182 6.04478,2.59485 11.4574,6.66872 17.90024,8.40911 8.64407,3.55653 17.40203,6.96885 26.68027,8.42982 5.05909,0.59436 9.94405,1.95593 14.89347,3.02678 6.6449,0.45436 13.07901,2.34435 19.72895,2.8378 6.42896,1.34093 12.97371,1.74089 19.46266,2.64795 8.46572,2.15453 17.26795,1.23873 25.81242,2.82852 6.92917,1.20727 14.16685,1.49562 21.07516,0.08788 4.6351,-1.62673 8.53313,-4.89624 12.23224,-8.0037 4.71925,-5.10681 7.38437,-11.53853 10.45709,-17.66343 5.63269,-10.82132 11.45957,-22.48007 22.12866,-29.1941 3.89536,-2.76565 7.88695,-5.39234 12.34554,-7.15881 3.85962,-1.36907 5.38943,-8.39928 9.87819,-4.33323 5.92487,2.59726 12.17104,4.5063 18.48808,5.96497 5.19707,0.79478 10.43403,1.22505 15.62457,2.05466 8.47553,0.88488 17.0928,0.76165 25.59281,-0.01831 5.33209,-1.00947 10.62246,-2.23817 16.00903,-2.92421 6.23979,-1.02245 11.81955,-4.17376 18.01124,-5.32597 4.42766,-1.06331 8.78164,-2.34663 13.06393,-3.88742 4.2304,-1.40459 8.70926,-2.27926 12.76604,-3.88828 6.01166,-1.78144 11.6832,-4.70607 16.35171,-8.89062 -1.14313,-0.44307 -8.73395,1.86014 -5.23261,-0.8749 8.91804,-1.49646 18.74733,-2.69674 25.52381,-9.31941 -3.6046,-4.06804 -3.75251,-10.77244 0.40411,-14.64385 1.57176,-2.75155 6.60241,-2.6845 7.43306,-4.82065 -1.31187,-4.67991 -4.97959,-8.41289 -8.32679,-11.79986 -4.29077,-3.05846 -9.6623,-3.73106 -14.08514,-6.5293 -5.45251,-2.85642 -10.54091,-6.52595 -16.55564,-8.12342 -5.01125,-1.35409 -6.82807,-6.09375 -9.67984,-9.78388 -2.51765,-4.12839 -7.41492,-5.40423 -11.45489,-7.39523 -6.5179,-2.31679 -13.0106,-4.87246 -19.69968,-6.68805 -8.40867,-2.17321 -16.86725,-4.56024 -25.59119,-5.10612 -9.31844,-1.81689 -18.78992,-2.7326 -28.23979,-3.6258 -4.47967,-0.04285 -9.34916,-1.19269 -13.59252,0.36806 3.22839,2.97497 6.11195,6.5104 8.56497,10.2559 1.52931,1.26513 2.20021,5.09907 0.04303,1.83963 -2.93969,-4.01064 -5.66247,-8.31078 -9.81938,-11.16865 -3.43115,-2.95701 -6.1209,-6.76974 -10.24831,-8.926486 -4.26492,-3.652313 -9.08989,-7.311559 -14.94118,-7.647694 -4.69783,0.161503 -10.92245,-1.953032 -14.27472,2.46076 -4.29562,2.525905 -5.17812,8.74236 -2.50172,12.74931 1.54602,8.78321 7.85343,16.31242 15.55998,20.57453 7.79493,3.54633 15.95672,6.3122 24.04668,9.05913 1.48189,2.82802 -5.55528,0.29709 -7.17709,-0.4212 -6.8435,-2.19747 -13.49503,-5.04983 -19.98696,-8.09841 -3.46339,-2.2008 -6.87934,-7.99778 -10.94606,-3.52935 -4.77904,1.5474 -9.19047,4.3177 -14.35934,4.60418 -8.50819,1.80085 -17.32253,1.06876 -25.9694,1.16935 -8.31621,-0.84162 -16.72287,-1.31379 -24.9572,-2.70042 -5.30855,-1.11691 -10.79976,-0.93435 -16.0138,-2.59651 -4.49467,-0.63994 -8.97356,-2.81062 -12.12924,-5.66726 -7.36656,-7.64262 -14.74164,-15.394 -20.62363,-24.271796 C 363.6031,87.214976 356.97653,78.481459 347.66583,73.034114 341.2809,68.891198 335.16404,64.349018 329.03999,59.819351 313.2288,49.386928 294.53235,44.028973 275.80954,42.049358 262.76559,41.207191 249.67929,39.950771 236.61145,41.11958 c -7.36686,0.383884 -14.46201,2.680778 -21.60033,4.373567 -7.38726,2.046575 -14.72603,4.390891 -22.24216,5.857929 -9.12306,3.692718 -18.48845,6.871991 -27.42354,11.013765 -9.86187,4.700155 -19.98613,9.294959 -28.37419,16.431911 -5.79741,3.526274 -10.39559,8.588688 -15.22077,13.285549 -4.09862,4.754438 -8.81377,9.060169 -11.6435,14.763589 -2.94432,5.21806 -6.84334,9.83178 -9.18364,15.4045 -4.566687,8.42392 -6.760641,17.75366 -9.418736,26.89457 -2.563367,7.78979 -4.982447,15.65872 -6.765864,23.67193 -0.615774,4.59166 -0.546607,9.23853 -0.895641,13.86301 -0.076624,8.33475 1.05037,16.58331 2.634341,24.7448 0.921691,6.61791 1.367657,13.41185 -0.491189,19.91737 -1.683841,7.43565 -2.757179,15.04012 -5.508816,22.19158 -1.732686,6.00625 -3.319708,12.1056 -3.274261,18.41389 -0.828276,7.46823 0.851756,15.13293 4.126227,21.82938 3.58279,4.64603 5.799949,10.18713 9.684713,14.6423 8.329837,10.12386 20.384886,15.97965 32.086116,21.28972 4.4989,1.76654 9.06913,3.44253 13.81933,4.45683 11.5224,4.00046 23.47606,6.60618 35.44165,8.92584 7.7633,1.75945 15.58888,3.30228 23.41352,4.71228 11.6768,1.42555 23.48685,3.35529 35.25403,1.76123 10.06138,-0.27309 19.56322,-3.97311 29.43679,-5.49994 10.16721,-2.85974 20.57326,-4.8553 30.96057,-6.7844 15.18023,-3.04433 30.90526,-2.00954 45.92281,1.43233 11.18195,2.1289 21.64226,6.77681 31.82539,11.73234 7.08533,3.88742 14.56484,6.99104 22.05628,9.99121 10.33447,5.02322 21.38758,8.33353 31.78109,13.23257 5.57696,1.7814 11.09439,4.97685 17.12535,4.39183 l 0.64685,-0.18529 0.91182,-0.56814 z m 0,0 M 597.58856,197.11981 c 4.7387,-4.28189 10.879,-6.62961 16.40377,-9.73159 9.19215,-3.71413 17.08596,-10.39293 27.01123,-12.2875 3.49981,-0.5594 9.21576,-2.45528 11.64229,-1.42343 -8.1095,1.03501 -16.37113,2.47293 -23.5798,6.58523 -4.80408,2.6122 -9.36505,5.68379 -14.52244,7.60327 -5.67349,2.88552 -11.42339,5.70915 -16.53713,9.53287 l -0.38815,0.07015 -0.02976,-0.349 z m 0,0 m -79.11084,-9.82988 c 1.75142,-0.28 -0.1705,0.437 0,0 z m 0,0 M 359.54721,170.48534 c 0.50526,-1.29025 0.68101,0.85483 0,0 z m 0,0 m 235.04239,-0.82978 c 3.80322,-3.14841 8.75564,-5.08976 13.58631,-6.19727 6.2494,-1.58256 12.76655,-1.64876 19.13675,-2.2589 5.94015,0.11296 11.74357,1.41424 17.21597,3.7031 1.92508,-0.21665 5.51829,2.83691 1.56468,1.03668 -5.34868,-1.60405 -10.56108,-4.12625 -16.29861,-3.95033 -8.62803,0.09534 -17.43571,0.65297 -25.71548,3.22724 -3.26768,0.91803 -6.73759,3.82472 -9.48962,4.43948 z m 0,0 m 4.67627,-15.30352 c -4.56528,-1.30204 -8.30704,-4.69841 -11.52016,-8.1034 -3.03559,-3.09915 -2.68888,-5.14934 0.66868,-7.41301 2.99644,-3.20858 6.56052,-6.02571 10.92046,-6.97587 4.27638,-1.70188 9.30337,-0.90781 13.56656,0.5487 5.12179,1.53669 7.95923,6.50298 11.13231,10.43193 -1.57026,4.65829 -6.00195,7.94534 -10.32279,9.99418 -4.46598,1.99745 -9.68412,2.68162 -14.44509,1.51746 z m 0,0 m 10.42682,-4.33638 c 0.89936,-3.69603 -6.99812,0.33401 -1.82381,0.4884 0.5939,-0.03003 1.45124,0.14091 1.82381,-0.4884 z m 0,0 m 9.92682,-2.45481 c 5.85393,-3.45432 0.06176,-8.54152 -2.72405,-11.10646 2.16067,3.82118 2.23282,8.63053 0.40344,12.59371 0.85912,0.17423 1.65582,-1.10743 2.32061,-1.48725 z m 0,0 m -29.41626,-1.14015 c -1.46702,-2.20822 -0.04176,-7.34872 -0.26303,-7.71478 -4.16224,1.96857 -3.15905,6.65707 0.40568,8.52545 l -0.14268,-0.81067 z m 0,0 m 23.28906,-4.65427 c -3.32944,-2.84453 -3.60312,2.31248 0,0 z m 0,0 m -6.41223,-0.98341 c 2.3572,-4.8165 -5.99707,-5.04649 -8.54139,-2.89445 -3.2028,4.63157 6.55261,3.41088 8.54139,2.89445 z m 0,0 m -85.34131,-7.08868 c -5.55253,-2.05094 -11.47199,-3.21026 -16.60179,-6.32543 -3.07048,-1.76638 -6.16069,-3.50454 -8.80962,-6.10096 -5.184,-4.65787 -8.2664,-11.38279 -8.30211,-18.36306 -0.39445,-4.802123 2.71096,-11.310336 8.36081,-10.485872 6.57455,0.606654 13.2597,2.989512 17.75149,8.017302 5.61234,5.45696 11.51462,10.60565 16.79062,16.4033 2.04601,1.91429 6.67694,5.83563 3.61421,9.34159 -3.19074,3.66253 -7.07493,9.75052 -12.80361,7.51313 z m 0,0 m 5.36285,-1.27974 c 3.08654,-2.4802 7.67893,-6.37783 6.73986,-10.56655 -3.47986,-3.97339 -7.25926,-7.75497 -10.78093,-11.69312 -5.35181,-4.15526 -9.58538,-9.62891 -15.22743,-13.41407 -4.51794,-1.904304 -9.43404,-3.87803 -14.43812,-3.0861 -5.35598,2.789604 -5.12236,9.94556 -3.92523,15.01923 2.34142,10.64126 12.54637,16.87419 21.95554,20.6453 4.92585,1.16666 9.90986,4.60838 15.03974,3.42776 l 0.63655,-0.33246 z m 0,0 m -8.60852,-4.44416 c 1.42018,-0.15522 -0.46683,0.43363 0,0 z m 0,0 m -22.8428,172.695 c -2.66231,-3.25873 -6.15383,-6.18013 -10.3177,-7.20865 -1.38012,-0.64173 -8.41133,-0.98955 -4.12641,-2.12815 4.53851,1.23233 9.09759,1.06154 13.5214,2.52226 2.30907,1.23658 6.12278,6.04408 7.69811,5.15732 -3.05781,-3.00857 -4.8846,-9.38798 -10.06698,-8.88094 -2.98954,-0.97753 -9.27161,0.32886 -10.48476,-1.64691 4.68083,-0.51012 9.41928,0.52321 14.06174,0.57745 3.09192,1.91954 6.38885,10.64209 10.19558,7.20564 -3.41382,-2.42756 -4.91923,-6.93504 -8.76087,-9.01307 -4.65398,-1.74404 -10.06379,-1.02067 -14.84883,-1.96192 3.39313,-2.09354 9.44101,-0.18885 13.76356,0.28268 4.59771,0.17862 6.47036,7.93197 10.37057,6.94174 -1.38724,-4.05054 -5.90177,-7.99684 -10.03125,-9.48699 -5.12301,0.13636 -10.16056,-0.47334 -15.22217,-1.11764 -4.79024,0.18325 -7.88392,-3.65592 -11.17789,-6.436 -3.47337,-1.95372 -5.65541,-8.07269 -8.7865,-8.73112 -2.70845,3.70373 -5.44251,7.28823 -9.2176,9.92083 -4.10755,2.10849 -8.361,4.2563 -12.77344,5.85804 3.22399,1.8201 7.05258,3.4709 10.75364,4.59288 4.80492,1.19438 9.29245,3.45524 14.25032,4.04681 5.71598,1.78392 11.81151,2.20225 17.3231,4.65769 4.87101,0.97227 8.65749,4.8981 13.56873,5.39437 l 0.21728,-0.20385 0.09037,-0.34248 z m 0,0 M 241.77603,288.29965 c -0.01351,-4.69027 -2.79657,-8.66227 -6.57429,-11.1961 -2.25416,-0.58267 -4.34215,-4.9521 -0.67425,-3.13322 4.40257,1.0007 8.38584,3.04218 11.08922,6.77814 1.33389,1.8426 7.31494,9.01728 5.91998,3.10966 -2.28494,-5.36483 -6.58823,-9.75711 -11.97042,-12.04698 -1.95632,-1.03476 -9.80545,-2.70079 -4.20682,-4.31157 4.44414,-1.40502 8.89106,0.25516 13.32829,0.8967 3.04798,1.58216 8.17551,6.05061 10.93571,4.13714 -2.47089,-3.91905 -7.20885,-6.84956 -11.66447,-8.33804 -4.29024,-1.2458 -9.88913,-0.31515 -13.43004,-1.67378 3.22926,-1.79134 8.3302,-0.06027 12.26726,0.04917 4.09588,-0.96684 8.08286,5.79376 10.68764,3.83876 -2.93244,-3.82309 -7.69717,-5.73701 -11.98168,-7.58443 -4.72642,-1.3472 -9.85036,-0.07219 -14.46924,-1.5715 -4.58017,-1.54775 -9.36074,-4.25941 -14.14748,-4.2285 -5.04034,3.04089 -8.81332,7.80602 -13.67787,11.01515 -2.0881,1.97681 -6.30198,6.57214 -0.49383,5.84384 5.40757,0.42813 9.64382,4.01536 14.94664,4.82764 4.66879,1.53327 9.61782,1.81343 14.05178,3.92779 4.23578,1.43129 6.61313,5.32176 7.98663,9.35203 0.53367,1.63586 2.64665,4.32844 2.07724,0.3081 z m 0,0 m 429.522,-110.45105 c 1.40358,-3.07975 3.42167,-6.44956 2.20746,-9.88168 -3.75822,0.68128 -7.46585,3.32527 -9.23745,6.6901 -1.54864,3.30689 -0.81991,8.60077 2.20199,10.17247 2.13512,-1.93919 3.70885,-4.32173 4.828,-6.98089 z m 0,0 M 560.00092,107.89539 c -2.1387,-4.60232 -5.14877,-9.561779 -10.37169,-10.987946 -3.6604,-2.347408 -7.74482,-2.187307 -11.35783,-4.187069 -2.27031,-0.296752 -6.16166,-2.437832 -7.76719,-0.304047 -1.63596,3.994557 -1.23482,8.714922 -0.22693,12.838792 1.45111,1.13368 4.51963,0.18671 6.47253,0.69903 7.76088,0.1168 15.35927,1.7343 23.05811,2.43816 l 0.28559,-0.13632 -0.0926,-0.3606 z m 0,0 m 22.77502,235.70468 c 0.54973,-0.97901 0.2745,1.19568 0,0 z m 0,0 M 271.92932,319.64716 c 0.72226,-1.42505 0.53014,0.65583 0,0 z m 0,0 m 318.4834,-39.64438 c -1.02141,-1.25496 1.89277,0.87057 0,0 z"
       id="path4317" />
  </g>
</svg>
