<?xml version="1.0" encoding="UTF-8" standalone="no"?>
<!-- Created with Inkscape (http://www.inkscape.org/) -->

<svg
   xmlns:dc="http://purl.org/dc/elements/1.1/"
   xmlns:cc="http://creativecommons.org/ns#"
   xmlns:rdf="http://www.w3.org/1999/02/22-rdf-syntax-ns#"
   xmlns:svg="http://www.w3.org/2000/svg"
   xmlns="http://www.w3.org/2000/svg"
   xmlns:xlink="http://www.w3.org/1999/xlink"
   xmlns:sodipodi="http://sodipodi.sourceforge.net/DTD/sodipodi-0.dtd"
   xmlns:inkscape="http://www.inkscape.org/namespaces/inkscape"
   width="729.62592"
   height="453.80682"
   id="svg1251"
   version="1.1"
   inkscape:version="0.48+devel r10019 custom"
   sodipodi:docname="New document 5">
  <defs
     id="defs1253">
    <marker
       inkscape:stockid="Arrow1Lend"
       orient="auto"
       refY="0"
       refX="0"
       id="Arrow1Lend"
       style="overflow:visible">
      <path
         id="path789"
         d="M 0,0 5,-5 -12.5,0 5,5 0,0 z"
         style="fill-rule:evenodd;stroke:#000000;stroke-width:1pt"
         transform="matrix(-0.8,0,0,-0.8,-10,0)"
         inkscape:connector-curvature="0" />
    </marker>
    <filter
       id="filter2379"
       inkscape:label="filter1"
       color-interpolation-filters="sRGB">
      <feMorphology
         id="feMorphology2381"
         operator="dilate"
         radius="7"
         result="result2" />
      <feFlood
         id="feFlood2383"
         flood-color="rgb(98,60,46)"
         result="result1" />
      <feComposite
         id="feComposite2385"
         operator="in"
         in2="result2"
         result="result3" />
      <feMerge
         id="feMerge2387">
        <feMergeNode
           inkscape:collect="always"
           id="feMergeNode2389"
           in="result3" />
        <feMergeNode
           inkscape:collect="always"
           id="feMergeNode2391"
           in="SourceGraphic" />
      </feMerge>
    </filter>
  </defs>
  <sodipodi:namedview
     id="base"
     pagecolor="#ffffff"
     bordercolor="#666666"
     borderopacity="1.0"
     inkscape:pageopacity="0.0"
     inkscape:pageshadow="2"
     inkscape:zoom="0.69177704"
     inkscape:cx="270.12926"
     inkscape:cy="-32.150855"
     inkscape:document-units="px"
     inkscape:current-layer="layer1"
     showgrid="false"
     fit-margin-top="0"
     fit-margin-left="0"
     fit-margin-right="0"
     fit-margin-bottom="0"
     inkscape:window-width="1280"
     inkscape:window-height="949"
     inkscape:window-x="0"
     inkscape:window-y="25"
     inkscape:window-maximized="1" />
  <metadata
     id="metadata1256">
    <rdf:RDF>
      <cc:Work
         rdf:about="">
        <dc:format>image/svg+xml</dc:format>
        <dc:type
           rdf:resource="http://purl.org/dc/dcmitype/StillImage" />
        <dc:title></dc:title>
      </cc:Work>
    </rdf:RDF>
  </metadata>
  <g
     inkscape:label="Layer 1"
     inkscape:groupmode="layer"
     id="layer1"
     transform="translate(-7.2342924,-40.223419)">
    <g
       style="font-size:154.51399231px;font-style:normal;font-variant:normal;font-weight:normal;font-stretch:normal;text-align:start;line-height:125%;letter-spacing:0px;word-spacing:0px;writing-mode:lr-tb;text-anchor:start;fill:#ff0000;fill-opacity:1;font-family:Choc LET;-inkscape-font-specification:Choc LET"
       id="text1259">
      <path
         d="m 74.977509,131.51342 c 0.301775,-9.10383 1.307725,-21.20037 3.017852,-36.289659 C 79.705462,80.134568 81.13894,69.974479 82.295799,64.743462 78.422876,61.5748 74.223037,57.274367 69.696269,51.842147 l 2.565174,-9.279893 c 6.337474,1.006051 11.543263,2.188042 15.617381,3.545975 l 0.829909,-2.112496 c 8.29906,2.615569 15.843677,5.356781 22.633887,8.223645 6.84041,2.867048 13.0773,6.262128 18.71068,10.185249 5.63325,3.872987 10.18517,8.525503 13.65578,13.957563 3.47044,5.381897 5.2057,11.467892 5.20579,18.258001 -9e-5,2.213138 -0.17613,4.37593 -0.52813,6.488379 -0.25157,1.55927 -1.48385,4.12444 -3.69686,7.69552 -2.16287,3.57116 -5.25617,7.56981 -9.2799,11.99596 -3.97357,4.4262 -8.62608,8.60089 -13.95756,12.52409 -3.97356,2.91726 -9.12905,5.85966 -15.46649,8.82721 -6.287223,2.91726 -12.825894,5.30639 -19.616032,7.1674 l -18.333447,-14.3348 6.941058,-3.47053 m 15.994613,-10.56248 c 7.594892,-4.82853 13.907228,-9.43075 18.937018,-13.80667 5.08,-4.42614 8.90261,-8.751719 11.46783,-12.976757 2.56512,-4.275235 4.14949,-8.827156 4.75312,-13.655778 0.10053,-0.90529 0.15083,-1.534009 0.15089,-1.886157 -6e-5,-2.26332 -0.50303,-4.350666 -1.50892,-6.262041 -4.67773,-2.464505 -11.39244,-4.878783 -20.14416,-7.242844 -0.0503,2.615548 -0.50301,6.413007 -1.35803,11.392389 -0.8048,4.979518 -1.76045,9.757778 -2.86696,14.334795 -1.056285,4.577123 -2.439465,9.657163 -4.149548,15.240153 -1.710146,5.58305 -3.470557,10.53735 -5.28124,14.86291"
         style=""
         id="path3102" />
      <path
         d="m 194.48442,117.70675 c -6.18663,5.28127 -11.99599,9.40566 -17.42809,12.37319 1.86098,1.10656 4.65249,3.11846 8.37454,6.03571 -6.589,5.38184 -13.05223,8.07275 -19.3897,8.07275 -2.56518,0 -4.67767,-0.52812 -6.33748,-1.58437 -1.65983,-1.05625 -2.48974,-2.38913 -2.48973,-3.99865 -10e-6,-3.62142 1.78555,-8.14819 5.35668,-13.58034 3.62141,-5.4824 7.77095,-11.01512 12.44864,-16.59818 -2.11251,-1.71008 -5.10521,-3.42019 -8.97811,-5.13035 -3.87292,-1.71007 -6.63928,-3.29444 -8.29909,-4.753112 -1.60952,-1.508879 -2.43943,-4.023753 -2.48972,-7.544629 -1e-5,-2.71601 0.25148,-5.532669 0.75446,-8.449984 0.50297,-2.917192 0.9808,-4.55186 1.43348,-4.904008 1.9113,6.6e-5 6.13628,0.930569 12.67497,2.791512 6.58895,1.86107 11.669,3.646631 15.24015,5.356686 3.67169,1.76047 6.13626,3.36999 7.39374,4.828563 1.2574,1.45868 2.03701,3.64662 2.33883,6.563827 0.20115,1.659863 0.30175,3.696915 0.30179,6.111145 -4e-5,3.11849 -0.30183,7.9219 -0.90536,14.41024"
         style=""
         id="path3104" />
      <path
         d="m 255.82225,139.66162 -1.20714,1.81071 -11.01516,-2.9424 c -5.43217,-10.00919 -8.67635,-16.39697 -9.73257,-19.16336 -1.65985,1.60955 -5.85969,4.97948 -12.59953,10.1098 -6.68958,5.13036 -10.91457,8.22366 -12.67497,9.2799 l -3.31964,-1.35804 c -1.00595,-4.02379 -1.50893,-7.72065 -1.50893,-11.0906 0,-3.36991 0.55327,-6.99133 1.65982,-10.86426 0.95565,-3.4705 2.28853,-7.01647 3.99865,-10.63793 1.71011,-3.67168 3.44537,-7.016459 5.2058,-10.034357 1.81069,-3.017799 3.92319,-6.261986 6.33749,-9.73257 l -0.52813,-2.03705 10.03436,-10.260695 3.99865,3.319637 4.90401,-3.017852 c 5.1806,4.275357 9.78282,9.078765 13.80667,14.410241 0.70411,0.905411 1.0562,1.785617 1.05625,2.64062 -5e-5,0.301839 -0.10065,0.955706 -0.30179,1.961603 -1.006,5.935154 -1.50897,12.599573 -1.50892,19.993263 -5e-5,10.16012 1.13164,19.36456 3.39508,27.61334 m -41.34456,-25.57629 11.69417,-11.76962 -2.26339,-7.997304 c -4.87888,6.941104 -8.02247,13.530074 -9.43078,19.766924"
         style=""
         id="path3106" />
      <path
         d="m 299.50565,93.41305 3.01785,0.679017 0.67902,-3.017852 4.75312,1.508926 c -1.40838,6.739913 -2.11254,12.750459 -2.1125,18.031659 -4e-5,2.61551 0.2263,4.82859 0.67902,6.63928 0.45263,1.81073 1.0562,2.76638 1.81071,2.86696 1.91126,2e-5 5.08,-3.92318 9.50623,-11.76963 4.42612,-7.84637 9.45587,-17.931009 15.08926,-30.253956 1.05617,3.571187 2.03697,7.519539 2.9424,11.845067 0.90528,4.325637 1.35796,7.418932 1.35804,9.279893 -0.30186,3.219086 -2.23832,8.827256 -5.80937,16.824526 -3.52089,7.99732 -7.54469,15.39105 -12.0714,22.1812 -4.67773,7.09195 -10.1853,10.63793 -16.52274,10.63793 -0.70421,0 -1.23233,-0.0251 -1.58437,-0.0755 -2.41432,-0.20119 -4.22503,-1.55922 -5.43214,-4.0741 -1.15687,-2.51487 -1.91133,-5.63331 -2.26338,-9.35534 -0.35212,-3.722 -0.6036,-6.6141 -0.75447,-8.67632 -1.35806,3.21906 -3.39511,6.61414 -6.11115,10.18525 -0.50299,0.1006 -1.50894,0.1509 -3.01785,0.15089 -4.07411,1e-5 -8.22366,-0.40237 -12.44863,-1.20714 -2.96756,-7.6955 -4.45134,-17.88074 -4.45134,-30.55574 0,-5.733876 0.32693,-11.467788 0.98081,-17.201756 2.61546,-1.458571 6.46322,-2.816602 11.54328,-4.074099 5.08003,-1.307675 8.82719,-1.961542 11.24149,-1.961604 -2e-5,2.364044 -0.35211,7.21775 -1.05624,14.561133 -0.6539,7.343476 -0.98083,12.247486 -0.98081,14.712026 -2e-5,1.86104 0.12572,3.546 0.37724,5.0549 3.87288,-4.87883 7.41885,-12.52404 10.63792,-22.93567"
         style=""
         id="path3108" />
      <path
         d="m 400.83002,96.581794 2.1125,6.941056 6.26204,-1.28258 -0.45268,7.77096 -4.0741,8.60088 c 0.40235,1.25746 0.88017,3.97353 1.43348,8.1482 0.60354,4.17471 1.08136,8.12306 1.43348,11.84507 0.40234,3.72201 0.72928,7.56977 0.9808,11.54328 0.25145,3.97349 0.3772,7.44402 0.37723,10.41158 -3e-5,2.01189 -0.0755,3.49566 -0.22634,4.45134 -0.40241,2.66574 -4.90404,5.73389 -13.50488,9.20444 -3.92323,-4.6274 -7.31831,-9.33021 -10.18525,-14.10845 -2.86697,-4.72798 -5.23095,-10.18526 -7.09195,-16.37185 -1.81072,-6.23688 -2.71607,-13.00189 -2.71607,-20.29505 0.10059,-5.08002 0.72931,-10.16007 1.88616,-15.24015 1.20713,-5.1303 3.09329,-10.839067 5.65847,-17.126305 2.66576,-6.488321 5.7842,-13.253331 9.35534,-20.29505 3.5711,-7.091871 6.81529,-13.203014 9.73257,-18.333448 2.91723,-5.13025 4.97942,-8.751668 6.1866,-10.864265 l 5.43213,0.07545 0.67902,16.44729 C 408.97818,74.048574 404.552,86.87443 400.83002,96.581794 m -2.56517,27.085216 c -0.75449,3.16876 -1.13172,7.3183 -1.1317,12.44864 -2e-5,7.64522 0.80474,14.1336 2.41428,19.46514 1.4083,-2.2634 2.11247,-9.58168 2.1125,-21.95487 -3e-5,-3.06813 -0.0755,-7.31827 -0.22634,-12.75042 l -3.16874,2.79151"
         style=""
         id="path3110" />
      <path
         d="m 457.94284,117.70675 c -6.18664,5.28127 -11.99599,9.40566 -17.4281,12.37319 1.86099,1.10656 4.6525,3.11846 8.37454,6.03571 -6.589,5.38184 -13.05223,8.07275 -19.38969,8.07275 -2.56519,0 -4.67768,-0.52812 -6.33749,-1.58437 -1.65983,-1.05625 -2.48973,-2.38913 -2.48973,-3.99865 0,-3.62142 1.78556,-8.14819 5.35669,-13.58034 3.6214,-5.4824 7.77095,-11.01512 12.44863,-16.59818 -2.11251,-1.71008 -5.10521,-3.42019 -8.9781,-5.13035 -3.87292,-1.71007 -6.63928,-3.29444 -8.2991,-4.753112 -1.60952,-1.508879 -2.43943,-4.023753 -2.48972,-7.544629 -1e-5,-2.71601 0.25148,-5.532669 0.75446,-8.449984 0.50297,-2.917192 0.9808,-4.55186 1.43348,-4.904008 1.9113,6.6e-5 6.13629,0.930569 12.67498,2.791512 6.58895,1.86107 11.66899,3.646631 15.24015,5.356686 3.67168,1.76047 6.13625,3.36999 7.39373,4.828563 1.2574,1.45868 2.03701,3.64662 2.33884,6.563827 0.20114,1.659863 0.30174,3.696915 0.30178,6.111145 -4e-5,3.11849 -0.30183,7.9219 -0.90535,14.41024"
         style=""
         id="path3112" />
      <path
         d="m 490.83742,124.42147 2.71607,8.07276 21.2004,-7.92186 -0.22634,9.50623 c -0.9557,0.75447 -2.28858,1.83587 -3.99865,3.24419 -1.65986,1.35804 -3.26938,2.48973 -4.82856,3.39508 -1.55926,0.90536 -3.01789,1.38319 -4.37589,1.43348 -5.23097,0 -11.06548,-1.73526 -17.50353,-5.20579 -6.4381,-3.52082 -11.81993,-7.8464 -16.14551,-12.97676 0,-6.48836 0.82991,-12.49891 2.48973,-18.03167 1.71011,-5.53268 3.64656,-10.059453 5.80936,-13.580328 2.21308,-3.520771 4.32557,-6.362578 6.33749,-8.52543 2.06218,-2.213028 3.34476,-3.395019 3.84776,-3.545975 0.40236,-0.100531 0.82989,-0.150829 1.28259,-0.150893 2.61544,6.4e-5 6.53865,0.754526 11.76962,2.263389 5.2309,1.458688 9.38044,3.01791 12.44864,4.677669 0.55322,0.804817 0.9556,1.508982 1.20714,2.112496 0.30173,0.603625 0.62867,1.30779 0.9808,2.112496 0.40233,0.804813 0.85501,1.710167 1.35803,2.716067 -1.65987,2.464626 -3.8981,5.507623 -6.71472,9.128999 -2.8167,3.57116 -6.01059,7.51951 -9.58168,11.84507 -3.57115,4.32561 -6.26207,7.4692 -8.07275,9.43078 m 0.0754,-14.41024 c 6.03567,-7.64518 9.78283,-13.177901 11.24149,-16.59818 -1.81074,5.1e-5 -3.57115,0.704216 -5.28124,2.112496 -1.65985,1.408378 -3.04303,3.344831 -4.14954,5.809364 -1.05628,2.46462 -1.65985,5.35672 -1.81071,8.67632"
         style=""
         id="path3114" />
      <path
         d="m 545.46056,124.42147 2.71607,8.07276 21.2004,-7.92186 -0.22634,9.50623 c -0.9557,0.75447 -2.28858,1.83587 -3.99865,3.24419 -1.65986,1.35804 -3.26938,2.48973 -4.82856,3.39508 -1.55927,0.90536 -3.01789,1.38319 -4.37589,1.43348 -5.23097,0 -11.06548,-1.73526 -17.50354,-5.20579 -6.43809,-3.52082 -11.81992,-7.8464 -16.1455,-12.97676 0,-6.48836 0.8299,-12.49891 2.48973,-18.03167 1.71011,-5.53268 3.64656,-10.059453 5.80936,-13.580328 2.21308,-3.520771 4.32557,-6.362578 6.33749,-8.52543 2.06218,-2.213028 3.34476,-3.395019 3.84776,-3.545975 0.40236,-0.100531 0.82989,-0.150829 1.28259,-0.150893 2.61544,6.4e-5 6.53865,0.754526 11.76962,2.263389 5.2309,1.458688 9.38044,3.01791 12.44863,4.677669 0.55323,0.804817 0.95561,1.508982 1.20714,2.112496 0.30174,0.603625 0.62867,1.30779 0.98081,2.112496 0.40233,0.804813 0.855,1.710167 1.35803,2.716067 -1.65987,2.464626 -3.89811,5.507623 -6.71472,9.128999 -2.8167,3.57116 -6.01059,7.51951 -9.58168,11.84507 -3.57115,4.32561 -6.26207,7.4692 -8.07275,9.43078 m 0.0755,-14.41024 c 6.03567,-7.64518 9.78283,-13.177901 11.24149,-16.59818 -1.81074,5.1e-5 -3.57116,0.704216 -5.28124,2.112496 -1.65985,1.408378 -3.04303,3.344831 -4.14954,5.809364 -1.05628,2.46462 -1.65985,5.35672 -1.81071,8.67632"
         style=""
         id="path3116" />
      <path
         d="m 601.13991,40.223419 6.26205,2.338835 1.65981,-1.508926 10.2607,5.658472 0.15089,17.503538 c -4.57711,11.317011 -7.99734,19.993325 -10.26069,26.028968 -2.21313,5.985454 -4.09928,11.920554 -5.65847,17.805324 -1.50896,5.83454 -2.26342,11.11578 -2.26339,15.84372 0.10057,5.38185 1.358,10.33615 3.77231,14.86292 2.26336,0.60357 4.22496,0.90536 5.88481,0.90535 2.86692,1e-5 5.90992,-1.13169 9.129,-3.39508 l 1.20714,2.18794 c -2.31373,2.2131 -3.57116,4.95431 -3.77231,8.22365 l -8.82722,2.41428 c -9.15417,-4.0238 -15.76829,-8.42483 -19.84237,-13.2031 -2.364,-2.76635 -4.14956,-6.41292 -5.35669,-10.93971 -1.15685,-4.52676 -1.78557,-9.05353 -1.88615,-13.58033 -10e-6,-8.65114 1.50891,-18.584887 4.52677,-29.801287 3.06814,-11.266571 8.07274,-25.048079 15.01381,-41.344564"
         style=""
         id="path3118" />
      <path
         d="m 637.58043,137.021 -4.82857,-2.33883 0.22634,-2.71607 c -1.10655,-0.80475 -2.01191,-1.48376 -2.71606,-2.03705 -0.70418,-0.55326 -1.40834,-1.15683 -2.1125,-1.81071 -0.70417,-0.65385 -1.71012,-1.63465 -3.01785,-2.9424 -0.65387,-4.72795 -0.98081,-9.75769 -0.9808,-15.08926 -10e-6,-7.3937 0.70416,-13.831772 2.11249,-19.31425 2.36398,-1.207086 5.73391,-2.363928 10.10981,-3.470529 l 0.45267,-1.961603 c 4.27527,-0.653809 7.46916,-0.980742 9.58168,-0.980802 1.00592,6e-5 1.78554,0.02521 2.33884,0.07545 -1.55925,12.473833 -2.33886,22.960858 -2.33884,31.461098 -2e-5,2.16282 0.0754,4.12442 0.22634,5.88481 1.4083,-2.86693 3.54595,-7.09192 6.41294,-12.67497 2.86692,-5.58299 5.1806,-10.109759 6.94105,-13.580334 1.76037,-3.520774 3.79742,-7.670316 6.11115,-12.448637 2.36394,-4.828496 3.77227,-7.846345 4.22499,-9.053554 l 4.67767,0.754463 c 0.70411,5.331601 1.0562,9.93382 1.05625,13.80667 -5e-5,2.364037 -0.10065,4.627423 -0.30178,6.790166 -0.30184,3.068194 -1.65988,8.324276 -4.0741,15.768276 -2.41433,7.44406 -5.0801,14.78749 -7.99731,22.03031 -2.9173,7.24285 -5.00464,11.79477 -6.26204,13.65578 -2.16283,3.16874 -6.28722,7.67036 -12.37319,13.50489 -6.08602,5.83449 -11.84508,10.5876 -17.2772,14.25934 l -6.94106,-0.45267 c 0.90535,-2.6155 2.13764,-5.80939 3.69687,-9.58168 1.55922,-3.72204 2.91725,-6.84048 4.0741,-9.35534 1.15683,-2.51489 2.6909,-5.75907 4.60222,-9.73257 1.96159,-3.9735 3.42022,-6.79016 4.37589,-8.44999"
         style=""
         id="path3120" />
    </g>
    <use
       x="0"
       y="0"
       xlink:href="#text1259"
       id="use2377"
       transform="translate(-5.2526594e-7,306)"
       width="744.09448"
       height="1052.3622"
       style="filter:url(#filter2379)" />
    <use
       x="0"
       y="0"
       xlink:href="#text1259"
       id="use3087"
       transform="translate(0,151.28149)"
       width="744.09448"
       height="1052.3622"
       style="stroke:#623c2e;stroke-width:7;stroke-miterlimit:4;stroke-opacity:1;stroke-dasharray:none" />
    <text
       xml:space="preserve"
       style="font-size:22px;font-style:normal;font-variant:normal;font-weight:normal;font-stretch:normal;text-align:start;line-height:125%;letter-spacing:0px;word-spacing:0px;writing-mode:lr-tb;text-anchor:start;fill:#000000;fill-opacity:1;stroke:none;font-family:Bitstream Vera Sans;-inkscape-font-specification:Bitstream Vera Sans"
       x="5.0751128"
       y="167.4655"
       id="text3089"
       sodipodi:linespacing="125%"><tspan
         sodipodi:role="line"
         id="tspan3091"
         x="5.0751128"
         y="167.4655">No stroke</tspan></text>
    <text
       xml:space="preserve"
       style="font-size:22px;font-style:normal;font-variant:normal;font-weight:normal;font-stretch:normal;text-align:start;line-height:125%;letter-spacing:0px;word-spacing:0px;writing-mode:lr-tb;text-anchor:start;fill:#000000;fill-opacity:1;stroke:none;font-family:Bitstream Vera Sans;-inkscape-font-specification:Bitstream Vera Sans"
       x="5.7840972"
       y="323.90186"
       id="text3093"
       sodipodi:linespacing="125%"><tspan
         sodipodi:role="line"
         id="tspan3095"
         x="5.7840972"
         y="323.90186">Stroked with Stroke Paint</tspan></text>
    <text
       xml:space="preserve"
       style="font-size:22px;font-style:normal;font-variant:normal;font-weight:normal;font-stretch:normal;text-align:start;line-height:125%;letter-spacing:0px;word-spacing:0px;writing-mode:lr-tb;text-anchor:start;fill:#000000;fill-opacity:1;stroke:none;font-family:Bitstream Vera Sans;-inkscape-font-specification:Bitstream Vera Sans"
       x="5.7840972"
       y="482.45712"
       id="text3097"
       sodipodi:linespacing="125%"><tspan
         sodipodi:role="line"
         id="tspan3099"
         x="5.7840972"
         y="482.45712">Stroked with a filter</tspan></text>
  </g>
</svg>
