<?xml version="1.0" encoding="UTF-8" standalone="no"?>
<!-- Created with Inkscape (http://www.inkscape.org/) -->
<svg
   xmlns:dc="http://purl.org/dc/elements/1.1/"
   xmlns:cc="http://creativecommons.org/ns#"
   xmlns:rdf="http://www.w3.org/1999/02/22-rdf-syntax-ns#"
   xmlns:svg="http://www.w3.org/2000/svg"
   xmlns="http://www.w3.org/2000/svg"
   xmlns:sodipodi="http://sodipodi.sourceforge.net/DTD/sodipodi-0.dtd"
   xmlns:inkscape="http://www.inkscape.org/namespaces/inkscape"
   width="210mm"
   height="297mm"
   id="svg1901"
   sodipodi:version="0.32"
   inkscape:version="0.46+devel"
   sodipodi:docname="rabbit.svg"
   sodipodi:docbase="/home/tsoots/ohj/translations/po"
   inkscape:output_extension="org.inkscape.output.svg.inkscape"
   style="enable-background:new"
   version="1.0"
   inkscape:dataloss="true">
  <defs
     id="defs1903" />
  <sodipodi:namedview
     id="base"
     pagecolor="#ffffff"
     bordercolor="#666666"
     borderopacity="1.0"
     inkscape:pageopacity="0.0"
     inkscape:pageshadow="2"
     inkscape:zoom="0.49033367"
     inkscape:cx="717.27579"
     inkscape:cy="502.3609"
     inkscape:document-units="px"
     inkscape:current-layer="layer1"
     gridtolerance="10000"
     inkscape:window-width="1278"
     inkscape:window-height="751"
     inkscape:window-x="0"
     inkscape:window-y="0"
     showgrid="false" />
  <metadata
     id="metadata1906">
    <rdf:RDF>
      <cc:Work
         rdf:about="">
        <dc:format>image/svg+xml</dc:format>
        <dc:type
           rdf:resource="http://purl.org/dc/dcmitype/StillImage" />
      </cc:Work>
    </rdf:RDF>
  </metadata>
  <g
     inkscape:label="Taso 1"
     inkscape:groupmode="layer"
     id="layer1"
     style="opacity:1">
    <g
       id="g3949"
       transform="translate(-61.182823,40.788551)">
      <path
         id="path3941"
         d="m 266.71889,291.78317 c 1.97569,1.5933 7.32919,3.95139 8.7313,4.07885 1.4021,0.12747 7.96651,-0.63732 9.87847,-2.16689 1.91197,-1.52957 5.60843,-10.26087 5.48096,-12.1091 -0.12746,-1.84823 -0.70105,-3.63273 -2.42182,-4.52498 -1.72076,-0.89225 -8.03024,-2.35809 -9.87847,-1.52957 -1.84823,0.82852 -6.81934,4.46125 -7.52039,6.18201 -0.70106,1.72077 -3.69647,6.62814 -3.88766,7.3292 -0.1912,0.70105 -0.44613,2.61301 -0.38239,2.74048 z"
         style="fill:#fbdb8f;fill-opacity:1;stroke:none" />
      <path
         id="path3939"
         d="m 285.83852,291.59197 c 3.12287,-2.86794 4.39751,-8.03025 2.29436,-11.08939 -2.10316,-3.05914 -5.60843,-6.5644 -10.64327,-3.44153 -5.03483,3.12287 -8.28517,12.1091 -6.05455,14.21226 2.23063,2.10316 3.82393,3.05914 6.37321,2.86794 2.54929,-0.19119 8.28518,-2.48555 8.03025,-2.54928 z"
         style="fill:#9d4f1d;fill-opacity:1;stroke:none" />
      <path
         sodipodi:nodetypes="cssscc"
         id="path3947"
         d="m 281.88413,290.93705 c 0.58585,0.85624 1.1716978,0.63091021 2.3884599,0.40558837 1.8700595,-0.34630042 2.478598,-2.3434081 1.4421001,-3.4249684 -0.60542842,-0.63174983 -3.01939,-2.07301 -3.83056,-0.76612 -0.81117735,1.3068968 0.045065408,3.7854943 0,3.7854943 z"
         style="fill:#ffffff;fill-opacity:1;stroke:none" />
      <path
         sodipodi:nodetypes="cssss"
         id="path3943"
         d="m 274.40327,281.78877 c 0.57824,-1.64528 2.79406,-1.57729 3.69536,-0.99144 1.3159746,0.85539071 3.10952,2.4786 2.16314,3.6503 -0.94637,1.1717 -3.6503,0.94637 -4.73186,0.49572 -1.08157,-0.45066 -1.6729245,-1.6002626 -1.1266438,-3.1545833 z"
         style="fill:#ffffff;fill-opacity:1;stroke:none" />
      <path
         id="path3434"
         d="m 312.95985,178.96537 c -6.4004,2.70008 -10.55968,9.62965 -12.64085,16.08835 -2.83165,18.12719 2.24693,36.27376 6.5099,53.75706 1.30717,3.35009 2.10698,9.52264 6.67173,9.46971 5.01841,-3.83952 6.03058,-10.90964 8.47499,-16.43441 3.43907,-11.22396 5.56576,-23.06467 5.04463,-34.8275 -1.73436,-9.7771 -4.43561,-20.43883 -11.9198,-27.44483 -0.62707,-0.40199 -1.37979,-0.73204 -2.1406,-0.60838 z"
         style="color:#000000;fill:#efcea5;fill-opacity:1;fill-rule:nonzero;stroke:none;stroke-width:2;marker:none;marker-start:none;marker-mid:none;marker-end:none;visibility:visible;display:inline;overflow:visible;enable-background:accumulate" />
      <path
         sodipodi:nodetypes="ccccccccc"
         id="path3426"
         d="m 412.75719,518.60081 c -8.49151,0.83242 -17.52401,1.4191 -25.21409,5.34026 -4.54161,3.89946 -8.90244,9.45819 -9.17081,15.59263 2.48337,4.13808 8.51652,1.37319 12.3677,1.73611 16.25745,-0.75482 32.65724,-1.12423 48.43855,-5.55383 4.58202,-1.07563 12.814323,-2.7888865 17.382233,-3.8659365 -2.985923,-2.7482735 -7.151043,-2.6584035 -8.868183,-3.4128435 -10.38792,-2.91348 -20.73564,-6.07124 -30.90204,-9.61106 -1.32388,-0.26157 -2.68555,-0.28162 -4.03336,-0.22533 z"
         style="color:#000000;fill:#c1872f;fill-opacity:1;fill-rule:nonzero;stroke:none;stroke-width:2;marker:none;marker-start:none;marker-mid:none;marker-end:none;visibility:visible;display:inline;overflow:visible;enable-background:accumulate" />
      <path
         sodipodi:nodetypes="cccccccc"
         id="path3428"
         d="m 385.96581,506.88381 c -8.7443,1.48967 -18.27855,4.92226 -23.63681,12.34792 -2.53767,4.25598 0.14429,11.53902 5.88104,10.38758 5.91383,-0.30545 13.41457,1.59773 17.48538,-4.03336 4.86253,-5.02086 12.69716,-4.82737 19.15279,-6.21902 2.14982,-0.68382 7.15803,-0.33069 9.23841,-1.5773 -2.64993,-2.20138 -9.48513,-4.28851 -12.77604,-6.37675 -4.87269,-2.0933 -9.83622,-5.00815 -15.34477,-4.52907 z"
         style="color:#000000;fill:#c1872f;fill-opacity:1;fill-rule:nonzero;stroke:none;stroke-width:2;marker:none;marker-start:none;marker-mid:none;marker-end:none;visibility:visible;display:inline;overflow:visible;enable-background:accumulate" />
      <path
         sodipodi:nodetypes="cccccccccccccccccccccccccccccc"
         id="path3421"
         d="m 327.44838,332.30042 c -5.26731,8.38145 -17.15661,11.206701 -25.95768,13.452021 -7.74429,1.7013 -27.391427,4.7013116 -29.179847,4.0108216 -1.4652869,3.9681024 -2.6699231,9.8928984 -3.8530931,11.964868 -5.19259,16.57369 -6.93026,35.63461 1.80261,51.35203 6.70539,13.37677 17.51732,24.03622 28.12082,34.22718 4.30248,6.71341 4.17762,15.38599 4.64174,23.18615 -0.40701,12.85606 -4.56191,25.37714 -7.66112,37.71975 -1.30531,5.38361 -10.05493,6.28928 -9.08068,12.68591 0.925,4.83357 4.03409,10.0917 9.62146,9.86932 10.29549,2.00193 19.05128,-7.50566 21.18202,-16.82497 2.78353,-12.30197 6.1059,-24.67416 13.57753,-35.14712 1.56894,-3.53366 1.53922,2.15506 1.54064,3.68451 -0.76019,12.36026 -2.25615,24.94677 -6.78235,36.52551 -1.96506,5.04336 -7.83883,8.1728 -8.58496,13.76749 0.841,7.59587 10.56661,10.99014 17.03473,8.22443 9.03462,-1.664 10.91127,-12.03216 13.61259,-19.26885 4.09304,-10.86471 8.1865221,-25.940209 10.136874,-29.739783 14.00495,7.88526 30.085966,13.352013 44.610516,20.252293 14.30324,6.76944 29.07922,12.43483 44.57912,15.72322 9.7042,3.00224 19.75406,4.29644 29.8951,3.38205 12.04968,-0.86821 24.68654,-1.23884 35.82761,-6.27955 7.80961,-5.51458 13.63129,-14.07808 14.66647,-23.75965 3.57223,-17.87154 0.71205,-36.18431 -0.57466,-54.15074 -1.94405,-14.24598 -1.86952,-30.10261 -11.21968,-41.83033 -12.93161,-16.22182 -27.76132,-31.12605 -44.28724,-43.73405 -17.12882,-12.49379 -37.08297,-21.01412 -57.46247,-26.66059 -11.31844,-1.97557 -23.14422,-2.02494 -34.44843,0.072 -11.65489,2.44425 -22.98284,9.56196 -35.12849,6.21903 C 338.22824,339.16774 332.36106,337.16582 327.44838,332.30042 z"
         style="color:#000000;fill:#dfa142;fill-opacity:1;fill-rule:nonzero;stroke:none;stroke-width:2;marker:none;marker-start:none;marker-mid:none;marker-end:none;visibility:visible;display:inline;overflow:visible;enable-background:accumulate" />
      <path
         sodipodi:nodetypes="cccccccccccccccccccccccccccccccccc"
         id="path3430"
         d="m 299.57542,200.1371 c 1.4282012,-8.9509576 3.10527,-10.8454 5.48896,-13.56558 2.38369,-2.72018 4.80793,-7.02311 8.79678,-7.20958 3.4304798,-0.86838301 8.8724917,10.012981 10.18478,16.42634 6.2984622,16.10985 1.95281,31.76758 -2.72646,46.6427 -2.24327,4.97353 -3.18315,11.15398 -7.00767,15.18704 -4.16864,1.67955 -5.61894,-3.83875 -6.45197,-6.70589 -4.86132,-16.46357 -7.86439,-33.60263 -8.28442,-50.77503 z m 0,0 m 0,0 m 0,0 m -0.27039,-7.95405 c -0.89051056,3.6747817 -2.0306906,9.2262238 -2.50113,12.77604 -0.7891,16.04131 0.83196,32.08887 3.05981,47.89861 0.11754,3.16627 0.65242,7.3098 0.07223,9.96538 -9.92024,-3.70772 -21.65456,-1.80324 -30.55434,3.67283 -13.84582,10.16318 -20.72929,26.63325 -29.10856,41.1076 -3.62995,8.09831 -9.25589,16.54968 -8.16053,25.792 0.1611927,2.1831468 2.8375716,3.9449346 4.07841,7.81885 2.2291307,2.6446871 3.3467705,5.4126034 7.6243,6.76746 5.70336,1.00616 11.96128,3.56906 17.56727,0.84859 3.0273723,0.32268429 20.32587,-1.9930135 26.0478,-2.2758 11.4294,-2.02582 24.72302,-1.88436 33.52867,-10.63544 9.9663,-8.51815 12.07758,-22.59945 12.28032,-35.01582 -0.31367,-11.51361 -2.90879,-24.58674 -12.37045,-32.10911 -1.76598,-2.0985 -0.73279,-4.12209 -0.99663,-4.14556 1.64329,-5.65928 2.43306,-5.83205 4.78286,-12.72358 4.43285,-12.70071 9.89727,-25.90158 8.65182,-39.62034 -2.21364,-12.66471 -5.06286,-25.97246 -13.52811,-36.06284 -1.44362,-1.9228 -3.08314,-4.17009 -5.82748,-3.70739 -8.52683,2.15675 -14.07441,11.19383 -14.64626,19.64852 z m 0,0 m 0,0 m 0,0 m -19.64852,82.49223 c 4.09914,0.25317 9.96117,1.37297 11.10862,6.08383 0.62251,6.23839 -2.8734,13.22783 -9.5764,14.15054 -4.88278,0.78295 -11.76201,0.83227 -14.66879,-3.89816 1.21071,-4.89954 4.73344,-9.47614 7.75125,-13.49709 1.41566,-1.52126 3.14646,-2.84176 5.38532,-2.83912 z"
         style="color:#000000;fill:#dfa142;fill-opacity:1;fill-rule:nonzero;stroke:none;stroke-width:2;marker:none;marker-start:none;marker-mid:none;marker-end:none;visibility:visible;display:inline;overflow:visible;enable-background:accumulate" />
      <path
         sodipodi:nodetypes="cccccccc"
         id="path3432"
         d="m 291.44112,173.66117 c -6.23423,2.27742 -9.26694,9.2152 -12.32539,14.62372 -3.20583,7.18298 -0.90529,15.42238 -0.80781,23.00239 1.14284,16.93345 7.3567008,33.830547 13.268391,49.575457 3.687309,0.183193 6.161069,1.503783 8.787749,1.239303 1.53109,-4.47002 -0.79021,-10.3514 -1.01511,-14.96976 -3.25155,-19.71772 -4.53259,-40.44308 0.81232,-59.99655 1.62705,-6.95223 -2.62177,-12.4192 -8.72015,-13.47456 z"
         style="color:#000000;fill:#c1872f;fill-opacity:1;fill-rule:nonzero;stroke:none;stroke-width:2;marker:none;marker-start:none;marker-mid:none;marker-end:none;visibility:visible;display:inline;overflow:visible;enable-background:accumulate" />
      <path
         sodipodi:nodetypes="cccccccccccccccccccccccccccccccccccccccccccccccccccccccccccccccccccccccccccccccccsccccccccccccccccccccccccccccccccccccccccccccccccccccccccccccccccccccccccccccccccccccccccccccccccccccccccccccccccccccccccccccccccccccccccccccccccccccccccccccccccccccccccsccccccccccccccccccccccccccccccccccccccccccccccccccccccccccccccccccccccccccccccccccccccccccccccccccccccccccccccccccccccc"
         id="path2551"
         d="m 313.9375,171.78125 c -2.12138,0.18022 -4.31648,1.32562 -5.90625,2.5625 -2.77314,1.83309 -4.64075,5.10573 -6.59375,7.375 -1.56087,-3.79545 -4.53722,-7.31354 -8.5,-8.71875 -3.17715,-1.29689 -5.98345,1.77251 -7.6875,3.9375 -2.85129,3.6931 -5.81315,7.51836 -7.46875,11.9375 -1.60564,3.94822 -1.33477,8.22381 -1.03125,12.375 -0.12123,4.21572 0.84066,8.31624 1.03125,12.5 -0.05832,7.52123 2.12954,14.77457 4.15625,21.9375 1.77489,5.65248 4.07905,11.11061 5.90625,16.75 0.33713,2.51403 3.28858,6.21337 1.90625,7.8125 -4.51002,0.09025 -9.03745,0.75126 -13.375,2 -5.50847,1.91519 -10.51053,5.22609 -14.375,9.625 -3.38633,3.19966 -5.96604,7.08611 -8.125,11.1875 -2.88187,4.54916 -5.86164,9.08195 -8.53125,13.75 -1.7404,4.17142 -4.61526,7.8617 -6.46875,12.03125 -1.94623,3.34471 -3.35112,6.90053 -4.75,10.5 -2.0626,4.83905 -4.76391,10.56831 -2.21875,15.75 1.93574,2.08415 0.64643,3.24188 -1.6875,3.625 -5.56406,1.60569 -11.04653,3.97405 -15.28125,8.03125 -1.32306,0.92259 -5.99128,6.0546 -3.6875,5.15625 2.66279,-3.22974 5.7839,-6.11175 9.28125,-8.40625 4.03524,-2.27374 8.52643,-3.39404 12.84375,-4.96875 2.64771,1.11562 0.79446,3.26041 -1.53125,3.34375 -5.30349,2.70461 -10.17483,6.52103 -13.5625,11.46875 0.34246,2.27114 2.8567,-2.67915 3.875,-3.53125 3.90938,-3.37688 8.06562,-6.95004 13.1875,-8.25 2.79086,2.90629 5.33035,6.48109 9.3125,7.875 4.52683,2.15746 9.60732,2.35622 14.53125,2.3125 3.25011,0.59615 6.8167,-1.87121 9.6875,0.34375 3.05381,2.02762 -0.62692,6.49351 -1.1875,9.25 -1.31896,3.95232 -1.66302,8.24968 -2.9375,12.25 -0.66627,5.1285 -0.9036,10.30456 -1.125,15.46875 -0.14843,4.79743 0.21761,9.65726 2.03125,14.15625 1.89541,6.83979 5.42204,13.03962 8.875,19.1875 3.74115,5.0446 8.12888,9.56446 12.125,14.40625 3.06439,3.87766 7.64517,6.37404 10.125,10.71875 3.09024,3.54999 3.21189,8.46503 3.71875,12.90625 0.47325,7.53074 1.80008,15.22582 0.0625,22.6875 -0.79219,6.07884 -2.67669,11.92169 -3.75,17.9375 -0.88268,3.26975 -1.64338,6.65389 -3.09375,9.71875 -2.66129,1.73986 -5.69368,3.16705 -7.65625,5.78125 -1.86396,3.15066 -0.46779,6.67818 1.125,9.59375 1.58409,3.67998 4.8589,5.6468 8.8125,6.125 3.30219,0.97669 6.70699,0.14413 9.8125,-1.03125 2.95391,-3.00586 7.58026,-4.3231 9.375,-8.34375 1.82923,-3.13845 2.88846,-6.63749 3.3125,-10.21875 0.85693,-3.30258 1.42152,-6.66294 2.34375,-9.9375 0.83731,-5.17908 3.10316,-10.00512 5.625,-14.5625 1.42716,-2.61152 2.88319,-6.06392 5.1875,-7.625 0.27624,7.52571 -1.09356,14.9842 -2.5,22.34375 -1.0018,3.86096 -1.77891,7.76288 -2.875,11.59375 -1.09056,4.74461 -4.0552,8.82855 -7.53125,12.15625 -2.32685,2.49094 -4.48922,5.9397 -2.65625,9.3125 1.27966,4.21971 5.46456,6.77009 9.59375,7.59375 2.11516,0.39139 4.21183,0.1977 6.28125,-0.28125 3.17216,-0.39436 6.48308,-1.36652 8.90625,-3.5625 2.26392,-2.0718 3.46939,-5.01816 4.75,-7.65625 1.20384,-3.41089 2.846,-6.84843 3.84375,-10.34375 1.59758,-4.69107 2.34854,-9.65731 4.25,-14.25 1.11436,-4.11766 2.44606,-8.17734 3.25,-12.375 0.03624,-4.69176 3.97225,-0.32875 6.1875,0.46875 5.99745,2.83723 12.05915,5.57715 18.28125,7.875 0.98086,0.85708 6.35127,1.98259 4.90625,2.6875 -6.11134,1.28631 -12.616,2.3725 -17.75,6.1875 -2.93442,2.03699 -5.95884,4.20343 -7.53125,7.5 -1.65367,2.84423 -1.26537,6.70206 0.09375,9.5 5.14441,3.55367 11.7176,2.44765 17.5625,2 2.80793,-0.76527 -0.36956,2.18413 -0.28125,3.5 -2.00374,3.08187 -0.9478,8.08758 3.21875,8.46875 4.226,0.36742 8.4821,-0.44425 12.71875,-0.5 7.9872,-0.7754 16.03045,-0.37582 24,-1.375 5.88132,-0.40891 11.59964,-1.77396 17.40625,-2.6875 3.01823,-1.1881 6.53813,-1.50992 9.8125,-2.53125 5.63183,-1.08538 11.30773,-2.2077 16.875,-3.46875 6.69592,1.00067 13.49424,0.55291 20.1875,-0.1875 4.79668,-0.6893 9.66886,-0.43092 14.40625,-1.53125 4.24938,-0.33469 8.37581,-1.40842 12.4375,-2.65625 6.97099,-3.07447 12.33588,-9.0564 16.03125,-15.59375 2.12772,-3.77222 3.16362,-7.97036 3.96875,-12.1875 1.91417,-9.40395 1.87076,-19.04328 1.5,-28.59375 -0.8883,-8.96155 -1.94989,-17.95693 -2.28125,-26.96875 -0.08719,-2.37951 -0.29593,-4.96329 -0.96875,-7.09375 -1.0043,-6.7521 -1.77057,-13.68595 -4,-20.125 -1.32995,-2.90011 -3.27105,-5.62575 -4.75,-8.5 -3.24776,-4.78965 -6.49135,-9.68004 -10.59375,-13.8125 -4.9597,-5.60016 -10.16201,-10.97786 -15.65625,-16.0625 -3.81552,-2.97494 -7.07517,-6.68413 -10.875,-9.625 -6.47923,-6.10667 -13.97602,-10.93415 -21.28125,-15.96875 -6.44994,-3.45077 -13.09864,-6.57978 -19.75,-9.625 -6.00953,-2.6395 -12.22537,-4.70806 -18.3125,-7.15625 -5.94872,-1.75805 -11.99818,-3.35275 -18.1875,-4 -3.14297,-0.31797 -6.21613,-0.74693 -9.3125,-0.3125 -7.47333,0.53011 -15.04662,1.01585 -22.21875,3.34375 -6.44703,1.47865 -12.8685,3.67852 -19.4375,4.28125 -5.84634,0.74491 -11.70812,-0.95271 -17.125,-3.03125 -2.85637,-1.1848 -6.11086,-3.1098 -7.21875,-6.09375 2.46848,-5.09388 4.46018,-10.50891 5.15625,-16.15625 0.60532,-6.99649 1.15865,-14.17501 -0.375,-21.09375 -0.88229,-6.39167 -2.6691,-12.71018 -5.9375,-18.3125 -2.20859,-3.15921 -4.57679,-6.24904 -7.53125,-8.75 -0.0429,-2.97168 2.66584,-5.98562 3.3125,-9.15625 3.35497,-6.81186 5.55583,-14.15347 8.1875,-21.28125 1.22085,-6.69775 4.30874,-13.23326 3.78125,-20.1875 -0.23106,-5.70188 -1.37263,-11.32076 -3.40625,-16.65625 -1.42798,-5.82566 -3.70103,-11.40623 -6.34375,-16.78125 -1.9618,-3.47794 -4.57386,-6.59485 -7.4375,-9.375 -1.24218,-1.38827 -2.85004,-1.82767 -4.5,-1.6875 z m 0,0 m 0,0 m 0,0 M 314.71875,173 c 1.02021,0.04055 2.01173,0.42581 2.875,1.28125 2.53892,2.35853 3.75132,5.68795 5.96875,8.34375 2.11915,2.89336 3.33822,6.28912 4.40625,9.625 0.79814,4.25353 2.62418,8.23325 3.34375,12.5 1.51955,4.67187 1.69645,9.67561 1.75,14.5625 -0.67972,4.29379 -1.3431,8.7591 -2.71875,12.96875 -1.52088,4.1312 -2.03198,8.52246 -3.65625,12.59375 -0.71741,2.48548 -2.02932,4.85897 -2.78125,7.1875 -1.18498,4.28953 -4.11155,7.80741 -5.40625,12.0625 -1.63252,3.3483 -1.61225,7.43623 0.4375,10.59375 2.97863,1.73248 -0.44971,-3.06692 0.25,-4.5625 -0.49245,-4.3342 3.30873,0.26431 4.21875,1.71875 4.38521,4.39471 6.4263,10.37639 8.0625,16.21875 0.00518,3.13711 0.67285,6.38989 1.09375,9.59375 0.53133,6.60337 0.0619,13.29744 -1.71875,19.6875 -1.70783,6.86698 -4.47614,14.11809 -10.4375,18.40625 -2.79319,2.03703 -5.58393,4.19147 -8.71875,5.75 -6.55994,2.48319 -13.67446,2.60424 -20.5,3.9375 -5.67711,0.43682 -11.27364,1.51021 -16.9375,2.0625 -3.72152,-0.90662 -7.01479,-3.48235 -10.71875,-4.75 -3.19932,-0.87464 -7.28389,-4.34237 -10.125,-3.28125 5.40749,2.26776 10.94784,4.41069 16.15625,7.15625 4.09516,1.77017 -2.42112,1.36916 -3.8125,1.59375 -3.67088,-0.4531 -6.45514,-3.308 -9.84375,-4.59375 -1.3331,-0.26925 -5.35295,-3.18498 -5.0625,-1.3125 3.06334,1.5708 6.31217,2.82733 9.28125,4.59375 3.02788,2.46279 -1.55004,1.90868 -3.40625,2.375 l -11.625,-1.65625 c -2.64039,-0.54232 -1.78622,-1.86064 0.34375,-2.53125 2.27331,-0.19279 2.86144,-3.28433 -0.03125,-1.9375 -2.75693,2.09609 -6.7912,2.31212 -7.5,-1.65625 -2.64356,-1.16465 1.0678,-5.03373 1.59375,-7.125 0.50594,-1.95916 6.88577,-4.65414 3.25,-5.5625 -3.46697,1.46191 -6.84759,4.03995 -8,7.8125 -1.57922,-0.99432 -2.95872,-4.71534 -2.625,-7.1875 0.90929,-5.80725 3.84282,-11.02632 5.8125,-16.46875 1.90258,-2.96252 3.13116,-6.34604 5.0625,-9.28125 2.03015,-2.95374 3.2998,-6.26732 5.375,-9.1875 2.31523,-5.32761 6.30375,-9.67857 8.8125,-14.90625 3.33519,-4.70175 7.30728,-9.07829 12.03125,-12.40625 3.9745,-2.97183 8.80696,-4.35527 13.65625,-5.09375 4.67924,-0.67624 9.62566,-0.99232 14.21875,0.34375 4.44273,-0.12738 2.36179,4.90366 -0.03125,6.28125 -0.3757,2.75233 3.37245,-0.92559 3.875,-2.1875 0.53438,-3.45297 0.25261,-7.03465 0.3125,-10.53125 -0.40255,-8.22545 -3.02941,-16.17851 -3.5,-24.40625 -0.63656,-2.15654 0.03419,-5.52502 -0.5625,-6.9375 -0.519,-5.99237 -0.10816,-12.05007 -0.0625,-18.0625 0.61005,-5.64881 1.90824,-11.19527 2.9375,-16.78125 0.79922,-5.58094 4.20584,-10.3845 8.21875,-14.1875 1.767,-1.25616 4.19303,-2.74546 6.4375,-2.65625 z m 0,0 m 0,0 m 0,0 m -23.5,1.34375 c 1.89027,-0.09365 3.87956,1.03045 5.09375,2.625 2.0741,2.39766 5.22111,5.85472 3.40625,9.15625 -1.69964,6.81931 -3.05854,13.75443 -3.78125,20.75 -0.37469,9.82422 -0.36684,19.72288 1.03125,29.46875 1.43829,8.40249 3.51089,17.05986 2.5625,25.53125 -2.38883,-0.45057 -4.722,-1.87836 -7.21875,-1.34375 -2.37869,-5.77169 -4.26885,-11.71718 -6.28125,-17.625 -2.87202,-7.26849 -4.82312,-14.84046 -6.3125,-22.5 -0.53342,-4.93205 -0.52643,-9.90719 -1.3125,-14.8125 -0.18875,-5.19063 -1.07697,-10.60794 0.5,-15.65625 2.12257,-5.1739 5.27687,-9.9946 9.21875,-13.96875 0.86017,-1.0903 1.95959,-1.56881 3.09375,-1.625 z m 0,0 m 0,0 m 0,0 m 22.28125,4.125 c -2.36632,0.09354 -4.5867,2.30788 -6.0625,4.0625 -3.87971,4.06716 -6.81022,9.05299 -7.9375,14.59375 -0.2428,3.46204 -0.02262,6.98499 -0.09375,10.46875 -0.22979,6.48997 0.69803,12.94915 2.1875,19.25 1.06582,7.86805 3.0008,15.57005 5.21875,23.1875 1.17439,3.01935 1.20786,7.35137 4.78125,8.625 1.94162,0.7351 3.87293,-0.64904 4.9375,-2.1875 2.78067,-5.64868 4.82664,-11.64479 6.78125,-17.625 2.72391,-7.42315 3.06864,-15.38662 4.0625,-23.15625 0.96117,-4.67546 0.39185,-9.47487 -0.90625,-14.03125 -1.68308,-4.5605 -2.25299,-9.51335 -4.71875,-13.78125 -1.75212,-2.99881 -3.33144,-6.24978 -5.84375,-8.6875 -0.79869,-0.53548 -1.61748,-0.74993 -2.40625,-0.71875 z m 0,0 m 0,0 m 0,0 m -0.15625,1.09375 c 0.83357,-0.02658 1.68445,0.21706 2.5,0.84375 2.99601,3.78885 5.36255,8.05392 7.09375,12.5625 1.47021,5.83315 3.81393,11.53116 3.9375,17.625 -0.35249,4.60043 -0.92414,9.21377 -1.46875,13.8125 -0.73673,8.33353 -3.52842,16.28472 -6.53125,24.03125 -1.73428,2.99161 -1.84716,7.07455 -5.09375,8.9375 -1.00314,1.07761 -2.50597,0.00852 -3.34375,-0.71875 -2.07304,-2.98617 -2.44981,-6.88757 -3.6875,-10.28125 -2.38474,-7.49007 -3.47398,-15.27258 -4.9375,-22.96875 -1.76615,-6.93051 -1.66764,-14.09372 -1.59375,-21.1875 -0.5138,-6.6972 2.44211,-13.18378 6.84375,-18.09375 1.38074,-1.96611 3.78054,-4.48276 6.28125,-4.5625 z m 0,0 m 0,0 m 0,0 m -33.15625,94.375 c -1.55724,0.02274 -3.08748,0.3745 -4.40625,1.1875 -3.01208,2.04705 -4.99511,5.27276 -6.40625,8.5625 -0.94375,2.95209 -5.26933,5.53811 -3.125,8.8125 2.43594,2.08205 5.88897,3.07405 9.03125,3.59375 0.84994,0.0816 1.6786,0.20002 2.53125,0.25 3.47555,-0.01786 6.91194,-1.57447 9.65625,-3.5625 3.83583,-2.89409 3.7834,-8.0406 3.875,-12.375 0.32487,-3.45856 -4.17911,-4.31702 -6.625,-5.6875 -1.40446,-0.49069 -2.97401,-0.80399 -4.53125,-0.78125 z m 0,0 m 0,0 m 0,0 m 5.9375,2.78125 c 0.07832,0.00573 0.22288,0.06723 0.4375,0.25 -0.36558,0.27396 -0.67247,-0.2672 -0.4375,-0.25 z m 0,0 m 0,0 m 0,0 m -4.46875,0.0625 c 0.83226,0.0072 1.67833,0.14899 2.5,0.4375 3.95151,1.61742 4.87616,6.72733 3.625,10.4375 -0.90298,3.86539 -5.22768,4.67763 -8.53125,5.40625 -2.70363,0.85148 -5.63224,0.79963 -7.03125,-2.0625 -0.93776,-3.9498 0.44192,-8.04175 2.875,-11.1875 1.66028,-1.89453 4.06573,-3.05284 6.5625,-3.03125 z m 0,0 m 0,0 m 0,0 m 6.09375,1 c 1.17184,-0.09239 3.29776,2.59454 2.25,4.25 -0.12818,1.93807 -1.73837,-3.85015 -2.6875,-4.03125 0.11577,-0.1384 0.27009,-0.20555 0.4375,-0.21875 z m 0,0 m 0,0 m 0,0 m -6.875,1.34375 c -1.10472,0.05264 -2.13849,0.55964 -2.75,1.65625 2.73125,2.44793 0.51507,4.7477 -2.5625,4.1875 -0.12653,2.41537 0.09786,5.47392 2.71875,6.46875 0.985275,-0.016155 2.5568075,0.05051 3.752505,-0.26368125 -0.779995,-2.1624188 0.868385,-4.6419688 3.728115,-3.1861388 0.69938,-2.14522 1.26107,-3.54177 -0.29312,-5.98768 -0.61458,-1.12868 -2.67611,-2.42763 -4.59375,-2.875 z m 0,0 m 0,0 m 0,0 m -8.84375,2.46875 c -0.70641,2.41489 -0.79029,0.15991 0,0 z m 0,0 m 0,0 m 0,0 m -0.84375,1.8125 c 0.25015,-0.25669 -0.56607,1.73484 -0.53125,2.6875 -0.83985,3.09864 -0.0515,6.70723 2.8125,8.28125 3.74362,0.76611 6.7553188,0.69585378 12.46875,-1.96875 -4.3168,2.85604 -7.74537,3.24639 -12.25,2.40625 -0.23563,-0.00606 -0.48975,-0.04662 -0.71875,-0.125 -1.41389,-0.48396 -2.72207,-2.11363 -4.28125,-2.21875 -3.41121,-2.04061 1.08073,-5.36991 1.84375,-7.9375 0.39005,-0.7006 0.57287,-1.03944 0.65625,-1.125 z m 0,0 m 0,0 m 0,0 m 126.78125,50.3125 c 3.13482,0.00275 6.26605,0.19697 9.375,0.625 6.26245,1.26809 12.62349,2.49985 18.53125,5 6.20153,2.35371 12.44253,4.60363 18.4375,7.46875 5.23789,2.59183 10.59347,4.96912 15.6875,7.84375 5.24735,3.50376 10.52342,7.02732 15.53125,10.875 5.58597,4.62961 11.1623,9.34003 16.1875,14.5625 3.57066,3.47998 6.98513,7.17711 10.5625,10.71875 6.15154,6.59262 12.36519,13.27908 16.8125,21.1875 1.82062,4.31225 3.35777,8.79728 4.0625,13.4375 0.96482,3.635 0.82541,7.44638 1.75,11.09375 0.32435,3.29351 1.27637,6.48966 1.3125,9.8125 0.71903,6.33697 0.26137,12.74303 1.125,19.0625 0.66209,8.71525 1.34784,17.47373 0.9375,26.21875 -0.88738,5.63877 -1.92222,11.25847 -3.375,16.78125 -1.43172,5.00389 -4.84666,9.00715 -8.3125,12.75 -2.73888,2.52458 -6.04107,5.4727 -9.90625,5.59375 -5.41534,1.53654 -10.94243,2.57808 -16.5625,2.96875 -5.20345,0.05162 -10.29422,1.28884 -15.5,1.1875 -4.15909,-0.17727 -8.38651,1.11002 -12.4375,-0.1875 -4.19564,-0.66519 -8.32543,-1.78914 -12.4375,-2.875 -3.62402,-0.90393 -7.35372,-1.97646 -10.9375,-2.5625 -7.83185,-1.62898 -15.47089,-4.25663 -22.6875,-7.71875 -8.10713,-3.09932 -15.75254,-7.25654 -23.8125,-10.46875 -6.06974,-2.86734 -12.38414,-5.14084 -18.5625,-7.75 -3.95504,-2.05361 -8.29529,-3.33737 -12.03125,-5.78125 -1.67106,-0.72675 -4.55267,-1.77263 -2.625,-3.875 3.03135,-5.43945 8.81645,-8.56913 14.25,-11.1875 2.67519,-0.53761 0.99904,-2.2713 -0.71875,-0.84375 -3.14901,1.4215 -6.06431,3.21519 -9.0625,4.84375 -5.15756,2.34663 -8.3331,7.70827 -8.9375,13.21875 -1.18938,4.28957 -2.46293,8.54791 -3.53125,12.875 -1.04848,4.48633 -3.12096,8.63977 -4.1875,13.125 -2.23911,5.53514 -2.98013,12.00762 -7.5,16.3125 -2.8115,1.89458 -6.2538,2.71255 -9.59375,3.1875 -2.19826,0.69083 -3.99301,-0.4832 -6.09375,-0.9375 -2.44376,-1.14636 -5.66728,-2.84267 -6.09375,-5.90625 -1.42353,-2.81917 0.87569,-5.19316 2.84375,-7.4375 2.63982,-2.56702 4.99583,-5.38744 6.3125,-8.875 2.43582,-6.75366 3.54696,-13.90458 4.8125,-20.96875 1.04748,-6.80931 2.22386,-13.86445 0.6875,-20.6875 -1.43016,-4.74645 -3.08324,-9.43974 -5.03125,-14 -0.97939,-1.58541 -2.86226,-6.78866 -4.71875,-5.0625 2.61387,2.85853 3.97963,6.52674 5.375,10.09375 0.54684,3.47923 3.77655,7.11397 2.90625,10.4375 -2.58333,2.90755 -4.57741,6.48568 -6.15625,10.0625 -2.43204,4.65245 -4.50012,9.53188 -5.5,14.71875 -1.34921,3.89796 -1.60691,8.01894 -2.78125,11.96875 -1.02533,5.12491 -4.16668,9.48642 -8.375,12.5 -2.57042,1.80094 -5.1493,3.53344 -8.34375,3.34375 -2.92428,-0.35451 -6.15192,-0.15601 -8.78125,-1.625 -2.12208,-2.22907 -3.70833,-5.16546 -4.21875,-8.21875 -0.35745,-3.39515 2.64596,-5.49557 5.09375,-7.1875 3.98411,-0.90004 4.31917,-5.17819 5.40625,-8.375 1.14511,-5.76809 2.5932,-11.48528 3.90625,-17.21875 1.1808,-3.47904 1.84392,-7.10066 2.78125,-10.625 0.49215,-7.41701 -0.43641,-14.85407 -1.65625,-22.15625 -0.15531,-3.82107 -2.09967,-7.28923 -4.84375,-9.875 -4.64578,-3.99114 -9.13984,-8.18841 -13.03125,-12.9375 -3.52507,-4.30768 -7.53433,-8.2655 -10.3125,-13.125 -3.00752,-5.90081 -6.49582,-11.78145 -7.8125,-18.34375 -1.45209,-3.60402 -1.44347,-7.56724 -1.40625,-11.40625 0.23144,-4.95279 0.1478,-9.9685 0.9375,-14.875 1.28244,-3.77277 1.41303,-7.81757 2.90625,-11.53125 1.52656,-2.59117 1.61383,-6.38733 3.1875,-8.59375 3.54077,2.5073 6.60821,5.66392 9.25,9.09375 2.03896,1.61882 2.84893,6.12292 5.5,6.0625 -3.23817,-5.15805 -7.19643,-9.87713 -11.71875,-13.96875 -3.20595,-0.88298 -3.43322,-5.62904 0.21875,-5.59375 4.08435,2.28653 7.46458,5.6237 11.125,8.5 1.12696,0.79845 5.33382,6.12726 4.71875,3.25 -4.18258,-4.41459 -9.14973,-8.012 -13.90625,-11.78125 3.70734,-0.57294 7.45159,-0.98553 11.1875,-1.375 5.11673,-0.73571 10.37652,-0.94865 15.34375,-2.5 3.24973,-0.48002 6.44409,-1.21218 9.46875,-2.59375 3.43018,-1.38853 6.87567,-2.70238 9.90625,-4.84375 2.03846,-0.61491 3.59206,-5.88896 5.15625,-4.4375 3.17566,3.45368 7.70406,5.24991 12,6.875 3.6658,1.45667 7.54625,1.54815 11.4375,1.78125 3.68626,0.55012 7.20799,-0.54579 10.53125,-2.03125 3.1925,-1.24565 6.44868,-2.1139 9.6875,-3 5.37338,-2.08097 11.12926,-3.15583 16.875,-3.5 3.11022,-0.38225 6.24018,-0.5965 9.375,-0.59375 z m 0,0 m 0,0 m 0,0 m -128.1875,16.6875 c 0.53247,-0.04101 1.07119,0.16306 0.96875,0.84375 0.21802,1.28345 -0.38318,0.6474 -0.75,0.3125 -1.99274,-0.35804 -1.1062,-1.0879 -0.21875,-1.15625 z m 0,0 m 0,0 m 0,0 m 118.25,156.8125 c 0.84223,-0.03348 1.66839,0.02035 2.5,0.1875 4.75952,1.79577 9.28977,4.09522 13.875,6.28125 2.6071,1.57149 6.80888,2.57874 8.65625,4.125 -5.74905,0.16438 -11.50241,0.87037 -17.0625,2.375 -3.10527,0.86974 -6.47394,1.11389 -9.0625,3.25 -2.87945,2.31571 -4.95743,5.82944 -9.0625,5.71875 -3.55555,0.45355 -7.20865,0.28472 -10.78125,0.0625 -3.32057,0.01808 -5.3214,-3.08639 -5.09375,-6.03125 -0.45749,-2.78704 1.94233,-5.69927 4.1875,-7.34375 4.05964,-3.56099 9.01949,-6.0377 14.3125,-7.15625 2.44584,-0.52051 5.00455,-1.36831 7.53125,-1.46875 z m 0,0 m 0,0 m 0,0 M 412.875,519.1875 c 1.54352,-0.01614 3.08912,0.03573 4.625,0.1875 11.33116,5.25255 23.6727,7.54898 35.5625,11.15625 3.97924,0.72925 -0.35688,1.09387 -1.875,1.75 -4.62614,0.75517 -9.08011,2.3214 -13.65625,3.3125 -4.05286,0.69028 -7.97261,1.9149 -12.03125,2.53125 -5.58003,0.64079 -11.16086,1.67979 -16.78125,1.71875 -6.50614,-0.42059 -13.0039,0.09467 -19.4375,1 -3.05828,0.23469 -6.66436,1.08404 -9.4375,-0.5625 -2.12152,-2.00456 0.46585,-6.0668 1.46875,-8.4375 1.63219,-2.00617 3.06785,-4.45677 5.21875,-6.1875 3.21049,-3.52046 8.25276,-3.56414 12.53125,-4.8125 4.53226,-0.87029 9.18195,-1.60784 13.8125,-1.65625 z"
         style="fill:#000000" />
    </g>
  </g>
</svg>
